Rosalind Serif-Bold Italic.ufo
<glyph name="exclam" format="1">
  <advance width="604"/>
  <unicode hex="0021"/>
  <note>
	exclam
  </note>
  <outline>
    <contour>
      <point x="579" y="1529" type="line"/>
      <point x="363" y="439" type="line"/>
      <point x="212" y="439" type="line"/>
      <point x="325" y="1529" type="line"/>
    </contour>
    <contour>
      <point x="335" y="259"/>
      <point x="377" y="210"/>
      <point x="377" y="143" type="curve" smooth="yes"/>
      <point x="377" y="75"/>
      <point x="342" y="26"/>
      <point x="293" y="1" type="curve" smooth="yes"/>
      <point x="268" y="-12"/>
      <point x="243" y="-18"/>
      <point x="216" y="-18" type="curve" smooth="yes"/>
      <point x="155" y="-18"/>
      <point x="108" y="29"/>
      <point x="108" y="98" type="curve" smooth="yes"/>
      <point x="108" y="159"/>
      <point x="140" y="211"/>
      <point x="187" y="239" type="curve" smooth="yes"/>
      <point x="210" y="252"/>
      <point x="235" y="259"/>
      <point x="260" y="259" type="curve" smooth="yes"/>
    </contour>
  </outline>
</glyph>
<glyph name="quotedbl" format="1">
  <advance width="914"/>
  <unicode hex="0022"/>
  <note>
	quotedbl
  </note>
  <outline>
    <contour>
      <point x="481" y="1451" type="line"/>
      <point x="338" y="831" type="line"/>
      <point x="189" y="831" type="line"/>
      <point x="257" y="1451" type="line"/>
    </contour>
    <contour>
      <point x="912" y="1451" type="line"/>
      <point x="769" y="831" type="line"/>
      <point x="620" y="831" type="line"/>
      <point x="688" y="1451" type="line"/>
    </contour>
  </outline>
</glyph>
<glyph name="numbersign" format="1">
  <advance width="1208"/>
  <unicode hex="0023"/>
  <note>
	numbersign
  </note>
  <outline>
    <contour>
      <point x="95" y="314" type="line"/>
      <point x="109" y="449" type="line"/>
      <point x="289" y="449" type="line"/>
      <point x="335" y="749" type="line"/>
      <point x="159" y="749" type="line"/>
      <point x="169" y="882" type="line"/>
      <point x="354" y="882" type="line"/>
      <point x="400" y="1167" type="line"/>
      <point x="571" y="1167" type="line"/>
      <point x="527" y="882" type="line"/>
      <point x="765" y="882" type="line"/>
      <point x="814" y="1167" type="line"/>
      <point x="985" y="1167" type="line"/>
      <point x="938" y="882" type="line"/>
      <point x="1123" y="882" type="line"/>
      <point x="1113" y="749" type="line"/>
      <point x="918" y="749" type="line"/>
      <point x="872" y="449" type="line"/>
      <point x="1053" y="449" type="line"/>
      <point x="1039" y="314" type="line"/>
      <point x="848" y="314" type="line"/>
      <point x="799" y="0" type="line"/>
      <point x="632" y="0" type="line"/>
      <point x="676" y="314" type="line"/>
      <point x="437" y="314" type="line"/>
      <point x="384" y="0" type="line"/>
      <point x="215" y="0" type="line"/>
      <point x="265" y="314" type="line"/>
    </contour>
    <contour>
      <point x="746" y="749" type="line"/>
      <point x="507" y="749" type="line"/>
      <point x="461" y="449" type="line"/>
      <point x="700" y="449" type="line"/>
    </contour>
  </outline>
</glyph>
<glyph name="dollar" format="1">
  <advance width="1036"/>
  <unicode hex="0024"/>
  <note>
	dollar
  </note>
  <outline>
    <contour>
      <point x="243" y="319" type="line"/>
      <point x="255" y="148" type="line"/>
      <point x="306" y="108"/>
      <point x="374" y="82"/>
      <point x="450" y="82" type="curve" smooth="yes"/>
      <point x="597" y="82"/>
      <point x="691" y="155"/>
      <point x="691" y="282" type="curve" smooth="yes"/>
      <point x="691" y="361"/>
      <point x="654" y="420"/>
      <point x="591" y="473" type="curve" smooth="yes"/>
      <point x="560" y="500"/>
      <point x="517" y="530"/>
      <point x="463" y="563" type="curve" smooth="yes"/>
      <point x="342" y="640"/>
      <point x="265" y="699"/>
      <point x="214" y="791" type="curve" smooth="yes"/>
      <point x="188" y="836"/>
      <point x="175" y="888"/>
      <point x="175" y="947" type="curve" smooth="yes"/>
      <point x="175" y="1091"/>
      <point x="249" y="1203"/>
      <point x="371" y="1266" type="curve" smooth="yes"/>
      <point x="432" y="1297"/>
      <point x="501" y="1316"/>
      <point x="579" y="1323" type="curve"/>
      <point x="605" y="1484" type="line"/>
      <point x="760" y="1484" type="line"/>
      <point x="734" y="1321" type="line"/>
      <point x="843" y="1312"/>
      <point x="922" y="1287"/>
      <point x="970" y="1258" type="curve"/>
      <point x="926" y="1020" type="line"/>
      <point x="790" y="1020" type="line"/>
      <point x="764" y="1177" type="line"/>
      <point x="720" y="1208"/>
      <point x="660" y="1225"/>
      <point x="599" y="1225" type="curve" smooth="yes"/>
      <point x="524" y="1225"/>
      <point x="460" y="1196"/>
      <point x="424" y="1141" type="curve" smooth="yes"/>
      <point x="405" y="1114"/>
      <point x="396" y="1080"/>
      <point x="396" y="1041" type="curve" smooth="yes"/>
      <point x="396" y="958"/>
      <point x="435" y="895"/>
      <point x="502" y="842" type="curve" smooth="yes"/>
      <point x="535" y="815"/>
      <point x="581" y="784"/>
      <point x="638" y="748" type="curve" smooth="yes"/>
      <point x="753" y="677"/>
      <point x="830" y="618"/>
      <point x="881" y="529" type="curve" smooth="yes"/>
      <point x="906" y="484"/>
      <point x="919" y="434"/>
      <point x="919" y="377" type="curve" smooth="yes"/>
      <point x="919" y="237"/>
      <point x="852" y="120"/>
      <point x="728" y="49" type="curve" smooth="yes"/>
      <point x="665" y="14"/>
      <point x="591" y="-8"/>
      <point x="504" y="-16" type="curve"/>
      <point x="475" y="-198" type="line"/>
      <point x="320" y="-198" type="line"/>
      <point x="349" y="-16" type="line"/>
      <point x="214" y="-5"/>
      <point x="85" y="33"/>
      <point x="49" y="61" type="curve"/>
      <point x="96" y="319" type="line"/>
    </contour>
  </outline>
</glyph>
<glyph name="percent" format="1">
  <advance width="1643"/>
  <unicode hex="0025"/>
  <note>
	percent
  </note>
  <outline>
    <contour>
      <point x="1306" y="1316" type="line"/>
      <point x="492" y="0" type="line"/>
      <point x="326" y="0" type="line"/>
      <point x="1140" y="1316" type="line"/>
    </contour>
    <contour>
      <point x="153" y="1030"/>
      <point x="221" y="1152"/>
      <point x="332" y="1224" type="curve" smooth="yes"/>
      <point x="387" y="1260"/>
      <point x="449" y="1278"/>
      <point x="518" y="1278" type="curve" smooth="yes"/>
      <point x="687" y="1278"/>
      <point x="775" y="1175"/>
      <point x="775" y="1019" type="curve" smooth="yes"/>
      <point x="775" y="892"/>
      <point x="709" y="764"/>
      <point x="597" y="691" type="curve" smooth="yes"/>
      <point x="541" y="654"/>
      <point x="477" y="636"/>
      <point x="406" y="636" type="curve" smooth="yes"/>
      <point x="301" y="636"/>
      <point x="222" y="686"/>
      <point x="183" y="769" type="curve" smooth="yes"/>
      <point x="163" y="810"/>
      <point x="153" y="856"/>
      <point x="153" y="907" type="curve" smooth="yes"/>
    </contour>
    <contour>
      <point x="592" y="1121"/>
      <point x="561" y="1185"/>
      <point x="494" y="1185" type="curve" smooth="yes"/>
      <point x="422" y="1185"/>
      <point x="372" y="1117"/>
      <point x="348" y="1032" type="curve" smooth="yes"/>
      <point x="335" y="989"/>
      <point x="329" y="948"/>
      <point x="329" y="909" type="curve" smooth="yes"/>
      <point x="329" y="797"/>
      <point x="360" y="729"/>
      <point x="431" y="729" type="curve" smooth="yes"/>
      <point x="499" y="729"/>
      <point x="550" y="800"/>
      <point x="574" y="889" type="curve" smooth="yes"/>
      <point x="586" y="933"/>
      <point x="592" y="974"/>
      <point x="592" y="1012" type="curve" smooth="yes"/>
    </contour>
    <contour>
      <point x="1416" y="693"/>
      <point x="1504" y="590"/>
      <point x="1504" y="435" type="curve" smooth="yes"/>
      <point x="1504" y="308"/>
      <point x="1438" y="182"/>
      <point x="1326" y="108" type="curve" smooth="yes"/>
      <point x="1270" y="71"/>
      <point x="1206" y="52"/>
      <point x="1135" y="52" type="curve" smooth="yes"/>
      <point x="1028" y="52"/>
      <point x="951" y="102"/>
      <point x="912" y="185" type="curve" smooth="yes"/>
      <point x="892" y="226"/>
      <point x="882" y="272"/>
      <point x="882" y="323" type="curve" smooth="yes"/>
      <point x="882" y="446"/>
      <point x="949" y="569"/>
      <point x="1061" y="640" type="curve" smooth="yes"/>
      <point x="1117" y="675"/>
      <point x="1179" y="693"/>
      <point x="1247" y="693" type="curve" smooth="yes"/>
    </contour>
    <contour>
      <point x="1229" y="145"/>
      <point x="1279" y="215"/>
      <point x="1303" y="304" type="curve" smooth="yes"/>
      <point x="1314" y="348"/>
      <point x="1320" y="389"/>
      <point x="1320" y="428" type="curve" smooth="yes"/>
      <point x="1320" y="539"/>
      <point x="1288" y="601"/>
      <point x="1223" y="601" type="curve" smooth="yes"/>
      <point x="1152" y="601"/>
      <point x="1101" y="535"/>
      <point x="1077" y="449" type="curve" smooth="yes"/>
      <point x="1064" y="406"/>
      <point x="1058" y="364"/>
      <point x="1058" y="325" type="curve" smooth="yes"/>
      <point x="1058" y="213"/>
      <point x="1091" y="145"/>
      <point x="1160" y="145" type="curve" smooth="yes"/>
    </contour>
  </outline>
</glyph>
<glyph name="ampersand" format="1">
  <advance width="1453"/>
  <unicode hex="0026"/>
  <note>
	ampersand
  </note>
  <outline>
    <contour>
      <point x="857" y="673" type="line"/>
      <point x="877" y="693"/>
      <point x="923" y="715"/>
      <point x="990" y="715" type="curve" smooth="yes"/>
      <point x="1013" y="715"/>
      <point x="1043" y="712"/>
      <point x="1078" y="707" type="curve" smooth="yes"/>
      <point x="1120" y="701"/>
      <point x="1156" y="698"/>
      <point x="1185" y="698" type="curve" smooth="yes"/>
      <point x="1249" y="698"/>
      <point x="1286" y="712"/>
      <point x="1309" y="751" type="curve" smooth="yes"/>
      <point x="1320" y="770"/>
      <point x="1329" y="797"/>
      <point x="1334" y="832" type="curve"/>
      <point x="1417" y="832" type="line"/>
      <point x="1422" y="807"/>
      <point x="1424" y="780"/>
      <point x="1424" y="750" type="curve" smooth="yes"/>
      <point x="1424" y="619"/>
      <point x="1366" y="525"/>
      <point x="1258" y="525" type="curve" smooth="yes"/>
      <point x="1242" y="525"/>
      <point x="1230" y="525"/>
      <point x="1222" y="526" type="curve"/>
      <point x="1223" y="511"/>
      <point x="1224" y="499"/>
      <point x="1224" y="489" type="curve" smooth="yes"/>
      <point x="1224" y="356"/>
      <point x="1167" y="242"/>
      <point x="1067" y="155" type="curve"/>
      <point x="1092" y="138"/>
      <point x="1123" y="121"/>
      <point x="1179" y="110" type="curve" smooth="yes"/>
      <point x="1207" y="104"/>
      <point x="1233" y="101"/>
      <point x="1258" y="101" type="curve" smooth="yes"/>
      <point x="1276" y="101" type="line"/>
      <point x="1272" y="9" type="line"/>
      <point x="1211" y="-11"/>
      <point x="1157" y="-17"/>
      <point x="1066" y="-17" type="curve" smooth="yes"/>
      <point x="986" y="-17"/>
      <point x="917" y="0"/>
      <point x="859" y="33" type="curve"/>
      <point x="757" y="-5"/>
      <point x="650" y="-24"/>
      <point x="539" y="-24" type="curve" smooth="yes"/>
      <point x="356" y="-24"/>
      <point x="203" y="26"/>
      <point x="117" y="125" type="curve" smooth="yes"/>
      <point x="74" y="174"/>
      <point x="52" y="234"/>
      <point x="52" y="303" type="curve" smooth="yes"/>
      <point x="52" y="427"/>
      <point x="115" y="516"/>
      <point x="206" y="578" type="curve" smooth="yes"/>
      <point x="251" y="609"/>
      <point x="307" y="639"/>
      <point x="374" y="669" type="curve"/>
      <point x="331" y="766"/>
      <point x="301" y="878"/>
      <point x="301" y="962" type="curve" smooth="yes"/>
      <point x="301" y="1113"/>
      <point x="381" y="1229"/>
      <point x="513" y="1289" type="curve" smooth="yes"/>
      <point x="578" y="1319"/>
      <point x="652" y="1334"/>
      <point x="734" y="1334" type="curve" smooth="yes"/>
      <point x="886" y="1334"/>
      <point x="986" y="1284"/>
      <point x="1032" y="1208" type="curve" smooth="yes"/>
      <point x="1055" y="1170"/>
      <point x="1066" y="1128"/>
      <point x="1066" y="1082" type="curve" smooth="yes"/>
      <point x="1066" y="954"/>
      <point x="985" y="861"/>
      <point x="881" y="798" type="curve" smooth="yes"/>
      <point x="829" y="767"/>
      <point x="760" y="730"/>
      <point x="673" y="688" type="curve" smooth="yes"/>
      <point x="637" y="671" type="line"/>
      <point x="744" y="479"/>
      <point x="833" y="363"/>
      <point x="958" y="246" type="curve"/>
      <point x="966" y="237" type="line"/>
      <point x="1005" y="294"/>
      <point x="1024" y="365"/>
      <point x="1024" y="452" type="curve" smooth="yes"/>
      <point x="1024" y="479"/>
      <point x="1022" y="510"/>
      <point x="1017" y="545" type="curve"/>
      <point x="1011" y="546"/>
      <point x="1001" y="546"/>
      <point x="988" y="546" type="curve" smooth="yes"/>
      <point x="936" y="546"/>
      <point x="884" y="530"/>
      <point x="857" y="513" type="curve"/>
    </contour>
    <contour>
      <point x="748" y="841"/>
      <point x="838" y="926"/>
      <point x="838" y="1066" type="curve" smooth="yes"/>
      <point x="838" y="1159"/>
      <point x="806" y="1235"/>
      <point x="722" y="1235" type="curve" smooth="yes"/>
      <point x="594" y="1235"/>
      <point x="533" y="1143"/>
      <point x="533" y="1004" type="curve" smooth="yes"/>
      <point x="533" y="925"/>
      <point x="551" y="845"/>
      <point x="588" y="764" type="curve"/>
    </contour>
    <contour>
      <point x="673" y="193"/>
      <point x="600" y="285"/>
      <point x="547" y="369" type="curve" smooth="yes"/>
      <point x="520" y="411"/>
      <point x="487" y="465"/>
      <point x="448" y="531" type="curve" smooth="yes"/>
      <point x="433" y="556" type="line"/>
      <point x="346" y="491"/>
      <point x="297" y="420"/>
      <point x="297" y="325" type="curve" smooth="yes"/>
      <point x="297" y="224"/>
      <point x="348" y="149"/>
      <point x="430" y="113" type="curve" smooth="yes"/>
      <point x="471" y="94"/>
      <point x="517" y="85"/>
      <point x="569" y="85" type="curve" smooth="yes"/>
      <point x="646" y="85"/>
      <point x="712" y="93"/>
      <point x="765" y="108" type="curve"/>
    </contour>
  </outline>
</glyph>
<glyph name="quotesingle" format="1">
  <advance width="483"/>
  <unicode hex="0027"/>
  <note>
	quotesingle
  </note>
  <outline>
    <contour>
      <point x="478" y="1451" type="line"/>
      <point x="335" y="831" type="line"/>
      <point x="186" y="831" type="line"/>
      <point x="254" y="1451" type="line"/>
    </contour>
  </outline>
</glyph>
<glyph name="parenleft" format="1">
  <advance width="749"/>
  <unicode hex="0028"/>
  <note>
	parenleft
  </note>
  <outline>
    <contour>
      <point x="215" y="927"/>
      <point x="379" y="1195"/>
      <point x="535" y="1357" type="curve" smooth="yes"/>
      <point x="613" y="1438"/>
      <point x="673" y="1489"/>
      <point x="714" y="1512" type="curve"/>
      <point x="808" y="1447" type="line"/>
      <point x="743" y="1404"/>
      <point x="614" y="1262"/>
      <point x="507" y="1038" type="curve" smooth="yes"/>
      <point x="453" y="926"/>
      <point x="415" y="802"/>
      <point x="392" y="665" type="curve" smooth="yes"/>
      <point x="381" y="593"/>
      <point x="375" y="504"/>
      <point x="375" y="440" type="curve" smooth="yes"/>
      <point x="375" y="209"/>
      <point x="436" y="16"/>
      <point x="505" y="-103" type="curve" smooth="yes"/>
      <point x="539" y="-162"/>
      <point x="569" y="-203"/>
      <point x="596" y="-224" type="curve"/>
      <point x="488" y="-289" type="line"/>
      <point x="474" y="-289" type="line"/>
      <point x="409" y="-244"/>
      <point x="300" y="-125"/>
      <point x="221" y="81" type="curve" smooth="yes"/>
      <point x="182" y="184"/>
      <point x="162" y="301"/>
      <point x="162" y="434" type="curve" smooth="yes"/>
      <point x="162" y="494"/>
      <point x="166" y="557"/>
      <point x="175" y="623" type="curve" smooth="yes"/>
    </contour>
  </outline>
</glyph>
<glyph name="parenright" format="1">
  <advance width="753"/>
  <unicode hex="0029"/>
  <note>
	parenright
  </note>
  <outline>
    <contour>
      <point x="540" y="301"/>
      <point x="375" y="34"/>
      <point x="219" y="-128" type="curve" smooth="yes"/>
      <point x="141" y="-209"/>
      <point x="81" y="-261"/>
      <point x="40" y="-284" type="curve"/>
      <point x="-53" y="-218" type="line"/>
      <point x="12" y="-177"/>
      <point x="140" y="-34"/>
      <point x="248" y="190" type="curve" smooth="yes"/>
      <point x="302" y="302"/>
      <point x="340" y="426"/>
      <point x="362" y="563" type="curve" smooth="yes"/>
      <point x="373" y="635"/>
      <point x="379" y="724"/>
      <point x="379" y="788" type="curve" smooth="yes"/>
      <point x="379" y="1019"/>
      <point x="318" y="1212"/>
      <point x="250" y="1331" type="curve" smooth="yes"/>
      <point x="215" y="1390"/>
      <point x="185" y="1431"/>
      <point x="158" y="1453" type="curve"/>
      <point x="266" y="1517" type="line"/>
      <point x="280" y="1517" type="line"/>
      <point x="345" y="1473"/>
      <point x="455" y="1354"/>
      <point x="534" y="1148" type="curve" smooth="yes"/>
      <point x="573" y="1045"/>
      <point x="593" y="927"/>
      <point x="593" y="794" type="curve" smooth="yes"/>
      <point x="593" y="735"/>
      <point x="589" y="672"/>
      <point x="580" y="605" type="curve" smooth="yes"/>
    </contour>
  </outline>
</glyph>
<glyph name="asterisk" format="1">
  <advance width="1174"/>
  <unicode hex="002A"/>
  <note>
	asterisk
  </note>
  <outline>
    <contour>
      <point x="499" y="966" type="line"/>
      <point x="571" y="990" type="line"/>
      <point x="506" y="1012" type="line"/>
      <point x="239" y="1129" type="line"/>
      <point x="351" y="1290" type="line"/>
      <point x="569" y="1109" type="line"/>
      <point x="620" y="1061" type="line"/>
      <point x="613" y="1133" type="line"/>
      <point x="607" y="1431" type="line"/>
      <point x="802" y="1430" type="line"/>
      <point x="732" y="1132" type="line"/>
      <point x="712" y="1063" type="line"/>
      <point x="771" y="1109" type="line"/>
      <point x="1029" y="1292" type="line"/>
      <point x="1105" y="1128" type="line"/>
      <point x="817" y="1012" type="line"/>
      <point x="745" y="988" type="line"/>
      <point x="811" y="965" type="line"/>
      <point x="1077" y="849" type="line"/>
      <point x="966" y="688" type="line"/>
      <point x="746" y="869" type="line"/>
      <point x="696" y="918" type="line"/>
      <point x="703" y="845" type="line"/>
      <point x="709" y="547" type="line"/>
      <point x="514" y="548" type="line"/>
      <point x="583" y="846" type="line"/>
      <point x="604" y="916" type="line"/>
      <point x="545" y="868" type="line"/>
      <point x="287" y="686" type="line"/>
      <point x="212" y="850" type="line"/>
    </contour>
  </outline>
</glyph>
<glyph name="plus" format="1">
  <advance width="1155"/>
  <unicode hex="002B"/>
  <note>
	plus
  </note>
  <outline>
    <contour>
      <point x="515" y="593" type="line"/>
      <point x="394" y="587" type="line"/>
      <point x="215" y="587" type="line"/>
      <point x="230" y="741" type="line"/>
      <point x="420" y="741" type="line"/>
      <point x="538" y="732" type="line"/>
      <point x="550" y="874" type="line"/>
      <point x="573" y="1072" type="line"/>
      <point x="746" y="1072" type="line"/>
      <point x="723" y="874" type="line"/>
      <point x="698" y="733" type="line"/>
      <point x="797" y="741" type="line"/>
      <point x="1002" y="741" type="line"/>
      <point x="986" y="587" type="line"/>
      <point x="771" y="587" type="line"/>
      <point x="675" y="593" type="line"/>
      <point x="674" y="565"/>
      <point x="673" y="537"/>
      <point x="670" y="508" type="curve" smooth="yes"/>
      <point x="666" y="452" type="line"/>
      <point x="642" y="244" type="line"/>
      <point x="470" y="244" type="line"/>
      <point x="493" y="452" type="line"/>
    </contour>
  </outline>
</glyph>
<glyph name="comma" format="1">
  <advance width="466"/>
  <unicode hex="002C"/>
  <note>
	comma
  </note>
  <outline>
    <contour>
      <point x="201" y="243" type="line"/>
      <point x="314" y="208"/>
      <point x="364" y="104"/>
      <point x="364" y="-15" type="curve" smooth="yes"/>
      <point x="364" y="-139"/>
      <point x="305" y="-255"/>
      <point x="209" y="-339" type="curve" smooth="yes"/>
      <point x="160" y="-382"/>
      <point x="105" y="-415"/>
      <point x="44" y="-440" type="curve"/>
      <point x="-10" y="-368" type="line"/>
      <point x="-8" y="-350" type="line"/>
      <point x="51" y="-322"/>
      <point x="106" y="-261"/>
      <point x="136" y="-188" type="curve" smooth="yes"/>
      <point x="151" y="-151"/>
      <point x="158" y="-114"/>
      <point x="158" y="-76" type="curve" smooth="yes"/>
      <point x="158" y="-27"/>
      <point x="142" y="21"/>
      <point x="116" y="50" type="curve" smooth="yes"/>
      <point x="103" y="64"/>
      <point x="88" y="72"/>
      <point x="73" y="75" type="curve"/>
      <point x="77" y="122" type="line"/>
    </contour>
  </outline>
</glyph>
<glyph name="hyphen" format="1">
  <advance width="1098"/>
  <unicode hex="002D"/>
  <note>
	hyphen
  </note>
  <outline>
    <contour>
      <point x="952" y="741" type="line"/>
      <point x="937" y="587" type="line"/>
      <point x="207" y="587" type="line"/>
      <point x="223" y="741" type="line"/>
    </contour>
  </outline>
</glyph>
<glyph name="period" format="1">
  <advance width="466"/>
  <unicode hex="002E"/>
  <note>
	period
  </note>
  <outline>
    <contour>
      <point x="290" y="259"/>
      <point x="331" y="210"/>
      <point x="331" y="143" type="curve" smooth="yes"/>
      <point x="331" y="75"/>
      <point x="297" y="26"/>
      <point x="248" y="1" type="curve" smooth="yes"/>
      <point x="223" y="-12"/>
      <point x="197" y="-18"/>
      <point x="170" y="-18" type="curve" smooth="yes"/>
      <point x="107" y="-18"/>
      <point x="62" y="30"/>
      <point x="62" y="99" type="curve" smooth="yes"/>
      <point x="62" y="160"/>
      <point x="94" y="211"/>
      <point x="141" y="239" type="curve" smooth="yes"/>
      <point x="164" y="252"/>
      <point x="189" y="259"/>
      <point x="214" y="259" type="curve" smooth="yes"/>
    </contour>
  </outline>
</glyph>
<glyph name="zero" format="1">
  <advance width="1099"/>
  <unicode hex="0030"/>
  <note>
	zero
  </note>
  <outline>
    <contour>
      <point x="88" y="624"/>
      <point x="189" y="817"/>
      <point x="353" y="921" type="curve" smooth="yes"/>
      <point x="435" y="973"/>
      <point x="527" y="999"/>
      <point x="629" y="999" type="curve" smooth="yes"/>
      <point x="810" y="999"/>
      <point x="926" y="923"/>
      <point x="979" y="800" type="curve" smooth="yes"/>
      <point x="1006" y="738"/>
      <point x="1019" y="668"/>
      <point x="1019" y="589" type="curve" smooth="yes"/>
      <point x="1019" y="366"/>
      <point x="921" y="173"/>
      <point x="757" y="66" type="curve" smooth="yes"/>
      <point x="674" y="13"/>
      <point x="582" y="-14"/>
      <point x="480" y="-14" type="curve" smooth="yes"/>
      <point x="300" y="-14"/>
      <point x="183" y="66"/>
      <point x="129" y="190" type="curve" smooth="yes"/>
      <point x="102" y="251"/>
      <point x="88" y="320"/>
      <point x="88" y="396" type="curve" smooth="yes"/>
    </contour>
    <contour>
      <point x="772" y="781"/>
      <point x="720" y="906"/>
      <point x="603" y="906" type="curve" smooth="yes"/>
      <point x="467" y="906"/>
      <point x="387" y="784"/>
      <point x="355" y="632" type="curve" smooth="yes"/>
      <point x="339" y="555"/>
      <point x="331" y="478"/>
      <point x="331" y="401" type="curve" smooth="yes"/>
      <point x="331" y="213"/>
      <point x="383" y="81"/>
      <point x="499" y="81" type="curve" smooth="yes"/>
      <point x="628" y="81"/>
      <point x="710" y="197"/>
      <point x="746" y="350" type="curve" smooth="yes"/>
      <point x="763" y="426"/>
      <point x="772" y="504"/>
      <point x="772" y="584" type="curve" smooth="yes"/>
    </contour>
  </outline>
</glyph>
<glyph name="one" format="1">
  <advance width="794"/>
  <unicode hex="0031"/>
  <note>
	one
  </note>
  <outline>
    <contour>
      <point x="257" y="108" type="line"/>
      <point x="349" y="774" type="line"/>
      <point x="275" y="755"/>
      <point x="205" y="740"/>
      <point x="138" y="729" type="curve"/>
      <point x="123" y="826" type="line"/>
      <point x="236" y="851"/>
      <point x="406" y="932"/>
      <point x="505" y="999" type="curve"/>
      <point x="615" y="974" type="line"/>
      <point x="494" y="108" type="line"/>
      <point x="680" y="84" type="line"/>
      <point x="672" y="0" type="line"/>
      <point x="72" y="0" type="line"/>
      <point x="81" y="84" type="line"/>
    </contour>
  </outline>
</glyph>
<glyph name="two" format="1">
  <advance width="1043"/>
  <unicode hex="0032"/>
  <note>
	two
  </note>
  <outline>
    <contour>
      <point x="32" y="81" type="line"/>
      <point x="261" y="200"/>
      <point x="448" y="337"/>
      <point x="552" y="478" type="curve" smooth="yes"/>
      <point x="604" y="548"/>
      <point x="630" y="615"/>
      <point x="630" y="679" type="curve" smooth="yes"/>
      <point x="630" y="792"/>
      <point x="575" y="853"/>
      <point x="466" y="853" type="curve" smooth="yes"/>
      <point x="357" y="853"/>
      <point x="247" y="792"/>
      <point x="180" y="728" type="curve"/>
      <point x="124" y="825" type="line"/>
      <point x="168" y="874"/>
      <point x="247" y="931"/>
      <point x="360" y="970" type="curve" smooth="yes"/>
      <point x="416" y="989"/>
      <point x="477" y="999"/>
      <point x="542" y="999" type="curve" smooth="yes"/>
      <point x="790" y="999"/>
      <point x="883" y="878"/>
      <point x="883" y="719" type="curve" smooth="yes"/>
      <point x="883" y="499"/>
      <point x="618" y="281"/>
      <point x="281" y="116" type="curve"/>
      <point x="757" y="155" type="line"/>
      <point x="848" y="308" type="line"/>
      <point x="958" y="272" type="line"/>
      <point x="879" y="0" type="line"/>
      <point x="54" y="0" type="line"/>
    </contour>
  </outline>
</glyph>
<glyph name="three" format="1">
  <advance width="939"/>
  <unicode hex="0033"/>
  <note>
	three
  </note>
  <outline>
    <contour>
      <point x="308" y="-178"/>
      <point x="445" y="-119"/>
      <point x="516" y="-24" type="curve" smooth="yes"/>
      <point x="551" y="23"/>
      <point x="569" y="76"/>
      <point x="569" y="134" type="curve" smooth="yes"/>
      <point x="569" y="246"/>
      <point x="503" y="314"/>
      <point x="352" y="314" type="curve" smooth="yes"/>
      <point x="338" y="314"/>
      <point x="327" y="314"/>
      <point x="320" y="313" type="curve"/>
      <point x="213" y="286" type="line"/>
      <point x="230" y="400" type="line"/>
      <point x="353" y="427"/>
      <point x="465" y="489"/>
      <point x="528" y="574" type="curve" smooth="yes"/>
      <point x="559" y="617"/>
      <point x="575" y="662"/>
      <point x="575" y="711" type="curve" smooth="yes"/>
      <point x="575" y="799"/>
      <point x="521" y="849"/>
      <point x="432" y="849" type="curve" smooth="yes"/>
      <point x="324" y="849"/>
      <point x="237" y="811"/>
      <point x="152" y="744" type="curve"/>
      <point x="108" y="839" type="line"/>
      <point x="151" y="886"/>
      <point x="240" y="940"/>
      <point x="352" y="974" type="curve" smooth="yes"/>
      <point x="408" y="991"/>
      <point x="465" y="999"/>
      <point x="524" y="999" type="curve" smooth="yes"/>
      <point x="633" y="999"/>
      <point x="727" y="963"/>
      <point x="779" y="891" type="curve" smooth="yes"/>
      <point x="804" y="855"/>
      <point x="817" y="811"/>
      <point x="817" y="758" type="curve" smooth="yes"/>
      <point x="817" y="658"/>
      <point x="752" y="558"/>
      <point x="656" y="483" type="curve" smooth="yes"/>
      <point x="608" y="445"/>
      <point x="557" y="415"/>
      <point x="502" y="394" type="curve"/>
      <point x="521" y="395"/>
      <point x="536" y="396"/>
      <point x="545" y="396" type="curve" smooth="yes"/>
      <point x="726" y="396"/>
      <point x="816" y="301"/>
      <point x="816" y="156" type="curve" smooth="yes"/>
      <point x="816" y="-21"/>
      <point x="685" y="-167"/>
      <point x="488" y="-244" type="curve" smooth="yes"/>
      <point x="389" y="-283"/>
      <point x="284" y="-302"/>
      <point x="173" y="-302" type="curve" smooth="yes"/>
      <point x="130" y="-302"/>
      <point x="72" y="-295"/>
      <point x="-1" y="-281" type="curve"/>
      <point x="25" y="-167" type="line"/>
      <point x="66" y="-174"/>
      <point x="103" y="-178"/>
      <point x="135" y="-178" type="curve" smooth="yes"/>
    </contour>
  </outline>
</glyph>
<glyph name="four" format="1">
  <advance width="1081"/>
  <unicode hex="0034"/>
  <note>
	four
  </note>
  <outline>
    <contour>
      <point x="-5" y="76" type="line"/>
      <point x="154" y="277"/>
      <point x="410" y="724"/>
      <point x="574" y="1080" type="curve"/>
      <point x="608" y="1080" type="line"/>
      <point x="817" y="980" type="line"/>
      <point x="729" y="823"/>
      <point x="467" y="442"/>
      <point x="298" y="214" type="curve"/>
      <point x="197" y="99" type="line"/>
      <point x="584" y="126" type="line"/>
      <point x="625" y="439" type="line"/>
      <point x="849" y="498" type="line"/>
      <point x="808" y="144" type="line"/>
      <point x="996" y="157" type="line"/>
      <point x="974" y="0" type="line"/>
      <point x="783" y="0" type="line"/>
      <point x="743" y="-322" type="line"/>
      <point x="523" y="-322" type="line"/>
      <point x="565" y="0" type="line"/>
      <point x="40" y="0" type="line"/>
    </contour>
  </outline>
</glyph>
<glyph name="five" format="1">
  <advance width="956"/>
  <unicode hex="0035"/>
  <note>
	five
  </note>
  <outline>
    <contour>
      <point x="312" y="-189"/>
      <point x="452" y="-117"/>
      <point x="525" y="-9" type="curve" smooth="yes"/>
      <point x="562" y="45"/>
      <point x="580" y="103"/>
      <point x="580" y="164" type="curve" smooth="yes"/>
      <point x="580" y="309"/>
      <point x="506" y="381"/>
      <point x="359" y="381" type="curve" smooth="yes"/>
      <point x="291" y="381"/>
      <point x="225" y="361"/>
      <point x="150" y="332" type="curve"/>
      <point x="102" y="369" type="line"/>
      <point x="240" y="986" type="line"/>
      <point x="752" y="986" type="line"/>
      <point x="771" y="999" type="line"/>
      <point x="899" y="999" type="line"/>
      <point x="851" y="820" type="line"/>
      <point x="405" y="820" type="line"/>
      <point x="312" y="469" type="line"/>
      <point x="356" y="489"/>
      <point x="450" y="510"/>
      <point x="511" y="510" type="curve" smooth="yes"/>
      <point x="650" y="510"/>
      <point x="751" y="459"/>
      <point x="803" y="368" type="curve" smooth="yes"/>
      <point x="828" y="322"/>
      <point x="841" y="268"/>
      <point x="841" y="207" type="curve" smooth="yes"/>
      <point x="841" y="4"/>
      <point x="711" y="-155"/>
      <point x="509" y="-238" type="curve" smooth="yes"/>
      <point x="408" y="-280"/>
      <point x="298" y="-301"/>
      <point x="181" y="-301" type="curve" smooth="yes"/>
      <point x="138" y="-301"/>
      <point x="61" y="-292"/>
      <point x="34" y="-283" type="curve"/>
      <point x="51" y="-180" type="line"/>
      <point x="84" y="-186"/>
      <point x="111" y="-189"/>
      <point x="133" y="-189" type="curve" smooth="yes"/>
    </contour>
  </outline>
</glyph>
<glyph name="six" format="1">
  <advance width="1053"/>
  <unicode hex="0036"/>
  <note>
	six
  </note>
  <outline>
    <contour>
      <point x="96" y="699"/>
      <point x="235" y="971"/>
      <point x="464" y="1157" type="curve" smooth="yes"/>
      <point x="579" y="1250"/>
      <point x="707" y="1314"/>
      <point x="848" y="1351" type="curve"/>
      <point x="885" y="1255" type="line"/>
      <point x="733" y="1203"/>
      <point x="586" y="1082"/>
      <point x="484" y="941" type="curve" smooth="yes"/>
      <point x="433" y="870"/>
      <point x="396" y="801"/>
      <point x="374" y="733" type="curve"/>
      <point x="433" y="800"/>
      <point x="526" y="848"/>
      <point x="647" y="848" type="curve" smooth="yes"/>
      <point x="780" y="848"/>
      <point x="879" y="787"/>
      <point x="928" y="687" type="curve" smooth="yes"/>
      <point x="952" y="637"/>
      <point x="964" y="581"/>
      <point x="964" y="519" type="curve" smooth="yes"/>
      <point x="964" y="331"/>
      <point x="877" y="157"/>
      <point x="733" y="58" type="curve" smooth="yes"/>
      <point x="660" y="8"/>
      <point x="579" y="-17"/>
      <point x="490" y="-17" type="curve" smooth="yes"/>
      <point x="333" y="-17"/>
      <point x="210" y="63"/>
      <point x="145" y="196" type="curve" smooth="yes"/>
      <point x="112" y="262"/>
      <point x="96" y="336"/>
      <point x="96" y="418" type="curve" smooth="yes"/>
    </contour>
    <contour>
      <point x="731" y="581"/>
      <point x="702" y="653"/>
      <point x="655" y="688" type="curve" smooth="yes"/>
      <point x="631" y="705"/>
      <point x="604" y="714"/>
      <point x="575" y="714" type="curve" smooth="yes"/>
      <point x="484" y="714"/>
      <point x="410" y="672"/>
      <point x="351" y="587" type="curve"/>
      <point x="336" y="509"/>
      <point x="328" y="434"/>
      <point x="328" y="363" type="curve" smooth="yes"/>
      <point x="328" y="192"/>
      <point x="375" y="89"/>
      <point x="506" y="89" type="curve" smooth="yes"/>
      <point x="607" y="89"/>
      <point x="676" y="177"/>
      <point x="708" y="294" type="curve" smooth="yes"/>
      <point x="723" y="352"/>
      <point x="731" y="411"/>
      <point x="731" y="470" type="curve" smooth="yes"/>
    </contour>
  </outline>
</glyph>
<glyph name="seven" format="1">
  <advance width="942"/>
  <unicode hex="0037"/>
  <note>
	seven
  </note>
  <outline>
    <contour>
      <point x="305" y="841" type="line"/>
      <point x="227" y="655" type="line"/>
      <point x="75" y="657" type="line"/>
      <point x="134" y="986" type="line"/>
      <point x="928" y="986" type="line"/>
      <point x="957" y="945" type="line"/>
      <point x="448" y="-303" type="line"/>
      <point x="222" y="-231" type="line"/>
      <point x="768" y="841" type="line"/>
    </contour>
  </outline>
</glyph>
<glyph name="eight" format="1">
  <advance width="1051"/>
  <unicode hex="0038"/>
  <note>
	eight
  </note>
  <outline>
    <contour>
      <point x="300" y="764"/>
      <point x="229" y="870"/>
      <point x="229" y="990" type="curve" smooth="yes"/>
      <point x="229" y="1118"/>
      <point x="304" y="1228"/>
      <point x="433" y="1288" type="curve" smooth="yes"/>
      <point x="498" y="1318"/>
      <point x="571" y="1333"/>
      <point x="653" y="1333" type="curve" smooth="yes"/>
      <point x="881" y="1333"/>
      <point x="1000" y="1241"/>
      <point x="1000" y="1073" type="curve" smooth="yes"/>
      <point x="1000" y="930"/>
      <point x="888" y="803"/>
      <point x="717" y="716" type="curve"/>
      <point x="853" y="620"/>
      <point x="949" y="488"/>
      <point x="949" y="352" type="curve" smooth="yes"/>
      <point x="949" y="204"/>
      <point x="850" y="88"/>
      <point x="703" y="28" type="curve" smooth="yes"/>
      <point x="630" y="-2"/>
      <point x="553" y="-17"/>
      <point x="474" y="-17" type="curve" smooth="yes"/>
      <point x="337" y="-17"/>
      <point x="211" y="23"/>
      <point x="138" y="117" type="curve" smooth="yes"/>
      <point x="101" y="164"/>
      <point x="83" y="223"/>
      <point x="83" y="294" type="curve" smooth="yes"/>
      <point x="83" y="455"/>
      <point x="211" y="597"/>
      <point x="403" y="677" type="curve"/>
    </contour>
    <contour>
      <point x="802" y="1181"/>
      <point x="735" y="1242"/>
      <point x="643" y="1242" type="curve" smooth="yes"/>
      <point x="566" y="1242"/>
      <point x="502" y="1205"/>
      <point x="467" y="1142" type="curve" smooth="yes"/>
      <point x="450" y="1110"/>
      <point x="441" y="1074"/>
      <point x="441" y="1033" type="curve" smooth="yes"/>
      <point x="441" y="938"/>
      <point x="504" y="871"/>
      <point x="625" y="784" type="curve"/>
      <point x="732" y="840"/>
      <point x="802" y="935"/>
      <point x="802" y="1062" type="curve" smooth="yes"/>
    </contour>
    <contour>
      <point x="582" y="83"/>
      <point x="654" y="122"/>
      <point x="694" y="191" type="curve" smooth="yes"/>
      <point x="714" y="225"/>
      <point x="724" y="265"/>
      <point x="724" y="310" type="curve" smooth="yes"/>
      <point x="724" y="390"/>
      <point x="684" y="452"/>
      <point x="623" y="505" type="curve" smooth="yes"/>
      <point x="592" y="532"/>
      <point x="549" y="565"/>
      <point x="493" y="606" type="curve"/>
      <point x="380" y="546"/>
      <point x="304" y="439"/>
      <point x="304" y="306" type="curve" smooth="yes"/>
      <point x="304" y="226"/>
      <point x="333" y="154"/>
      <point x="393" y="114" type="curve" smooth="yes"/>
      <point x="423" y="93"/>
      <point x="459" y="83"/>
      <point x="502" y="83" type="curve" smooth="yes"/>
    </contour>
  </outline>
</glyph>
<glyph name="nine" format="1">
  <advance width="1071"/>
  <unicode hex="0039"/>
  <note>
	nine
  </note>
  <outline>
    <contour>
      <point x="975" y="289"/>
      <point x="835" y="14"/>
      <point x="604" y="-174" type="curve" smooth="yes"/>
      <point x="489" y="-268"/>
      <point x="360" y="-333"/>
      <point x="218" y="-369" type="curve"/>
      <point x="181" y="-272" type="line"/>
      <point x="337" y="-220"/>
      <point x="486" y="-104"/>
      <point x="590" y="37" type="curve" smooth="yes"/>
      <point x="641" y="108"/>
      <point x="678" y="179"/>
      <point x="700" y="250" type="curve"/>
      <point x="641" y="183"/>
      <point x="544" y="134"/>
      <point x="425" y="134" type="curve" smooth="yes"/>
      <point x="289" y="134"/>
      <point x="193" y="207"/>
      <point x="145" y="321" type="curve" smooth="yes"/>
      <point x="120" y="378"/>
      <point x="108" y="440"/>
      <point x="108" y="509" type="curve" smooth="yes"/>
      <point x="108" y="676"/>
      <point x="190" y="837"/>
      <point x="334" y="930" type="curve" smooth="yes"/>
      <point x="406" y="977"/>
      <point x="488" y="1000"/>
      <point x="581" y="1000" type="curve" smooth="yes"/>
      <point x="741" y="1000"/>
      <point x="863" y="927"/>
      <point x="927" y="799" type="curve" smooth="yes"/>
      <point x="959" y="735"/>
      <point x="975" y="660"/>
      <point x="975" y="574" type="curve" smooth="yes"/>
    </contour>
    <contour>
      <point x="337" y="425"/>
      <point x="370" y="339"/>
      <point x="418" y="299" type="curve" smooth="yes"/>
      <point x="442" y="279"/>
      <point x="468" y="269"/>
      <point x="496" y="269" type="curve" smooth="yes"/>
      <point x="601" y="269"/>
      <point x="673" y="329"/>
      <point x="721" y="396" type="curve"/>
      <point x="736" y="461"/>
      <point x="744" y="529"/>
      <point x="744" y="600" type="curve" smooth="yes"/>
      <point x="744" y="780"/>
      <point x="695" y="894"/>
      <point x="566" y="894" type="curve" smooth="yes"/>
      <point x="463" y="894"/>
      <point x="394" y="816"/>
      <point x="362" y="713" type="curve" smooth="yes"/>
      <point x="345" y="661"/>
      <point x="337" y="609"/>
      <point x="337" y="556" type="curve" smooth="yes"/>
    </contour>
  </outline>
</glyph>
<glyph name="colon" format="1">
  <advance width="466"/>
  <unicode hex="003A"/>
  <note>
	colon
  </note>
  <outline>
    <contour>
      <point x="368" y="955"/>
      <point x="409" y="906"/>
      <point x="409" y="839" type="curve" smooth="yes"/>
      <point x="409" y="771"/>
      <point x="375" y="722"/>
      <point x="326" y="697" type="curve" smooth="yes"/>
      <point x="301" y="684"/>
      <point x="275" y="678"/>
      <point x="248" y="678" type="curve" smooth="yes"/>
      <point x="185" y="678"/>
      <point x="140" y="726"/>
      <point x="140" y="795" type="curve" smooth="yes"/>
      <point x="140" y="856"/>
      <point x="172" y="907"/>
      <point x="219" y="935" type="curve" smooth="yes"/>
      <point x="242" y="948"/>
      <point x="267" y="955"/>
      <point x="292" y="955" type="curve" smooth="yes"/>
    </contour>
    <contour>
      <point x="283" y="259"/>
      <point x="324" y="210"/>
      <point x="324" y="143" type="curve" smooth="yes"/>
      <point x="324" y="75"/>
      <point x="290" y="26"/>
      <point x="241" y="1" type="curve" smooth="yes"/>
      <point x="216" y="-12"/>
      <point x="190" y="-18"/>
      <point x="163" y="-18" type="curve" smooth="yes"/>
      <point x="100" y="-18"/>
      <point x="55" y="30"/>
      <point x="55" y="99" type="curve" smooth="yes"/>
      <point x="55" y="160"/>
      <point x="87" y="211"/>
      <point x="134" y="239" type="curve" smooth="yes"/>
      <point x="157" y="252"/>
      <point x="182" y="259"/>
      <point x="207" y="259" type="curve" smooth="yes"/>
    </contour>
  </outline>
</glyph>
<glyph name="semicolon" format="1">
  <advance width="466"/>
  <unicode hex="003B"/>
  <note>
	semicolon
  </note>
  <outline>
    <contour>
      <point x="194" y="243" type="line"/>
      <point x="307" y="208"/>
      <point x="357" y="104"/>
      <point x="357" y="-15" type="curve" smooth="yes"/>
      <point x="357" y="-139"/>
      <point x="298" y="-255"/>
      <point x="202" y="-339" type="curve" smooth="yes"/>
      <point x="153" y="-382"/>
      <point x="98" y="-415"/>
      <point x="37" y="-440" type="curve"/>
      <point x="-17" y="-368" type="line"/>
      <point x="-15" y="-350" type="line"/>
      <point x="44" y="-322"/>
      <point x="99" y="-261"/>
      <point x="129" y="-188" type="curve" smooth="yes"/>
      <point x="144" y="-151"/>
      <point x="151" y="-114"/>
      <point x="151" y="-76" type="curve" smooth="yes"/>
      <point x="151" y="-27"/>
      <point x="135" y="21"/>
      <point x="109" y="50" type="curve" smooth="yes"/>
      <point x="96" y="64"/>
      <point x="81" y="72"/>
      <point x="66" y="75" type="curve"/>
      <point x="70" y="122" type="line"/>
    </contour>
    <contour>
      <point x="369" y="955"/>
      <point x="410" y="906"/>
      <point x="410" y="839" type="curve" smooth="yes"/>
      <point x="410" y="771"/>
      <point x="376" y="722"/>
      <point x="327" y="697" type="curve" smooth="yes"/>
      <point x="302" y="684"/>
      <point x="276" y="678"/>
      <point x="249" y="678" type="curve" smooth="yes"/>
      <point x="186" y="678"/>
      <point x="141" y="726"/>
      <point x="141" y="795" type="curve" smooth="yes"/>
      <point x="141" y="856"/>
      <point x="173" y="907"/>
      <point x="220" y="935" type="curve" smooth="yes"/>
      <point x="243" y="948"/>
      <point x="268" y="955"/>
      <point x="293" y="955" type="curve" smooth="yes"/>
    </contour>
  </outline>
</glyph>
<glyph name="less" format="1">
  <advance width="1176"/>
  <unicode hex="003C"/>
  <note>
	less
  </note>
  <outline>
    <contour>
      <point x="1049" y="1139" type="line"/>
      <point x="1024" y="939" type="line"/>
      <point x="395" y="644" type="line"/>
      <point x="955" y="342" type="line"/>
      <point x="933" y="151" type="line"/>
      <point x="168" y="590" type="line"/>
      <point x="181" y="700" type="line"/>
    </contour>
  </outline>
</glyph>
<glyph name="equal" format="1">
  <advance width="914"/>
  <unicode hex="003D"/>
  <note>
	equal
  </note>
  <outline>
    <contour>
      <point x="847" y="879" type="line"/>
      <point x="829" y="724" type="line"/>
      <point x="128" y="724" type="line"/>
      <point x="146" y="879" type="line"/>
    </contour>
    <contour>
      <point x="786" y="432" type="line"/>
      <point x="768" y="277" type="line"/>
      <point x="67" y="277" type="line"/>
      <point x="85" y="432" type="line"/>
    </contour>
  </outline>
</glyph>
<glyph name="greater" format="1">
  <advance width="1176"/>
  <unicode hex="003E"/>
  <note>
	greater
  </note>
  <outline>
    <contour>
      <point x="215" y="154" type="line"/>
      <point x="240" y="353" type="line"/>
      <point x="869" y="648" type="line"/>
      <point x="310" y="950" type="line"/>
      <point x="331" y="1141" type="line"/>
      <point x="1096" y="703" type="line"/>
      <point x="1083" y="593" type="line"/>
    </contour>
  </outline>
</glyph>
<glyph name="question" format="1">
  <advance width="843"/>
  <unicode hex="003F"/>
  <note>
	question
  </note>
  <outline>
    <contour>
      <point x="198" y="459" type="line"/>
      <point x="197" y="494" type="line" smooth="yes"/>
      <point x="194" y="539"/>
      <point x="191" y="562"/>
      <point x="198" y="600" type="curve" smooth="yes"/>
      <point x="213" y="682"/>
      <point x="247" y="754"/>
      <point x="303" y="820" type="curve" smooth="yes"/>
      <point x="351" y="875"/>
      <point x="407" y="918"/>
      <point x="461" y="959" type="curve" smooth="yes"/>
      <point x="506" y="993"/>
      <point x="549" y="1026"/>
      <point x="581" y="1062" type="curve" smooth="yes"/>
      <point x="615" y="1099"/>
      <point x="634" y="1137"/>
      <point x="642" y="1181" type="curve" smooth="yes"/>
      <point x="652" y="1235"/>
      <point x="642" y="1277"/>
      <point x="615" y="1306" type="curve" smooth="yes"/>
      <point x="601" y="1321"/>
      <point x="581" y="1332"/>
      <point x="557" y="1340" type="curve" smooth="yes"/>
      <point x="531" y="1349"/>
      <point x="498" y="1354"/>
      <point x="461" y="1354" type="curve" smooth="yes"/>
      <point x="389" y="1354"/>
      <point x="305" y="1331"/>
      <point x="242" y="1294" type="curve" smooth="yes"/>
      <point x="188" y="1263" type="line"/>
      <point x="160" y="1413" type="line"/>
      <point x="186" y="1433" type="line" smooth="yes"/>
      <point x="211" y="1451"/>
      <point x="263" y="1486"/>
      <point x="336" y="1515" type="curve" smooth="yes"/>
      <point x="409" y="1543"/>
      <point x="481" y="1558"/>
      <point x="552" y="1558" type="curve" smooth="yes"/>
      <point x="617" y="1558"/>
      <point x="675" y="1550"/>
      <point x="724" y="1535" type="curve" smooth="yes"/>
      <point x="774" y="1519"/>
      <point x="816" y="1496"/>
      <point x="848" y="1466" type="curve" smooth="yes"/>
      <point x="880" y="1434"/>
      <point x="903" y="1396"/>
      <point x="914" y="1351" type="curve" smooth="yes"/>
      <point x="925" y="1307"/>
      <point x="926" y="1256"/>
      <point x="917" y="1201" type="curve" smooth="yes"/>
      <point x="903" y="1123"/>
      <point x="864" y="1053"/>
      <point x="799" y="987" type="curve" smooth="yes"/>
      <point x="744" y="931"/>
      <point x="678" y="885"/>
      <point x="614" y="841" type="curve" smooth="yes"/>
      <point x="555" y="801"/>
      <point x="500" y="763"/>
      <point x="457" y="720" type="curve" smooth="yes"/>
      <point x="413" y="676"/>
      <point x="388" y="633"/>
      <point x="379" y="584" type="curve" smooth="yes"/>
      <point x="376" y="566"/>
      <point x="379" y="563"/>
      <point x="378" y="542" type="curve" smooth="yes"/>
      <point x="378" y="532"/>
      <point x="378" y="521"/>
      <point x="377" y="509" type="curve" smooth="yes"/>
      <point x="375" y="459" type="line"/>
    </contour>
    <contour>
      <point x="346" y="278"/>
      <point x="392" y="228"/>
      <point x="391" y="161" type="curve"/>
      <point x="390" y="152"/>
      <point x="390" y="144"/>
      <point x="389" y="139" type="curve" smooth="yes"/>
      <point x="376" y="62"/>
      <point x="306" y="10"/>
      <point x="217" y="2" type="curve" smooth="yes"/>
      <point x="208" y="1"/>
      <point x="201" y="0"/>
      <point x="196" y="0" type="curve" smooth="yes"/>
      <point x="131" y="0"/>
      <point x="79" y="47"/>
      <point x="80" y="116" type="curve"/>
      <point x="80" y="119"/>
      <point x="81" y="124"/>
      <point x="82" y="131" type="curve" smooth="yes"/>
      <point x="91" y="184"/>
      <point x="132" y="233"/>
      <point x="186" y="259" type="curve" smooth="yes"/>
      <point x="214" y="272"/>
      <point x="242" y="278"/>
      <point x="271" y="278" type="curve" smooth="yes"/>
    </contour>
  </outline>
</glyph>
<glyph name="at" format="1">
  <advance width="1693"/>
  <unicode hex="0040"/>
  <note>
	at
  </note>
  <outline>
    <contour>
      <point x="1264" y="1342"/>
      <point x="1452" y="1249"/>
      <point x="1553" y="1081" type="curve" smooth="yes"/>
      <point x="1603" y="997"/>
      <point x="1628" y="898"/>
      <point x="1628" y="783" type="curve" smooth="yes"/>
      <point x="1628" y="474"/>
      <point x="1513" y="228"/>
      <point x="1350" y="100" type="curve" smooth="yes"/>
      <point x="1268" y="35"/>
      <point x="1184" y="3"/>
      <point x="1098" y="3" type="curve" smooth="yes"/>
      <point x="1026" y="3"/>
      <point x="1004" y="64"/>
      <point x="1004" y="179" type="curve" smooth="yes"/>
      <point x="1004" y="222"/>
      <point x="1016" y="307"/>
      <point x="1033" y="382" type="curve"/>
      <point x="978" y="251"/>
      <point x="904" y="132"/>
      <point x="821" y="60" type="curve" smooth="yes"/>
      <point x="780" y="24"/>
      <point x="739" y="6"/>
      <point x="698" y="6" type="curve" smooth="yes"/>
      <point x="607" y="6"/>
      <point x="523" y="60"/>
      <point x="473" y="172" type="curve" smooth="yes"/>
      <point x="448" y="227"/>
      <point x="435" y="296"/>
      <point x="435" y="377" type="curve" smooth="yes"/>
      <point x="435" y="561"/>
      <point x="513" y="752"/>
      <point x="663" y="866" type="curve" smooth="yes"/>
      <point x="738" y="923"/>
      <point x="827" y="951"/>
      <point x="931" y="951" type="curve" smooth="yes"/>
      <point x="983" y="951"/>
      <point x="1068" y="931"/>
      <point x="1113" y="900" type="curve"/>
      <point x="1274" y="936" type="line"/>
      <point x="1241" y="805"/>
      <point x="1196" y="532"/>
      <point x="1180" y="359" type="curve" smooth="yes"/>
      <point x="1177" y="324"/>
      <point x="1175" y="289"/>
      <point x="1175" y="255" type="curve" smooth="yes"/>
      <point x="1175" y="236"/>
      <point x="1175" y="215"/>
      <point x="1176" y="192" type="curve" smooth="yes"/>
      <point x="1177" y="177"/>
      <point x="1179" y="165"/>
      <point x="1183" y="157" type="curve" smooth="yes"/>
      <point x="1187" y="149"/>
      <point x="1191" y="145"/>
      <point x="1196" y="145" type="curve" smooth="yes"/>
      <point x="1289" y="145"/>
      <point x="1383" y="272"/>
      <point x="1436" y="449" type="curve" smooth="yes"/>
      <point x="1462" y="537"/>
      <point x="1475" y="625"/>
      <point x="1475" y="714" type="curve" smooth="yes"/>
      <point x="1475" y="945"/>
      <point x="1367" y="1093"/>
      <point x="1209" y="1161" type="curve" smooth="yes"/>
      <point x="1130" y="1195"/>
      <point x="1045" y="1212"/>
      <point x="954" y="1212" type="curve" smooth="yes"/>
      <point x="667" y="1212"/>
      <point x="441" y="1029"/>
      <point x="324" y="765" type="curve" smooth="yes"/>
      <point x="265" y="632"/>
      <point x="236" y="494"/>
      <point x="236" y="351" type="curve" smooth="yes"/>
      <point x="236" y="79"/>
      <point x="339" y="-97"/>
      <point x="506" y="-179" type="curve" smooth="yes"/>
      <point x="589" y="-220"/>
      <point x="685" y="-241"/>
      <point x="794" y="-241" type="curve" smooth="yes"/>
      <point x="893" y="-241"/>
      <point x="1040" y="-215"/>
      <point x="1096" y="-187" type="curve"/>
      <point x="1129" y="-272" type="line"/>
      <point x="1048" y="-333"/>
      <point x="912" y="-372"/>
      <point x="767" y="-372" type="curve" smooth="yes"/>
      <point x="495" y="-372"/>
      <point x="280" y="-277"/>
      <point x="161" y="-79" type="curve" smooth="yes"/>
      <point x="102" y="20"/>
      <point x="72" y="142"/>
      <point x="72" y="289" type="curve" smooth="yes"/>
      <point x="72" y="694"/>
      <point x="270" y="1031"/>
      <point x="565" y="1209" type="curve" smooth="yes"/>
      <point x="712" y="1298"/>
      <point x="867" y="1342"/>
      <point x="1029" y="1342" type="curve" smooth="yes"/>
    </contour>
    <contour>
      <point x="798" y="173"/>
      <point x="909" y="337"/>
      <point x="991" y="525" type="curve" smooth="yes"/>
      <point x="1032" y="619"/>
      <point x="1056" y="697"/>
      <point x="1063" y="758" type="curve"/>
      <point x="1042" y="797"/>
      <point x="966" y="830"/>
      <point x="914" y="830" type="curve" smooth="yes"/>
      <point x="781" y="830"/>
      <point x="694" y="733"/>
      <point x="654" y="598" type="curve" smooth="yes"/>
      <point x="634" y="530"/>
      <point x="624" y="459"/>
      <point x="624" y="384" type="curve" smooth="yes"/>
      <point x="624" y="269"/>
      <point x="660" y="173"/>
      <point x="731" y="173" type="curve" smooth="yes"/>
    </contour>
  </outline>
</glyph>
<glyph name="B" format="1">
  <advance width="1164"/>
  <unicode hex="0042"/>
  <note>
	B
  </note>
  <outline>
    <contour>
      <point x="136" y="109" type="line"/>
      <point x="278" y="1196" type="line"/>
      <point x="157" y="1218" type="line"/>
      <point x="169" y="1309" type="line"/>
      <point x="421" y="1309" type="line" smooth="yes"/>
      <point x="450" y="1309"/>
      <point x="493" y="1311"/>
      <point x="550" y="1316" type="curve" smooth="yes"/>
      <point x="615" y="1321"/>
      <point x="666" y="1323"/>
      <point x="703" y="1323" type="curve" smooth="yes"/>
      <point x="992" y="1323"/>
      <point x="1101" y="1200"/>
      <point x="1101" y="1031" type="curve" smooth="yes"/>
      <point x="1101" y="856"/>
      <point x="1000" y="748"/>
      <point x="808" y="693" type="curve"/>
      <point x="921" y="689"/>
      <point x="1011" y="637"/>
      <point x="1059" y="556" type="curve" smooth="yes"/>
      <point x="1082" y="515"/>
      <point x="1094" y="471"/>
      <point x="1094" y="423" type="curve" smooth="yes"/>
      <point x="1094" y="119"/>
      <point x="872" y="-15"/>
      <point x="488" y="-15" type="curve" smooth="yes"/>
      <point x="455" y="-15"/>
      <point x="412" y="-12"/>
      <point x="359" y="-7" type="curve" smooth="yes"/>
      <point x="300" y="-2"/>
      <point x="260" y="0"/>
      <point x="237" y="0" type="curve" smooth="yes"/>
      <point x="5" y="0" type="line"/>
      <point x="13" y="83" type="line"/>
    </contour>
    <contour>
      <point x="453" y="735" type="line"/>
      <point x="477" y="734"/>
      <point x="495" y="734"/>
      <point x="507" y="734" type="curve" smooth="yes"/>
      <point x="580" y="734" type="line" smooth="yes"/>
      <point x="688" y="734"/>
      <point x="778" y="771"/>
      <point x="830" y="854" type="curve" smooth="yes"/>
      <point x="855" y="895"/>
      <point x="868" y="947"/>
      <point x="868" y="1010" type="curve" smooth="yes"/>
      <point x="868" y="1150"/>
      <point x="799" y="1218"/>
      <point x="648" y="1218" type="curve" smooth="yes"/>
      <point x="616" y="1218"/>
      <point x="552" y="1214"/>
      <point x="515" y="1207" type="curve"/>
    </contour>
    <contour>
      <point x="372" y="109" type="line"/>
      <point x="411" y="98"/>
      <point x="484" y="91"/>
      <point x="525" y="91" type="curve" smooth="yes"/>
      <point x="733" y="91"/>
      <point x="837" y="189"/>
      <point x="837" y="384" type="curve" smooth="yes"/>
      <point x="837" y="548"/>
      <point x="764" y="621"/>
      <point x="584" y="621" type="curve" smooth="yes"/>
      <point x="528" y="621"/>
      <point x="479" y="619"/>
      <point x="438" y="616" type="curve"/>
    </contour>
  </outline>
</glyph>
<glyph name="F" format="1">
  <advance width="1029"/>
  <unicode hex="0046"/>
  <note>
	F
  </note>
  <outline>
    <contour>
      <point x="137" y="109" type="line"/>
      <point x="276" y="1196" type="line"/>
      <point x="157" y="1218" type="line"/>
      <point x="168" y="1309" type="line"/>
      <point x="1080" y="1309" type="line"/>
      <point x="1052" y="1007" type="line"/>
      <point x="900" y="1007" type="line"/>
      <point x="874" y="1190" type="line"/>
      <point x="523" y="1209" type="line"/>
      <point x="461" y="737" type="line"/>
      <point x="870" y="752" type="line"/>
      <point x="851" y="585" type="line"/>
      <point x="447" y="611" type="line"/>
      <point x="381" y="110" type="line"/>
      <point x="617" y="84" type="line"/>
      <point x="610" y="0" type="line"/>
      <point x="5" y="0" type="line"/>
      <point x="14" y="84" type="line"/>
    </contour>
  </outline>
</glyph>
<glyph name="G" format="1">
  <advance width="1189"/>
  <unicode hex="0047"/>
  <note>
	G
  </note>
  <outline>
    <contour>
      <point x="906" y="1324"/>
      <point x="992" y="1306"/>
      <point x="1088" y="1281" type="curve" smooth="yes"/>
      <point x="1111" y="1275" type="line"/>
      <point x="1155" y="1265" type="line"/>
      <point x="1103" y="992" type="line"/>
      <point x="938" y="992" type="line"/>
      <point x="925" y="1173" type="line"/>
      <point x="878" y="1203"/>
      <point x="818" y="1218"/>
      <point x="743" y="1218" type="curve" smooth="yes"/>
      <point x="542" y="1218"/>
      <point x="419" y="1080"/>
      <point x="366" y="886" type="curve" smooth="yes"/>
      <point x="339" y="789"/>
      <point x="326" y="683"/>
      <point x="326" y="570" type="curve" smooth="yes"/>
      <point x="326" y="399"/>
      <point x="361" y="252"/>
      <point x="440" y="167" type="curve" smooth="yes"/>
      <point x="479" y="124"/>
      <point x="529" y="103"/>
      <point x="589" y="103" type="curve" smooth="yes"/>
      <point x="681" y="103"/>
      <point x="749" y="113"/>
      <point x="805" y="144" type="curve"/>
      <point x="853" y="507" type="line"/>
      <point x="667" y="522" type="line"/>
      <point x="681" y="636" type="line"/>
      <point x="1116" y="636" type="line"/>
      <point x="1039" y="76" type="line"/>
      <point x="1000" y="72"/>
      <point x="953" y="62"/>
      <point x="900" y="47" type="curve" smooth="yes"/>
      <point x="800" y="20"/>
      <point x="753" y="7"/>
      <point x="668" y="-5" type="curve" smooth="yes"/>
      <point x="625" y="-11"/>
      <point x="581" y="-14"/>
      <point x="534" y="-14" type="curve" smooth="yes"/>
      <point x="318" y="-14"/>
      <point x="179" y="104"/>
      <point x="115" y="278" type="curve" smooth="yes"/>
      <point x="83" y="365"/>
      <point x="67" y="459"/>
      <point x="67" y="561" type="curve" smooth="yes"/>
      <point x="67" y="865"/>
      <point x="184" y="1102"/>
      <point x="391" y="1229" type="curve" smooth="yes"/>
      <point x="494" y="1292"/>
      <point x="614" y="1324"/>
      <point x="751" y="1324" type="curve" smooth="yes"/>
    </contour>
  </outline>
</glyph>
<glyph name="H" format="1">
  <advance width="1377"/>
  <unicode hex="0048"/>
  <note>
	H
  </note>
  <outline>
    <contour>
      <point x="897" y="110" type="line"/>
      <point x="961" y="609" type="line"/>
      <point x="447" y="609" type="line"/>
      <point x="383" y="109" type="line"/>
      <point x="526" y="84" type="line"/>
      <point x="519" y="0" type="line"/>
      <point x="8" y="0" type="line"/>
      <point x="16" y="83" type="line"/>
      <point x="138" y="109" type="line"/>
      <point x="280" y="1196" type="line"/>
      <point x="159" y="1218" type="line"/>
      <point x="170" y="1309" type="line"/>
      <point x="679" y="1309" type="line"/>
      <point x="668" y="1218" type="line"/>
      <point x="524" y="1196" type="line"/>
      <point x="463" y="726" type="line"/>
      <point x="976" y="726" type="line"/>
      <point x="1037" y="1196" type="line"/>
      <point x="895" y="1218" type="line"/>
      <point x="905" y="1309" type="line"/>
      <point x="1418" y="1309" type="line"/>
      <point x="1408" y="1218" type="line"/>
      <point x="1281" y="1196" type="line"/>
      <point x="1141" y="110" type="line"/>
      <point x="1275" y="83" type="line"/>
      <point x="1265" y="0" type="line"/>
      <point x="734" y="0" type="line"/>
      <point x="743" y="84" type="line"/>
    </contour>
  </outline>
</glyph>
<glyph name="J" format="1">
  <advance width="630"/>
  <unicode hex="004A"/>
  <note>
	J
  </note>
  <outline>
    <contour>
      <point x="166" y="1218" type="line"/>
      <point x="179" y="1309" type="line"/>
      <point x="668" y="1309" type="line"/>
      <point x="659" y="1218" type="line"/>
      <point x="531" y="1197" type="line"/>
      <point x="527" y="1164" type="line" smooth="yes"/>
      <point x="487" y="819"/>
      <point x="456" y="559"/>
      <point x="434" y="383" type="curve" smooth="yes"/>
      <point x="390" y="30"/>
      <point x="373" y="-14"/>
      <point x="274" y="-114" type="curve" smooth="yes"/>
      <point x="174" y="-215"/>
      <point x="38" y="-274"/>
      <point x="-109" y="-297" type="curve"/>
      <point x="-147" y="-212" type="line"/>
      <point x="-36" y="-179"/>
      <point x="46" y="-114"/>
      <point x="94" y="-40" type="curve" smooth="yes"/>
      <point x="118" y="-3"/>
      <point x="134" y="35"/>
      <point x="142" y="74" type="curve" smooth="yes"/>
      <point x="190" y="313"/>
      <point x="218" y="538"/>
      <point x="266" y="973" type="curve" smooth="yes"/>
      <point x="273" y="1037"/>
      <point x="280" y="1112"/>
      <point x="291" y="1196" type="curve"/>
    </contour>
  </outline>
</glyph>
<glyph name="K" format="1">
  <advance width="1230"/>
  <unicode hex="004B"/>
  <note>
	K
  </note>
  <outline>
    <contour>
      <point x="696" y="341" type="line" smooth="yes"/>
      <point x="643" y="463"/>
      <point x="605" y="547"/>
      <point x="581" y="592" type="curve"/>
      <point x="421" y="426" type="line"/>
      <point x="381" y="109" type="line"/>
      <point x="525" y="84" type="line"/>
      <point x="517" y="0" type="line"/>
      <point x="1" y="0" type="line"/>
      <point x="10" y="83" type="line"/>
      <point x="137" y="109" type="line"/>
      <point x="277" y="1196" type="line"/>
      <point x="157" y="1218" type="line"/>
      <point x="169" y="1309" type="line"/>
      <point x="676" y="1309" type="line"/>
      <point x="666" y="1218" type="line"/>
      <point x="521" y="1196" type="line"/>
      <point x="445" y="606" type="line"/>
      <point x="976" y="1196" type="line"/>
      <point x="867" y="1219" type="line"/>
      <point x="877" y="1309" type="line"/>
      <point x="1276" y="1309" type="line"/>
      <point x="1264" y="1218" type="line"/>
      <point x="1164" y="1197" type="line"/>
      <point x="740" y="757" type="line"/>
      <point x="763" y="720"/>
      <point x="807" y="637"/>
      <point x="874" y="508" type="curve" smooth="yes"/>
      <point x="939" y="384" type="line"/>
      <point x="948" y="369" type="line"/>
      <point x="998" y="278"/>
      <point x="1034" y="216"/>
      <point x="1055" y="183" type="curve" smooth="yes"/>
      <point x="1076" y="149"/>
      <point x="1096" y="127"/>
      <point x="1113" y="118" type="curve"/>
      <point x="1219" y="86" type="line"/>
      <point x="1207" y="0" type="line"/>
      <point x="896" y="0" type="line"/>
      <point x="874" y="3"/>
      <point x="851" y="23"/>
      <point x="828" y="62" type="curve" smooth="yes"/>
      <point x="805" y="101"/>
      <point x="776" y="158"/>
      <point x="743" y="234" type="curve" smooth="yes"/>
    </contour>
  </outline>
</glyph>
<glyph name="L" format="1">
  <advance width="1056"/>
  <unicode hex="004C"/>
  <note>
	L
  </note>
  <outline>
    <contour>
      <point x="137" y="109" type="line"/>
      <point x="277" y="1196" type="line"/>
      <point x="157" y="1218" type="line"/>
      <point x="168" y="1309" type="line"/>
      <point x="691" y="1309" type="line"/>
      <point x="680" y="1218" type="line"/>
      <point x="521" y="1196" type="line"/>
      <point x="381" y="106" type="line"/>
      <point x="731" y="120" type="line"/>
      <point x="884" y="461" type="line"/>
      <point x="1015" y="441" type="line"/>
      <point x="929" y="0" type="line"/>
      <point x="5" y="0" type="line"/>
      <point x="15" y="84" type="line"/>
    </contour>
  </outline>
</glyph>
<glyph name="M" format="1">
  <advance width="1681"/>
  <unicode hex="004D"/>
  <note>
	M
  </note>
  <outline>
    <contour>
      <point x="85" y="109" type="line"/>
      <point x="362" y="1196" type="line"/>
      <point x="208" y="1218" type="line"/>
      <point x="220" y="1309" type="line"/>
      <point x="719" y="1309" type="line"/>
      <point x="829" y="506" type="line"/>
      <point x="845" y="359" type="line"/>
      <point x="896" y="506" type="line"/>
      <point x="998" y="749" type="line"/>
      <point x="1232" y="1309" type="line"/>
      <point x="1682" y="1309" type="line"/>
      <point x="1672" y="1218" type="line"/>
      <point x="1525" y="1196" type="line"/>
      <point x="1496" y="110" type="line"/>
      <point x="1642" y="84" type="line"/>
      <point x="1634" y="0" type="line"/>
      <point x="1091" y="0" type="line"/>
      <point x="1099" y="85" type="line"/>
      <point x="1256" y="109" type="line"/>
      <point x="1298" y="861" type="line"/>
      <point x="1319" y="1205" type="line"/>
      <point x="1199" y="902" type="line"/>
      <point x="808" y="-3" type="line"/>
      <point x="685" y="-15" type="line"/>
      <point x="554" y="882" type="line"/>
      <point x="505" y="1205" type="line"/>
      <point x="436" y="873" type="line"/>
      <point x="255" y="109" type="line"/>
      <point x="433" y="84" type="line"/>
      <point x="426" y="0" type="line"/>
      <point x="-63" y="0" type="line"/>
      <point x="-52" y="84" type="line"/>
    </contour>
  </outline>
</glyph>
<glyph name="N" format="1">
  <advance width="1322"/>
  <unicode hex="004E"/>
  <note>
	N
  </note>
  <outline>
    <contour>
      <point x="134" y="108" type="line"/>
      <point x="287" y="1196" type="line"/>
      <point x="150" y="1218" type="line"/>
      <point x="164" y="1309" type="line"/>
      <point x="561" y="1309" type="line"/>
      <point x="917" y="416" type="line"/>
      <point x="981" y="217" type="line"/>
      <point x="1101" y="1197" type="line"/>
      <point x="961" y="1218" type="line"/>
      <point x="971" y="1309" type="line"/>
      <point x="1384" y="1309" type="line"/>
      <point x="1374" y="1218" type="line"/>
      <point x="1260" y="1196" type="line"/>
      <point x="1081" y="0" type="line"/>
      <point x="838" y="0" type="line"/>
      <point x="470" y="910" type="line"/>
      <point x="409" y="1116" type="line"/>
      <point x="302" y="109" type="line"/>
      <point x="453" y="84" type="line"/>
      <point x="445" y="0" type="line"/>
      <point x="3" y="0" type="line"/>
      <point x="10" y="83" type="line"/>
    </contour>
  </outline>
</glyph>
<glyph name="P" format="1">
  <advance width="1112"/>
  <unicode hex="0050"/>
  <note>
	P
  </note>
  <outline>
    <contour>
      <point x="136" y="109" type="line"/>
      <point x="278" y="1196" type="line"/>
      <point x="157" y="1218" type="line"/>
      <point x="168" y="1309" type="line"/>
      <point x="415" y="1309" type="line" smooth="yes"/>
      <point x="448" y="1309"/>
      <point x="493" y="1311"/>
      <point x="552" y="1316" type="curve" smooth="yes"/>
      <point x="609" y="1321"/>
      <point x="652" y="1323"/>
      <point x="681" y="1323" type="curve" smooth="yes"/>
      <point x="989" y="1323"/>
      <point x="1123" y="1206"/>
      <point x="1123" y="962" type="curve" smooth="yes"/>
      <point x="1123" y="749"/>
      <point x="1019" y="593"/>
      <point x="846" y="513" type="curve" smooth="yes"/>
      <point x="759" y="473"/>
      <point x="660" y="453"/>
      <point x="547" y="453" type="curve" smooth="yes"/>
      <point x="489" y="453"/>
      <point x="449" y="454"/>
      <point x="426" y="457" type="curve"/>
      <point x="384" y="109" type="line"/>
      <point x="593" y="84" type="line"/>
      <point x="586" y="0" type="line"/>
      <point x="5" y="0" type="line"/>
      <point x="14" y="83" type="line"/>
    </contour>
    <contour>
      <point x="766" y="565"/>
      <point x="870" y="714"/>
      <point x="870" y="975" type="curve" smooth="yes"/>
      <point x="870" y="1139"/>
      <point x="798" y="1218"/>
      <point x="645" y="1218" type="curve" smooth="yes"/>
      <point x="606" y="1218"/>
      <point x="565" y="1214"/>
      <point x="524" y="1205" type="curve"/>
      <point x="439" y="572" type="line"/>
      <point x="476" y="565"/>
      <point x="514" y="561"/>
      <point x="555" y="562" type="curve" smooth="yes"/>
    </contour>
  </outline>
</glyph>
<glyph name="Q" format="1">
  <advance width="1229"/>
  <unicode hex="0051"/>
  <note>
	Q
  </note>
  <outline>
    <contour>
      <point x="928" y="1326"/>
      <point x="1069" y="1218"/>
      <point x="1134" y="1050" type="curve" smooth="yes"/>
      <point x="1167" y="966"/>
      <point x="1183" y="872"/>
      <point x="1183" y="767" type="curve" smooth="yes"/>
      <point x="1183" y="512"/>
      <point x="1102" y="284"/>
      <point x="946" y="136" type="curve" smooth="yes"/>
      <point x="867" y="61"/>
      <point x="773" y="14"/>
      <point x="663" y="-6" type="curve"/>
      <point x="664" y="-93"/>
      <point x="711" y="-133"/>
      <point x="780" y="-146" type="curve" smooth="yes"/>
      <point x="814" y="-153"/>
      <point x="857" y="-156"/>
      <point x="910" y="-156" type="curve" smooth="yes"/>
      <point x="967" y="-156"/>
      <point x="1070" y="-143"/>
      <point x="1127" y="-120" type="curve"/>
      <point x="1129" y="-261" type="line"/>
      <point x="1076" y="-304"/>
      <point x="962" y="-347"/>
      <point x="837" y="-347" type="curve" smooth="yes"/>
      <point x="634" y="-347"/>
      <point x="519" y="-267"/>
      <point x="519" y="-116" type="curve" smooth="yes"/>
      <point x="519" y="-87"/>
      <point x="524" y="-54"/>
      <point x="533" y="-17" type="curve"/>
      <point x="326" y="-14"/>
      <point x="188" y="92"/>
      <point x="123" y="261" type="curve" smooth="yes"/>
      <point x="90" y="346"/>
      <point x="74" y="442"/>
      <point x="74" y="550" type="curve" smooth="yes"/>
      <point x="74" y="834"/>
      <point x="179" y="1082"/>
      <point x="373" y="1222" type="curve" smooth="yes"/>
      <point x="470" y="1291"/>
      <point x="584" y="1326"/>
      <point x="716" y="1326" type="curve" smooth="yes"/>
    </contour>
    <contour>
      <point x="921" y="1046"/>
      <point x="847" y="1219"/>
      <point x="690" y="1219" type="curve" smooth="yes"/>
      <point x="550" y="1219"/>
      <point x="437" y="1093"/>
      <point x="378" y="894" type="curve" smooth="yes"/>
      <point x="349" y="794"/>
      <point x="334" y="685"/>
      <point x="334" y="567" type="curve" smooth="yes"/>
      <point x="334" y="286"/>
      <point x="403" y="87"/>
      <point x="567" y="87" type="curve" smooth="yes"/>
      <point x="711" y="87"/>
      <point x="822" y="208"/>
      <point x="879" y="407" type="curve" smooth="yes"/>
      <point x="907" y="506"/>
      <point x="921" y="618"/>
      <point x="921" y="742" type="curve" smooth="yes"/>
    </contour>
  </outline>
</glyph>
<glyph name="T" format="1">
  <advance width="1160"/>
  <unicode hex="0054"/>
  <note>
	T
  </note>
  <outline>
    <contour>
      <point x="407" y="109" type="line"/>
      <point x="550" y="1211" type="line"/>
      <point x="314" y="1190" type="line"/>
      <point x="200" y="851" type="line"/>
      <point x="65" y="851" type="line"/>
      <point x="143" y="1309" type="line"/>
      <point x="1233" y="1309" type="line"/>
      <point x="1167" y="851" type="line"/>
      <point x="1039" y="851" type="line"/>
      <point x="1033" y="1190" type="line"/>
      <point x="795" y="1211" type="line"/>
      <point x="651" y="109" type="line"/>
      <point x="882" y="86" type="line"/>
      <point x="874" y="0" type="line"/>
      <point x="184" y="0" type="line"/>
      <point x="194" y="86" type="line"/>
    </contour>
  </outline>
</glyph>
<glyph name="V" format="1">
  <advance width="1062"/>
  <unicode hex="0056"/>
  <note>
	V
  </note>
  <outline>
    <contour>
      <point x="17" y="1219" type="line"/>
      <point x="28" y="1309" type="line"/>
      <point x="529" y="1309" type="line"/>
      <point x="520" y="1218" type="line"/>
      <point x="385" y="1196" type="line"/>
      <point x="489" y="415" type="line"/>
      <point x="509" y="210" type="line"/>
      <point x="585" y="415" type="line"/>
      <point x="935" y="1196" type="line"/>
      <point x="799" y="1218" type="line"/>
      <point x="808" y="1309" type="line"/>
      <point x="1222" y="1309" type="line"/>
      <point x="1209" y="1218" type="line"/>
      <point x="1096" y="1197" type="line"/>
      <point x="538" y="-9" type="line"/>
      <point x="328" y="-13" type="line"/>
      <point x="130" y="1196" type="line"/>
    </contour>
  </outline>
</glyph>
<glyph name="W" format="1">
  <advance width="1615"/>
  <unicode hex="0057"/>
  <note>
	W
  </note>
  <outline>
    <contour>
      <point x="0" y="1219" type="line"/>
      <point x="11" y="1309" type="line"/>
      <point x="492" y="1309" type="line"/>
      <point x="484" y="1218" type="line"/>
      <point x="359" y="1196" type="line"/>
      <point x="449" y="410" type="line"/>
      <point x="473" y="210" type="line"/>
      <point x="532" y="385" type="line"/>
      <point x="810" y="1082" type="line"/>
      <point x="798" y="1198" type="line"/>
      <point x="677" y="1219" type="line"/>
      <point x="685" y="1309" type="line"/>
      <point x="1182" y="1309" type="line"/>
      <point x="1170" y="1218" type="line"/>
      <point x="1041" y="1196" type="line"/>
      <point x="1121" y="410" type="line"/>
      <point x="1131" y="210" type="line"/>
      <point x="1201" y="396" type="line"/>
      <point x="1535" y="1195" type="line"/>
      <point x="1376" y="1218" type="line"/>
      <point x="1385" y="1309" type="line"/>
      <point x="1831" y="1309" type="line"/>
      <point x="1821" y="1219" type="line"/>
      <point x="1698" y="1197" type="line"/>
      <point x="1158" y="-9" type="line"/>
      <point x="932" y="-9" type="line"/>
      <point x="845" y="826" type="line"/>
      <point x="511" y="-9" type="line"/>
      <point x="287" y="-9" type="line"/>
      <point x="114" y="1196" type="line"/>
    </contour>
  </outline>
</glyph>
<glyph name="X" format="1">
  <advance width="1154"/>
  <unicode hex="0058"/>
  <note>
	X
  </note>
  <outline>
    <contour>
      <point x="51" y="109" type="line"/>
      <point x="477" y="648" type="line"/>
      <point x="218" y="1195" type="line"/>
      <point x="108" y="1218" type="line"/>
      <point x="117" y="1309" type="line"/>
      <point x="630" y="1309" type="line"/>
      <point x="623" y="1219" type="line"/>
      <point x="498" y="1197" type="line"/>
      <point x="654" y="793" type="line"/>
      <point x="926" y="1196" type="line"/>
      <point x="808" y="1218" type="line"/>
      <point x="816" y="1309" type="line"/>
      <point x="1245" y="1309" type="line"/>
      <point x="1237" y="1218" type="line"/>
      <point x="1119" y="1197" type="line"/>
      <point x="714" y="677" type="line"/>
      <point x="998" y="109" type="line"/>
      <point x="1117" y="84" type="line"/>
      <point x="1109" y="0" type="line"/>
      <point x="574" y="0" type="line"/>
      <point x="580" y="84" type="line"/>
      <point x="708" y="109" type="line"/>
      <point x="535" y="525" type="line"/>
      <point x="249" y="109" type="line"/>
      <point x="378" y="83" type="line"/>
      <point x="371" y="0" type="line"/>
      <point x="-60" y="0" type="line"/>
      <point x="-51" y="84" type="line"/>
    </contour>
  </outline>
</glyph>
<glyph name="Z" format="1">
  <advance width="1041"/>
  <unicode hex="005A"/>
  <note>
	Z
  </note>
  <outline>
    <contour>
      <point x="694" y="1082" type="line"/>
      <point x="817" y="1204" type="line"/>
      <point x="386" y="1193" type="line"/>
      <point x="281" y="969" type="line"/>
      <point x="152" y="989" type="line"/>
      <point x="205" y="1309" type="line"/>
      <point x="1060" y="1309" type="line"/>
      <point x="1084" y="1235" type="line"/>
      <point x="368" y="228" type="line"/>
      <point x="256" y="107" type="line"/>
      <point x="732" y="126" type="line"/>
      <point x="875" y="378" type="line"/>
      <point x="1004" y="343" type="line"/>
      <point x="920" y="0" type="line"/>
      <point x="-1" y="0" type="line"/>
      <point x="-28" y="77" type="line"/>
    </contour>
  </outline>
</glyph>
<glyph name="bracketleft" format="1">
  <advance width="743"/>
  <unicode hex="005B"/>
  <note>
	bracketleft
  </note>
  <outline>
    <contour>
      <point x="320" y="1452"/>
      <point x="393" y="1509"/>
      <point x="536" y="1509" type="curve" smooth="yes"/>
      <point x="580" y="1509"/>
      <point x="656" y="1494"/>
      <point x="709" y="1482" type="curve"/>
      <point x="735" y="1475"/>
      <point x="752" y="1471"/>
      <point x="759" y="1469" type="curve"/>
      <point x="745" y="1377" type="line"/>
      <point x="508" y="1377" type="line"/>
      <point x="316" y="-47" type="line"/>
      <point x="553" y="-49" type="line"/>
      <point x="543" y="-144" type="line"/>
      <point x="443" y="-172"/>
      <point x="392" y="-184"/>
      <point x="308" y="-184" type="curve" smooth="yes"/>
      <point x="189" y="-184"/>
      <point x="121" y="-150"/>
      <point x="121" y="-61" type="curve" smooth="yes"/>
      <point x="121" y="-21"/>
      <point x="122" y="11"/>
      <point x="125" y="34" type="curve"/>
      <point x="127" y="75"/>
      <point x="138" y="168"/>
      <point x="159" y="313" type="curve" smooth="yes"/>
      <point x="179" y="458"/>
      <point x="209" y="668"/>
      <point x="249" y="942" type="curve" smooth="yes"/>
      <point x="278" y="1133"/>
      <point x="294" y="1250"/>
      <point x="299" y="1293" type="curve" smooth="yes"/>
    </contour>
  </outline>
</glyph>
<glyph name="backslash" format="1">
  <advance width="734"/>
  <unicode hex="005C"/>
  <note>
	backslash
  </note>
  <outline>
    <contour>
      <point x="60" y="1373" type="line"/>
      <point x="236" y="1373" type="line"/>
      <point x="732" y="-311" type="line"/>
      <point x="556" y="-311" type="line"/>
    </contour>
  </outline>
</glyph>
<glyph name="bracketright" format="1">
  <advance width="743"/>
  <unicode hex="005D"/>
  <note>
	bracketright
  </note>
  <outline>
    <contour>
      <point x="453" y="-114"/>
      <point x="380" y="-171"/>
      <point x="237" y="-171" type="curve" smooth="yes"/>
      <point x="193" y="-171"/>
      <point x="117" y="-156"/>
      <point x="65" y="-143" type="curve" smooth="yes"/>
      <point x="38" y="-137"/>
      <point x="21" y="-133"/>
      <point x="14" y="-131" type="curve"/>
      <point x="28" y="-39" type="line"/>
      <point x="265" y="-39" type="line"/>
      <point x="457" y="1385" type="line"/>
      <point x="220" y="1387" type="line"/>
      <point x="230" y="1482" type="line"/>
      <point x="330" y="1510"/>
      <point x="381" y="1522"/>
      <point x="465" y="1522" type="curve" smooth="yes"/>
      <point x="584" y="1522"/>
      <point x="652" y="1488"/>
      <point x="652" y="1399" type="curve" smooth="yes"/>
      <point x="652" y="1359"/>
      <point x="651" y="1328"/>
      <point x="648" y="1305" type="curve"/>
      <point x="646" y="1264"/>
      <point x="635" y="1170"/>
      <point x="615" y="1025" type="curve" smooth="yes"/>
      <point x="594" y="880"/>
      <point x="564" y="670"/>
      <point x="525" y="396" type="curve" smooth="yes"/>
      <point x="496" y="205"/>
      <point x="479" y="88"/>
      <point x="474" y="46" type="curve" smooth="yes"/>
    </contour>
  </outline>
</glyph>
<glyph name="asciicircum" format="1">
  <advance width="1172"/>
  <unicode hex="005E"/>
  <note>
	asciicircum
  </note>
  <outline>
    <contour>
      <point x="672" y="1317" type="line"/>
      <point x="1013" y="355" type="line"/>
      <point x="830" y="355" type="line"/>
      <point x="585" y="1039" type="line"/>
      <point x="341" y="355" type="line"/>
      <point x="159" y="355" type="line"/>
      <point x="496" y="1317" type="line"/>
    </contour>
  </outline>
</glyph>
<glyph name="grave" format="1">
  <advance width="465"/>
  <unicode hex="0060"/>
  <note>
	grave
  </note>
  <outline>
    <contour>
      <point x="175" y="1499" type="line"/>
      <point x="422" y="1127" type="line"/>
      <point x="347" y="1071" type="line"/>
      <point x="299" y="1091"/>
      <point x="194" y="1169"/>
      <point x="109" y="1251" type="curve" smooth="yes"/>
      <point x="66" y="1292"/>
      <point x="36" y="1327"/>
      <point x="19" y="1358" type="curve"/>
    </contour>
  </outline>
</glyph>
<glyph name="f" format="1">
  <advance width="596"/>
  <unicode hex="0066"/>
  <note>
	f
  </note>
  <outline>
    <contour>
      <point x="97" y="857" type="line"/>
      <point x="113" y="935" type="line"/>
      <point x="235" y="989" type="line"/>
      <point x="245" y="1054" type="line" smooth="yes"/>
      <point x="269" y="1195"/>
      <point x="344" y="1318"/>
      <point x="453" y="1386" type="curve" smooth="yes"/>
      <point x="507" y="1419"/>
      <point x="566" y="1436"/>
      <point x="631" y="1436" type="curve" smooth="yes"/>
      <point x="692" y="1436"/>
      <point x="740" y="1429"/>
      <point x="777" y="1414" type="curve"/>
      <point x="724" y="1264" type="line"/>
      <point x="691" y="1288"/>
      <point x="657" y="1306"/>
      <point x="605" y="1305" type="curve" smooth="yes"/>
      <point x="548" y="1305"/>
      <point x="516" y="1271"/>
      <point x="498" y="1212" type="curve" smooth="yes"/>
      <point x="489" y="1183"/>
      <point x="481" y="1145"/>
      <point x="475" y="1099" type="curve" smooth="yes"/>
      <point x="459" y="993" type="line"/>
      <point x="647" y="993" type="line"/>
      <point x="626" y="857" type="line"/>
      <point x="440" y="857" type="line"/>
      <point x="343" y="54" type="line" smooth="yes"/>
      <point x="322" y="-126"/>
      <point x="254" y="-282"/>
      <point x="144" y="-373" type="curve" smooth="yes"/>
      <point x="89" y="-418"/>
      <point x="25" y="-441"/>
      <point x="-46" y="-441" type="curve" smooth="yes"/>
      <point x="-103" y="-441"/>
      <point x="-168" y="-433"/>
      <point x="-200" y="-425" type="curve"/>
      <point x="-151" y="-270" type="line"/>
      <point x="-126" y="-282"/>
      <point x="-51" y="-308"/>
      <point x="-15" y="-308" type="curve" smooth="yes"/>
      <point x="40" y="-308"/>
      <point x="75" y="-242"/>
      <point x="91" y="-123" type="curve" smooth="yes"/>
      <point x="210" y="857" type="line"/>
    </contour>
  </outline>
</glyph>
<glyph name="i" format="1">
  <advance width="565"/>
  <unicode hex="0069"/>
  <note>
	i
  </note>
  <outline>
    <contour>
      <point x="105" y="882" type="line"/>
      <point x="119" y="955" type="line"/>
      <point x="426" y="1000" type="line"/>
      <point x="471" y="980" type="line"/>
      <point x="357" y="180" type="line"/>
      <point x="356" y="169"/>
      <point x="355" y="161"/>
      <point x="355" y="156" type="curve" smooth="yes"/>
      <point x="355" y="128"/>
      <point x="364" y="114"/>
      <point x="382" y="114" type="curve" smooth="yes"/>
      <point x="391" y="114"/>
      <point x="403" y="118"/>
      <point x="416" y="125" type="curve" smooth="yes"/>
      <point x="429" y="132"/>
      <point x="446" y="145"/>
      <point x="467" y="163" type="curve"/>
      <point x="492" y="107" type="line"/>
      <point x="472" y="79"/>
      <point x="432" y="37"/>
      <point x="366" y="6" type="curve" smooth="yes"/>
      <point x="333" y="-9"/>
      <point x="296" y="-17"/>
      <point x="257" y="-17" type="curve" smooth="yes"/>
      <point x="164" y="-17"/>
      <point x="114" y="20"/>
      <point x="114" y="89" type="curve" smooth="yes"/>
      <point x="114" y="96"/>
      <point x="114" y="101"/>
      <point x="114" y="105" type="curve"/>
      <point x="122" y="170"/>
      <point x="138" y="288"/>
      <point x="163" y="459" type="curve" smooth="yes"/>
      <point x="216" y="832" type="line"/>
    </contour>
    <contour>
      <point x="249" y="1347"/>
      <point x="278" y="1396"/>
      <point x="324" y="1424" type="curve" smooth="yes"/>
      <point x="347" y="1437"/>
      <point x="372" y="1444"/>
      <point x="399" y="1444" type="curve" smooth="yes"/>
      <point x="450" y="1444"/>
      <point x="490" y="1420"/>
      <point x="511" y="1384" type="curve" smooth="yes"/>
      <point x="522" y="1366"/>
      <point x="527" y="1347"/>
      <point x="527" y="1326" type="curve" smooth="yes"/>
      <point x="527" y="1269"/>
      <point x="502" y="1219"/>
      <point x="455" y="1191" type="curve" smooth="yes"/>
      <point x="431" y="1177"/>
      <point x="403" y="1170"/>
      <point x="371" y="1170" type="curve" smooth="yes"/>
      <point x="328" y="1170"/>
      <point x="289" y="1195"/>
      <point x="266" y="1233" type="curve" smooth="yes"/>
      <point x="255" y="1252"/>
      <point x="249" y="1271"/>
      <point x="249" y="1292" type="curve" smooth="yes"/>
    </contour>
  </outline>
</glyph>
<glyph name="j" format="1">
  <advance width="559"/>
  <unicode hex="006A"/>
  <note>
	j
  </note>
  <outline>
    <contour>
      <point x="-167" y="-329" type="line"/>
      <point x="-154" y="-336"/>
      <point x="-117" y="-340"/>
      <point x="-105" y="-340" type="curve" smooth="yes"/>
      <point x="-2" y="-340"/>
      <point x="59" y="-261"/>
      <point x="91" y="-148" type="curve" smooth="yes"/>
      <point x="106" y="-91"/>
      <point x="118" y="-23"/>
      <point x="127" y="56" type="curve" smooth="yes"/>
      <point x="215" y="843" type="line"/>
      <point x="77" y="887" type="line"/>
      <point x="93" y="956" type="line"/>
      <point x="428" y="1000" type="line"/>
      <point x="471" y="980" type="line"/>
      <point x="356" y="0" type="line" smooth="yes"/>
      <point x="333" y="-192"/>
      <point x="249" y="-330"/>
      <point x="130" y="-399" type="curve" smooth="yes"/>
      <point x="71" y="-434"/>
      <point x="6" y="-451"/>
      <point x="-63" y="-451" type="curve" smooth="yes"/>
      <point x="-127" y="-451"/>
      <point x="-178" y="-439"/>
      <point x="-199" y="-419" type="curve"/>
    </contour>
    <contour>
      <point x="253" y="1347"/>
      <point x="282" y="1396"/>
      <point x="328" y="1424" type="curve" smooth="yes"/>
      <point x="351" y="1437"/>
      <point x="376" y="1444"/>
      <point x="403" y="1444" type="curve" smooth="yes"/>
      <point x="454" y="1444"/>
      <point x="494" y="1420"/>
      <point x="515" y="1384" type="curve" smooth="yes"/>
      <point x="526" y="1366"/>
      <point x="531" y="1347"/>
      <point x="531" y="1326" type="curve" smooth="yes"/>
      <point x="531" y="1269"/>
      <point x="506" y="1219"/>
      <point x="459" y="1191" type="curve" smooth="yes"/>
      <point x="435" y="1177"/>
      <point x="407" y="1170"/>
      <point x="375" y="1170" type="curve" smooth="yes"/>
      <point x="332" y="1170"/>
      <point x="293" y="1195"/>
      <point x="270" y="1233" type="curve" smooth="yes"/>
      <point x="259" y="1252"/>
      <point x="253" y="1271"/>
      <point x="253" y="1292" type="curve" smooth="yes"/>
    </contour>
  </outline>
</glyph>
<glyph name="k" format="1">
  <advance width="965"/>
  <unicode hex="006B"/>
  <note>
	k
  </note>
  <outline>
    <contour>
      <point x="131" y="1312" type="line"/>
      <point x="145" y="1383" type="line"/>
      <point x="443" y="1419" type="line"/>
      <point x="489" y="1396" type="line"/>
      <point x="304" y="0" type="line"/>
      <point x="70" y="0" type="line"/>
      <point x="237" y="1275" type="line"/>
    </contour>
    <contour>
      <point x="684" y="800"/>
      <point x="695" y="841"/>
      <point x="698" y="894" type="curve" smooth="yes"/>
      <point x="703" y="967"/>
      <point x="764" y="1000"/>
      <point x="828" y="1000" type="curve" smooth="yes"/>
      <point x="891" y="1000"/>
      <point x="931" y="957"/>
      <point x="931" y="901" type="curve" smooth="yes"/>
      <point x="931" y="818"/>
      <point x="870" y="737"/>
      <point x="758" y="657" type="curve" smooth="yes"/>
      <point x="701" y="617"/>
      <point x="642" y="582"/>
      <point x="581" y="551" type="curve"/>
      <point x="771" y="213" type="line" smooth="yes"/>
      <point x="799" y="165"/>
      <point x="838" y="133"/>
      <point x="866" y="133" type="curve" smooth="yes"/>
      <point x="890" y="133"/>
      <point x="932" y="150"/>
      <point x="964" y="178" type="curve"/>
      <point x="993" y="120" type="line"/>
      <point x="968" y="85"/>
      <point x="913" y="37"/>
      <point x="842" y="7" type="curve" smooth="yes"/>
      <point x="806" y="-8"/>
      <point x="769" y="-16"/>
      <point x="731" y="-16" type="curve" smooth="yes"/>
      <point x="656" y="-16"/>
      <point x="606" y="17"/>
      <point x="577" y="82" type="curve" smooth="yes"/>
      <point x="380" y="525" type="line"/>
      <point x="384" y="525" type="line"/>
      <point x="380" y="525" type="line"/>
      <point x="408" y="544" type="line" smooth="yes"/>
      <point x="483" y="592"/>
      <point x="522" y="619"/>
      <point x="574" y="669" type="curve" smooth="yes"/>
      <point x="599" y="694"/>
      <point x="625" y="724"/>
      <point x="652" y="759" type="curve" smooth="yes"/>
    </contour>
  </outline>
</glyph>
<glyph name="p" format="1">
  <advance width="1027"/>
  <unicode hex="0070"/>
  <note>
	p
  </note>
  <outline>
    <contour>
      <point x="239" y="-447" type="line"/>
      <point x="14" y="-447" type="line"/>
      <point x="187" y="835" type="line"/>
      <point x="94" y="882" type="line"/>
      <point x="108" y="955" type="line"/>
      <point x="390" y="1000" type="line"/>
      <point x="433" y="980" type="line"/>
      <point x="422" y="890" type="line"/>
      <point x="483" y="955"/>
      <point x="568" y="1000"/>
      <point x="668" y="1000" type="curve" smooth="yes"/>
      <point x="863" y="1000"/>
      <point x="965" y="860"/>
      <point x="965" y="628" type="curve" smooth="yes"/>
      <point x="965" y="412"/>
      <point x="868" y="199"/>
      <point x="696" y="76" type="curve" smooth="yes"/>
      <point x="610" y="14"/>
      <point x="511" y="-17"/>
      <point x="399" y="-17" type="curve" smooth="yes"/>
      <point x="370" y="-17"/>
      <point x="337" y="-14"/>
      <point x="300" y="-7" type="curve"/>
    </contour>
    <contour>
      <point x="317" y="114" type="line"/>
      <point x="344" y="101"/>
      <point x="380" y="95"/>
      <point x="423" y="95" type="curve" smooth="yes"/>
      <point x="558" y="95"/>
      <point x="648" y="212"/>
      <point x="690" y="373" type="curve" smooth="yes"/>
      <point x="711" y="454"/>
      <point x="721" y="537"/>
      <point x="721" y="622" type="curve" smooth="yes"/>
      <point x="721" y="766"/>
      <point x="673" y="862"/>
      <point x="588" y="862" type="curve" smooth="yes"/>
      <point x="517" y="862"/>
      <point x="454" y="814"/>
      <point x="406" y="747" type="curve"/>
    </contour>
  </outline>
</glyph>
<glyph name="q" format="1">
  <advance width="1027"/>
  <unicode hex="0071"/>
  <note>
	q
  </note>
  <outline>
    <contour>
      <point x="61" y="561"/>
      <point x="151" y="776"/>
      <point x="323" y="904" type="curve" smooth="yes"/>
      <point x="409" y="968"/>
      <point x="512" y="1000"/>
      <point x="632" y="1000" type="curve" smooth="yes"/>
      <point x="695" y="1000"/>
      <point x="777" y="983"/>
      <point x="834" y="962" type="curve"/>
      <point x="836" y="963" type="line"/>
      <point x="949" y="988" type="line"/>
      <point x="783" y="-249" type="line"/>
      <point x="783" y="-253"/>
      <point x="783" y="-258"/>
      <point x="783" y="-264" type="curve" smooth="yes"/>
      <point x="783" y="-292"/>
      <point x="792" y="-313"/>
      <point x="811" y="-313" type="curve" smooth="yes"/>
      <point x="821" y="-313"/>
      <point x="832" y="-309"/>
      <point x="845" y="-302" type="curve" smooth="yes"/>
      <point x="858" y="-295"/>
      <point x="874" y="-283"/>
      <point x="895" y="-266" type="curve"/>
      <point x="920" y="-321" type="line"/>
      <point x="903" y="-348"/>
      <point x="860" y="-390"/>
      <point x="793" y="-421" type="curve" smooth="yes"/>
      <point x="759" y="-437"/>
      <point x="722" y="-445"/>
      <point x="682" y="-445" type="curve" smooth="yes"/>
      <point x="581" y="-445"/>
      <point x="537" y="-392"/>
      <point x="542" y="-312" type="curve"/>
      <point x="598" y="89" type="line"/>
      <point x="535" y="25"/>
      <point x="452" y="-17"/>
      <point x="352" y="-17" type="curve" smooth="yes"/>
      <point x="220" y="-17"/>
      <point x="132" y="51"/>
      <point x="92" y="161" type="curve" smooth="yes"/>
      <point x="71" y="216"/>
      <point x="61" y="278"/>
      <point x="61" y="349" type="curve" smooth="yes"/>
    </contour>
    <contour>
      <point x="706" y="869" type="line"/>
      <point x="681" y="881"/>
      <point x="648" y="887"/>
      <point x="609" y="887" type="curve" smooth="yes"/>
      <point x="469" y="887"/>
      <point x="377" y="764"/>
      <point x="335" y="603" type="curve" smooth="yes"/>
      <point x="314" y="522"/>
      <point x="303" y="441"/>
      <point x="303" y="360" type="curve" smooth="yes"/>
      <point x="303" y="208"/>
      <point x="351" y="120"/>
      <point x="432" y="120" type="curve" smooth="yes"/>
      <point x="503" y="120"/>
      <point x="569" y="170"/>
      <point x="617" y="234" type="curve"/>
    </contour>
  </outline>
</glyph>
<glyph name="r" format="1">
  <advance width="726"/>
  <unicode hex="0072"/>
  <note>
	r
  </note>
  <outline>
    <contour>
      <point x="112" y="879" type="line"/>
      <point x="126" y="955" type="line"/>
      <point x="378" y="1000" type="line"/>
      <point x="421" y="974" type="line"/>
      <point x="407" y="762" type="line"/>
      <point x="434" y="838"/>
      <point x="490" y="917"/>
      <point x="571" y="965" type="curve" smooth="yes"/>
      <point x="611" y="988"/>
      <point x="655" y="1000"/>
      <point x="702" y="1000" type="curve" smooth="yes"/>
      <point x="725" y="1000"/>
      <point x="748" y="994"/>
      <point x="759" y="986" type="curve"/>
      <point x="709" y="734" type="line"/>
      <point x="693" y="746"/>
      <point x="659" y="757"/>
      <point x="615" y="757" type="curve" smooth="yes"/>
      <point x="530" y="757"/>
      <point x="450" y="722"/>
      <point x="407" y="645" type="curve"/>
      <point x="322" y="0" type="line"/>
      <point x="92" y="0" type="line"/>
      <point x="201" y="827" type="line"/>
    </contour>
  </outline>
</glyph>
<glyph name="s" format="1">
  <advance width="750"/>
  <unicode hex="0073"/>
  <note>
	s
  </note>
  <outline>
    <contour>
      <point x="53" y="193" type="line"/>
      <point x="101" y="152"/>
      <point x="191" y="108"/>
      <point x="283" y="108" type="curve" smooth="yes"/>
      <point x="366" y="108"/>
      <point x="434" y="140"/>
      <point x="434" y="224" type="curve" smooth="yes"/>
      <point x="434" y="276"/>
      <point x="407" y="320"/>
      <point x="364" y="357" type="curve" smooth="yes"/>
      <point x="343" y="376"/>
      <point x="315" y="397"/>
      <point x="280" y="422" type="curve" smooth="yes"/>
      <point x="165" y="503"/>
      <point x="108" y="600"/>
      <point x="108" y="712" type="curve" smooth="yes"/>
      <point x="108" y="824"/>
      <point x="176" y="916"/>
      <point x="288" y="964" type="curve" smooth="yes"/>
      <point x="344" y="988"/>
      <point x="408" y="1000"/>
      <point x="479" y="1000" type="curve" smooth="yes"/>
      <point x="566" y="1000"/>
      <point x="668" y="984"/>
      <point x="701" y="968" type="curve"/>
      <point x="666" y="806" type="line"/>
      <point x="651" y="825"/>
      <point x="617" y="851"/>
      <point x="565" y="869" type="curve" smooth="yes"/>
      <point x="539" y="878"/>
      <point x="511" y="882"/>
      <point x="482" y="882" type="curve" smooth="yes"/>
      <point x="398" y="882"/>
      <point x="335" y="846"/>
      <point x="335" y="765" type="curve" smooth="yes"/>
      <point x="335" y="697"/>
      <point x="381" y="647"/>
      <point x="481" y="572" type="curve" smooth="yes"/>
      <point x="558" y="513"/>
      <point x="606" y="469"/>
      <point x="639" y="400" type="curve" smooth="yes"/>
      <point x="655" y="365"/>
      <point x="663" y="325"/>
      <point x="663" y="280" type="curve" smooth="yes"/>
      <point x="663" y="153"/>
      <point x="588" y="62"/>
      <point x="472" y="17" type="curve" smooth="yes"/>
      <point x="414" y="-6"/>
      <point x="351" y="-17"/>
      <point x="282" y="-17" type="curve" smooth="yes"/>
      <point x="213" y="-17"/>
      <point x="133" y="-4"/>
      <point x="76" y="13" type="curve" smooth="yes"/>
      <point x="47" y="22"/>
      <point x="27" y="30"/>
      <point x="16" y="39" type="curve"/>
    </contour>
  </outline>
</glyph>
<glyph name="t" format="1">
  <advance width="626"/>
  <unicode hex="0074"/>
  <note>
	t
  </note>
  <outline>
    <contour>
      <point x="197" y="863" type="line"/>
      <point x="94" y="863" type="line"/>
      <point x="114" y="949" type="line"/>
      <point x="218" y="989" type="line"/>
      <point x="259" y="1028"/>
      <point x="306" y="1119"/>
      <point x="347" y="1218" type="curve"/>
      <point x="473" y="1218" type="line"/>
      <point x="445" y="993" type="line"/>
      <point x="644" y="993" type="line"/>
      <point x="625" y="863" type="line"/>
      <point x="428" y="863" type="line"/>
      <point x="357" y="335" type="line" smooth="yes"/>
      <point x="348" y="271"/>
      <point x="343" y="226"/>
      <point x="343" y="201" type="curve" smooth="yes"/>
      <point x="343" y="146"/>
      <point x="359" y="127"/>
      <point x="410" y="127" type="curve" smooth="yes"/>
      <point x="455" y="127"/>
      <point x="524" y="154"/>
      <point x="564" y="186" type="curve"/>
      <point x="583" y="118" type="line"/>
      <point x="550" y="78"/>
      <point x="485" y="32"/>
      <point x="401" y="4" type="curve" smooth="yes"/>
      <point x="358" y="-10"/>
      <point x="314" y="-17"/>
      <point x="268" y="-17" type="curve" smooth="yes"/>
      <point x="173" y="-17"/>
      <point x="106" y="28"/>
      <point x="106" y="137" type="curve" smooth="yes"/>
      <point x="106" y="158"/>
      <point x="112" y="213"/>
      <point x="124" y="302" type="curve" smooth="yes"/>
    </contour>
  </outline>
</glyph>
<glyph name="v" format="1">
  <advance width="921"/>
  <unicode hex="0076"/>
  <note>
	v
  </note>
  <outline>
    <contour>
      <point x="122" y="812" type="line"/>
      <point x="117" y="847"/>
      <point x="106" y="859"/>
      <point x="87" y="860" type="curve"/>
      <point x="68" y="860"/>
      <point x="56" y="855"/>
      <point x="40" y="844" type="curve"/>
      <point x="15" y="904" type="line"/>
      <point x="28" y="923"/>
      <point x="69" y="957"/>
      <point x="126" y="982" type="curve" smooth="yes"/>
      <point x="154" y="994"/>
      <point x="184" y="1000"/>
      <point x="215" y="1000" type="curve" smooth="yes"/>
      <point x="307" y="1000"/>
      <point x="346" y="962"/>
      <point x="357" y="882" type="curve" smooth="yes"/>
      <point x="427" y="353" type="line"/>
      <point x="446" y="180" type="line"/>
      <point x="514" y="281" type="line" smooth="yes"/>
      <point x="617" y="442"/>
      <point x="668" y="566"/>
      <point x="684" y="727" type="curve"/>
      <point x="685" y="754"/>
      <point x="681" y="780"/>
      <point x="670" y="820" type="curve" smooth="yes"/>
      <point x="661" y="851"/>
      <point x="657" y="875"/>
      <point x="657" y="893" type="curve" smooth="yes"/>
      <point x="657" y="960"/>
      <point x="698" y="1000"/>
      <point x="769" y="1000" type="curve" smooth="yes"/>
      <point x="861" y="1000"/>
      <point x="906" y="927"/>
      <point x="906" y="818" type="curve" smooth="yes"/>
      <point x="906" y="658"/>
      <point x="769" y="412"/>
      <point x="580" y="187" type="curve" smooth="yes"/>
      <point x="427" y="-8" type="line"/>
      <point x="278" y="-18" type="line"/>
      <point x="218" y="305" type="line"/>
    </contour>
  </outline>
</glyph>
<glyph name="y" format="1">
  <advance width="936"/>
  <unicode hex="0079"/>
  <note>
	y
  </note>
  <outline>
    <contour>
      <point x="127" y="812" type="line" smooth="yes"/>
      <point x="119" y="847"/>
      <point x="110" y="860"/>
      <point x="91" y="860" type="curve" smooth="yes"/>
      <point x="75" y="860"/>
      <point x="60" y="856"/>
      <point x="36" y="836" type="curve"/>
      <point x="11" y="896" type="line"/>
      <point x="26" y="917"/>
      <point x="68" y="955"/>
      <point x="128" y="981" type="curve" smooth="yes"/>
      <point x="157" y="994"/>
      <point x="188" y="1000"/>
      <point x="219" y="1000" type="curve" smooth="yes"/>
      <point x="310" y="1000"/>
      <point x="349" y="961"/>
      <point x="360" y="882" type="curve"/>
      <point x="366" y="849"/>
      <point x="375" y="791"/>
      <point x="386" y="708" type="curve" smooth="yes"/>
      <point x="397" y="625"/>
      <point x="406" y="565"/>
      <point x="411" y="528" type="curve" smooth="yes"/>
      <point x="430" y="381"/>
      <point x="444" y="281"/>
      <point x="453" y="227" type="curve"/>
      <point x="475" y="29" type="line"/>
      <point x="564" y="212" type="line"/>
      <point x="574" y="234" type="line" smooth="yes"/>
      <point x="638" y="377"/>
      <point x="671" y="456"/>
      <point x="696" y="558" type="curve" smooth="yes"/>
      <point x="708" y="609"/>
      <point x="714" y="659"/>
      <point x="714" y="710" type="curve" smooth="yes"/>
      <point x="714" y="747"/>
      <point x="706" y="770"/>
      <point x="694" y="806" type="curve" smooth="yes"/>
      <point x="682" y="841"/>
      <point x="675" y="861"/>
      <point x="675" y="894" type="curve" smooth="yes"/>
      <point x="675" y="959"/>
      <point x="716" y="1000"/>
      <point x="788" y="1000" type="curve" smooth="yes"/>
      <point x="876" y="1000"/>
      <point x="924" y="928"/>
      <point x="924" y="829" type="curve" smooth="yes"/>
      <point x="924" y="718"/>
      <point x="893" y="608"/>
      <point x="853" y="516" type="curve" smooth="yes"/>
      <point x="832" y="469"/>
      <point x="805" y="411"/>
      <point x="771" y="342" type="curve" smooth="yes"/>
      <point x="758" y="316" type="line" smooth="yes"/>
      <point x="659" y="109"/>
      <point x="524" y="-112"/>
      <point x="436" y="-239" type="curve"/>
      <point x="352" y="-373"/>
      <point x="236" y="-440"/>
      <point x="89" y="-440" type="curve" smooth="yes"/>
      <point x="36" y="-440"/>
      <point x="-48" y="-424"/>
      <point x="-77" y="-408" type="curve"/>
      <point x="-22" y="-252" type="line"/>
      <point x="5" y="-272"/>
      <point x="69" y="-295"/>
      <point x="132" y="-295" type="curve" smooth="yes"/>
      <point x="233" y="-295"/>
      <point x="336" y="-223"/>
      <point x="429" y="-54" type="curve"/>
      <point x="297" y="-54" type="line"/>
    </contour>
  </outline>
</glyph>
<glyph name="z" format="1">
  <advance width="874"/>
  <unicode hex="007A"/>
  <note>
	z
  </note>
  <outline>
    <contour>
      <point x="206" y="995"/>
      <point x="232" y="1001"/>
      <point x="262" y="1001" type="curve" smooth="yes"/>
      <point x="325" y="1001"/>
      <point x="439" y="994"/>
      <point x="538" y="986" type="curve" smooth="yes"/>
      <point x="650" y="978"/>
      <point x="725" y="974"/>
      <point x="764" y="974" type="curve" smooth="yes"/>
      <point x="801" y="974"/>
      <point x="825" y="979"/>
      <point x="849" y="998" type="curve"/>
      <point x="851" y="1000" type="line"/>
      <point x="898" y="948" type="line"/>
      <point x="340" y="256" type="line"/>
      <point x="252" y="181" type="line"/>
      <point x="570" y="181" type="line" smooth="yes"/>
      <point x="657" y="181"/>
      <point x="715" y="241"/>
      <point x="726" y="321" type="curve"/>
      <point x="797" y="321" type="line"/>
      <point x="798" y="304"/>
      <point x="799" y="288"/>
      <point x="799" y="273" type="curve" smooth="yes"/>
      <point x="799" y="157"/>
      <point x="778" y="30"/>
      <point x="730" y="-3" type="curve" smooth="yes"/>
      <point x="714" y="-14"/>
      <point x="685" y="-20"/>
      <point x="642" y="-20" type="curve" smooth="yes"/>
      <point x="591" y="-20"/>
      <point x="497" y="-15"/>
      <point x="358" y="-4" type="curve" smooth="yes"/>
      <point x="242" y="5"/>
      <point x="165" y="9"/>
      <point x="126" y="9" type="curve" smooth="yes"/>
      <point x="97" y="9"/>
      <point x="60" y="1"/>
      <point x="40" y="-16" type="curve"/>
      <point x="36" y="-20" type="line"/>
      <point x="-20" y="34" type="line"/>
      <point x="535" y="713" type="line"/>
      <point x="638" y="799" type="line"/>
      <point x="331" y="800" type="line" smooth="yes"/>
      <point x="254" y="800"/>
      <point x="203" y="742"/>
      <point x="194" y="663" type="curve"/>
      <point x="120" y="663" type="line"/>
      <point x="119" y="680"/>
      <point x="118" y="702"/>
      <point x="118" y="728" type="curve" smooth="yes"/>
      <point x="118" y="843"/>
      <point x="138" y="959"/>
      <point x="183" y="982" type="curve"/>
    </contour>
  </outline>
</glyph>
<glyph name="braceleft" format="1">
  <advance width="888"/>
  <unicode hex="007B"/>
  <note>
	braceleft
  </note>
  <outline>
    <contour>
      <point x="292" y="517"/>
      <point x="276" y="537"/>
      <point x="248" y="556" type="curve" smooth="yes"/>
      <point x="211" y="580"/>
      <point x="157" y="602"/>
      <point x="106" y="614" type="curve"/>
      <point x="121" y="721" type="line"/>
      <point x="194" y="738"/>
      <point x="249" y="757"/>
      <point x="286" y="777" type="curve"/>
      <point x="321" y="794"/>
      <point x="339" y="812"/>
      <point x="342" y="831" type="curve" smooth="yes"/>
      <point x="412" y="1290" type="line" smooth="yes"/>
      <point x="429" y="1401"/>
      <point x="470" y="1462"/>
      <point x="534" y="1488" type="curve" smooth="yes"/>
      <point x="565" y="1501"/>
      <point x="605" y="1507"/>
      <point x="653" y="1507" type="curve" smooth="yes"/>
      <point x="698" y="1507"/>
      <point x="773" y="1492"/>
      <point x="826" y="1480" type="curve"/>
      <point x="852" y="1473"/>
      <point x="869" y="1469"/>
      <point x="876" y="1466" type="curve"/>
      <point x="873" y="1450"/>
      <point x="863" y="1390"/>
      <point x="862" y="1377" type="curve"/>
      <point x="624" y="1377" type="line"/>
      <point x="542" y="834" type="line" smooth="yes"/>
      <point x="535" y="791"/>
      <point x="506" y="759"/>
      <point x="458" y="728" type="curve" smooth="yes"/>
      <point x="437" y="715"/>
      <point x="354" y="676"/>
      <point x="333" y="667" type="curve"/>
      <point x="457" y="602"/>
      <point x="491" y="564"/>
      <point x="491" y="508" type="curve" smooth="yes"/>
      <point x="491" y="503"/>
      <point x="491" y="498"/>
      <point x="490" y="494" type="curve"/>
      <point x="408" y="-47" type="line"/>
      <point x="645" y="-47" type="line"/>
      <point x="643" y="-60"/>
      <point x="641" y="-77"/>
      <point x="639" y="-97" type="curve"/>
      <point x="636" y="-117"/>
      <point x="634" y="-131"/>
      <point x="633" y="-140" type="curve"/>
      <point x="534" y="-169"/>
      <point x="481" y="-181"/>
      <point x="396" y="-181" type="curve" smooth="yes"/>
      <point x="280" y="-181"/>
      <point x="212" y="-147"/>
      <point x="213" y="-58" type="curve"/>
      <point x="214" y="-37"/>
      <point x="276" y="387"/>
      <point x="292" y="498" type="curve"/>
    </contour>
  </outline>
</glyph>
<glyph name="braceright" format="1">
  <advance width="888"/>
  <unicode hex="007D"/>
  <note>
	braceright
  </note>
  <outline>
    <contour>
      <point x="612" y="813"/>
      <point x="629" y="793"/>
      <point x="657" y="774" type="curve" smooth="yes"/>
      <point x="694" y="750"/>
      <point x="747" y="728"/>
      <point x="799" y="716" type="curve"/>
      <point x="783" y="609" type="line"/>
      <point x="710" y="591"/>
      <point x="655" y="572"/>
      <point x="618" y="553" type="curve" smooth="yes"/>
      <point x="584" y="535"/>
      <point x="565" y="517"/>
      <point x="562" y="499" type="curve" smooth="yes"/>
      <point x="493" y="40" type="line" smooth="yes"/>
      <point x="476" y="-72"/>
      <point x="435" y="-131"/>
      <point x="371" y="-157" type="curve" smooth="yes"/>
      <point x="339" y="-170"/>
      <point x="299" y="-177"/>
      <point x="252" y="-177" type="curve" smooth="yes"/>
      <point x="207" y="-177"/>
      <point x="132" y="-162"/>
      <point x="80" y="-149" type="curve" smooth="yes"/>
      <point x="53" y="-143"/>
      <point x="36" y="-139"/>
      <point x="28" y="-137" type="curve"/>
      <point x="32" y="-121"/>
      <point x="42" y="-62"/>
      <point x="43" y="-47" type="curve"/>
      <point x="280" y="-47" type="line"/>
      <point x="363" y="495" type="line" smooth="yes"/>
      <point x="370" y="539"/>
      <point x="398" y="571"/>
      <point x="447" y="602" type="curve"/>
      <point x="468" y="614"/>
      <point x="551" y="653"/>
      <point x="572" y="662" type="curve"/>
      <point x="448" y="727"/>
      <point x="414" y="765"/>
      <point x="414" y="821" type="curve" smooth="yes"/>
      <point x="414" y="827"/>
      <point x="414" y="832"/>
      <point x="415" y="835" type="curve"/>
      <point x="496" y="1377" type="line"/>
      <point x="260" y="1377" type="line"/>
      <point x="262" y="1390"/>
      <point x="264" y="1407"/>
      <point x="267" y="1427" type="curve"/>
      <point x="269" y="1447"/>
      <point x="271" y="1461"/>
      <point x="272" y="1470" type="curve"/>
      <point x="371" y="1498"/>
      <point x="424" y="1510"/>
      <point x="508" y="1510" type="curve" smooth="yes"/>
      <point x="625" y="1510"/>
      <point x="692" y="1476"/>
      <point x="691" y="1387" type="curve" smooth="yes"/>
      <point x="691" y="1377"/>
      <point x="680" y="1296"/>
      <point x="658" y="1144" type="curve" smooth="yes"/>
      <point x="635" y="991"/>
      <point x="620" y="887"/>
      <point x="612" y="832" type="curve"/>
    </contour>
  </outline>
</glyph>
<glyph name="asciitilde" format="1">
  <advance width="977"/>
  <unicode hex="007E"/>
  <note>
	asciitilde
  </note>
  <outline>
    <contour>
      <point x="109" y="743" type="line"/>
      <point x="129" y="800"/>
      <point x="184" y="860"/>
      <point x="260" y="897" type="curve" smooth="yes"/>
      <point x="297" y="915"/>
      <point x="337" y="924"/>
      <point x="378" y="924" type="curve" smooth="yes"/>
      <point x="427" y="924"/>
      <point x="469" y="906"/>
      <point x="501" y="886" type="curve" smooth="yes"/>
      <point x="517" y="876"/>
      <point x="536" y="862"/>
      <point x="558" y="845" type="curve" smooth="yes"/>
      <point x="610" y="804"/>
      <point x="641" y="785"/>
      <point x="682" y="785" type="curve" smooth="yes"/>
      <point x="755" y="785"/>
      <point x="808" y="817"/>
      <point x="851" y="881" type="curve"/>
      <point x="927" y="796" type="line"/>
      <point x="910" y="735"/>
      <point x="852" y="670"/>
      <point x="775" y="633" type="curve" smooth="yes"/>
      <point x="736" y="614"/>
      <point x="696" y="605"/>
      <point x="654" y="605" type="curve" smooth="yes"/>
      <point x="603" y="605"/>
      <point x="559" y="624"/>
      <point x="527" y="645" type="curve" smooth="yes"/>
      <point x="511" y="655"/>
      <point x="492" y="669"/>
      <point x="470" y="687" type="curve" smooth="yes"/>
      <point x="419" y="728"/>
      <point x="389" y="749"/>
      <point x="346" y="749" type="curve" smooth="yes"/>
      <point x="278" y="749"/>
      <point x="217" y="718"/>
      <point x="177" y="658" type="curve"/>
    </contour>
  </outline>
</glyph>
<glyph name="exclamdown" format="1">
  <advance width="604"/>
  <unicode hex="00A1"/>
  <note>
	exclamdown
  </note>
  <outline>
    <contour>
      <point x="297" y="897"/>
      <point x="255" y="946"/>
      <point x="255" y="1013" type="curve" smooth="yes"/>
      <point x="255" y="1081"/>
      <point x="290" y="1130"/>
      <point x="339" y="1155" type="curve" smooth="yes"/>
      <point x="364" y="1168"/>
      <point x="389" y="1174"/>
      <point x="416" y="1174" type="curve" smooth="yes"/>
      <point x="477" y="1174"/>
      <point x="524" y="1126"/>
      <point x="524" y="1058" type="curve" smooth="yes"/>
      <point x="524" y="995"/>
      <point x="492" y="945"/>
      <point x="445" y="918" type="curve" smooth="yes"/>
      <point x="422" y="904"/>
      <point x="397" y="897"/>
      <point x="372" y="897" type="curve" smooth="yes"/>
    </contour>
    <contour>
      <point x="53" y="-373" type="line"/>
      <point x="269" y="717" type="line"/>
      <point x="420" y="717" type="line"/>
      <point x="307" y="-373" type="line"/>
    </contour>
  </outline>
</glyph>
<glyph name="cent" format="1">
  <advance width="908"/>
  <unicode hex="00A2"/>
  <note>
	cent
  </note>
  <outline>
    <contour>
      <point x="347" y="-8" type="line"/>
      <point x="194" y="29"/>
      <point x="108" y="167"/>
      <point x="108" y="386" type="curve" smooth="yes"/>
      <point x="108" y="558"/>
      <point x="173" y="739"/>
      <point x="301" y="865" type="curve" smooth="yes"/>
      <point x="364" y="928"/>
      <point x="441" y="969"/>
      <point x="530" y="988" type="curve"/>
      <point x="572" y="1168" type="line"/>
      <point x="701" y="1168" type="line"/>
      <point x="660" y="999" type="line"/>
      <point x="727" y="998"/>
      <point x="800" y="985"/>
      <point x="848" y="964" type="curve"/>
      <point x="786" y="735" type="line"/>
      <point x="785" y="736"/>
      <point x="776" y="738"/>
      <point x="761" y="739" type="curve" smooth="yes"/>
      <point x="750" y="740"/>
      <point x="744" y="740"/>
      <point x="743" y="741" type="curve"/>
      <point x="678" y="818"/>
      <point x="629" y="869"/>
      <point x="589" y="869" type="curve" smooth="yes"/>
      <point x="504" y="869"/>
      <point x="427" y="791"/>
      <point x="384" y="652" type="curve" smooth="yes"/>
      <point x="362" y="583"/>
      <point x="351" y="502"/>
      <point x="351" y="411" type="curve" smooth="yes"/>
      <point x="351" y="212"/>
      <point x="405" y="126"/>
      <point x="513" y="126" type="curve" smooth="yes"/>
      <point x="604" y="126"/>
      <point x="660" y="159"/>
      <point x="736" y="230" type="curve"/>
      <point x="782" y="150" type="line"/>
      <point x="750" y="106"/>
      <point x="694" y="55"/>
      <point x="611" y="19" type="curve" smooth="yes"/>
      <point x="570" y="1"/>
      <point x="524" y="-10"/>
      <point x="474" y="-15" type="curve"/>
      <point x="443" y="-185" type="line"/>
      <point x="314" y="-185" type="line"/>
    </contour>
  </outline>
</glyph>
<glyph name="sterling" format="1">
  <advance width="1189"/>
  <unicode hex="00A3"/>
  <note>
	sterling
  </note>
  <outline>
    <contour>
      <point x="307" y="767" type="line"/>
      <point x="322" y="860" type="line" smooth="yes"/>
      <point x="351" y="1028"/>
      <point x="450" y="1182"/>
      <point x="594" y="1268" type="curve" smooth="yes"/>
      <point x="665" y="1311"/>
      <point x="743" y="1332"/>
      <point x="826" y="1332" type="curve" smooth="yes"/>
      <point x="951" y="1332"/>
      <point x="1020" y="1314"/>
      <point x="1077" y="1263" type="curve"/>
      <point x="980" y="1090" type="line"/>
      <point x="971" y="1110"/>
      <point x="935" y="1151"/>
      <point x="876" y="1180" type="curve" smooth="yes"/>
      <point x="847" y="1195"/>
      <point x="814" y="1202"/>
      <point x="777" y="1202" type="curve" smooth="yes"/>
      <point x="667" y="1202"/>
      <point x="596" y="1103"/>
      <point x="563" y="905" type="curve"/>
      <point x="562" y="894"/>
      <point x="554" y="848"/>
      <point x="539" y="767" type="curve"/>
      <point x="796" y="767" type="line"/>
      <point x="781" y="630" type="line"/>
      <point x="515" y="630" type="line"/>
      <point x="506" y="580"/>
      <point x="501" y="549"/>
      <point x="500" y="538" type="curve"/>
      <point x="480" y="429"/>
      <point x="444" y="341"/>
      <point x="410" y="285" type="curve" smooth="yes"/>
      <point x="393" y="257"/>
      <point x="373" y="227"/>
      <point x="350" y="195" type="curve" smooth="yes"/>
      <point x="340" y="182"/>
      <point x="333" y="172"/>
      <point x="329" y="165" type="curve"/>
      <point x="356" y="160"/>
      <point x="381" y="154"/>
      <point x="404" y="147" type="curve"/>
      <point x="515" y="120"/>
      <point x="574" y="108"/>
      <point x="643" y="108" type="curve" smooth="yes"/>
      <point x="787" y="108"/>
      <point x="862" y="136"/>
      <point x="894" y="190" type="curve" smooth="yes"/>
      <point x="910" y="217"/>
      <point x="918" y="251"/>
      <point x="918" y="294" type="curve" smooth="yes"/>
      <point x="918" y="349"/>
      <point x="881" y="400"/>
      <point x="841" y="432" type="curve"/>
      <point x="993" y="567" type="line"/>
      <point x="1078" y="507"/>
      <point x="1140" y="423"/>
      <point x="1140" y="314" type="curve" smooth="yes"/>
      <point x="1140" y="191"/>
      <point x="1085" y="88"/>
      <point x="954" y="28" type="curve" smooth="yes"/>
      <point x="888" y="-2"/>
      <point x="803" y="-17"/>
      <point x="699" y="-17" type="curve" smooth="yes"/>
      <point x="576" y="-17"/>
      <point x="489" y="4"/>
      <point x="340" y="49" type="curve" smooth="yes"/>
      <point x="330" y="52"/>
      <point x="314" y="56"/>
      <point x="293" y="63" type="curve" smooth="yes"/>
      <point x="271" y="70"/>
      <point x="252" y="75"/>
      <point x="235" y="79" type="curve"/>
      <point x="191" y="32"/>
      <point x="104" y="-17"/>
      <point x="31" y="-17" type="curve" smooth="yes"/>
      <point x="-20" y="-17"/>
      <point x="-53" y="7"/>
      <point x="-49" y="60" type="curve" smooth="yes"/>
      <point x="-45" y="100"/>
      <point x="-2" y="145"/>
      <point x="65" y="172" type="curve" smooth="yes"/>
      <point x="98" y="185"/>
      <point x="133" y="192"/>
      <point x="169" y="192" type="curve"/>
      <point x="197" y="220"/>
      <point x="225" y="294"/>
      <point x="242" y="390" type="curve" smooth="yes"/>
      <point x="284" y="630" type="line"/>
      <point x="126" y="630" type="line"/>
      <point x="142" y="767" type="line"/>
    </contour>
  </outline>
</glyph>
<glyph name="currency" format="1">
  <advance width="1324"/>
  <unicode hex="00A4"/>
  <note>
	currency
  </note>
  <outline>
    <contour>
      <point x="359" y="382" type="line"/>
      <point x="316" y="445"/>
      <point x="294" y="515"/>
      <point x="294" y="593" type="curve" smooth="yes"/>
      <point x="294" y="670"/>
      <point x="315" y="739"/>
      <point x="357" y="802" type="curve"/>
      <point x="183" y="976" type="line"/>
      <point x="294" y="1088" type="line"/>
      <point x="470" y="912" type="line"/>
      <point x="531" y="951"/>
      <point x="599" y="970"/>
      <point x="673" y="970" type="curve" smooth="yes"/>
      <point x="749" y="970"/>
      <point x="823" y="947"/>
      <point x="884" y="906" type="curve"/>
      <point x="1056" y="1077" type="line"/>
      <point x="1167" y="965" type="line"/>
      <point x="994" y="792" type="line"/>
      <point x="1032" y="732"/>
      <point x="1051" y="666"/>
      <point x="1051" y="593" type="curve" smooth="yes"/>
      <point x="1051" y="519"/>
      <point x="1031" y="451"/>
      <point x="990" y="388" type="curve"/>
      <point x="1165" y="213" type="line"/>
      <point x="1054" y="102" type="line"/>
      <point x="878" y="277" type="line"/>
      <point x="815" y="237"/>
      <point x="746" y="217"/>
      <point x="673" y="217" type="curve" smooth="yes"/>
      <point x="601" y="217"/>
      <point x="534" y="236"/>
      <point x="472" y="273" type="curve"/>
      <point x="298" y="98" type="line"/>
      <point x="186" y="209" type="line"/>
    </contour>
    <contour>
      <point x="748" y="374"/>
      <point x="817" y="416"/>
      <point x="854" y="484" type="curve" smooth="yes"/>
      <point x="873" y="517"/>
      <point x="882" y="554"/>
      <point x="882" y="593" type="curve" smooth="yes"/>
      <point x="882" y="673"/>
      <point x="842" y="743"/>
      <point x="778" y="783" type="curve" smooth="yes"/>
      <point x="745" y="803"/>
      <point x="710" y="813"/>
      <point x="673" y="813" type="curve" smooth="yes"/>
      <point x="597" y="813"/>
      <point x="528" y="770"/>
      <point x="491" y="703" type="curve" smooth="yes"/>
      <point x="472" y="670"/>
      <point x="463" y="633"/>
      <point x="463" y="593" type="curve" smooth="yes"/>
      <point x="463" y="514"/>
      <point x="503" y="443"/>
      <point x="568" y="404" type="curve" smooth="yes"/>
      <point x="600" y="384"/>
      <point x="635" y="374"/>
      <point x="673" y="374" type="curve" smooth="yes"/>
    </contour>
  </outline>
</glyph>
<glyph name="yen" format="1">
  <advance width="1275"/>
  <unicode hex="00A5"/>
  <note>
	yen
  </note>
  <outline>
    <contour>
      <point x="507" y="736" type="line"/>
      <point x="253" y="1202" type="line"/>
      <point x="153" y="1222" type="line"/>
      <point x="164" y="1314" type="line"/>
      <point x="682" y="1314" type="line"/>
      <point x="670" y="1222" type="line"/>
      <point x="517" y="1203" type="line"/>
      <point x="670" y="872" type="line"/>
      <point x="712" y="762" type="line"/>
      <point x="782" y="875" type="line"/>
      <point x="1004" y="1207" type="line"/>
      <point x="893" y="1222" type="line"/>
      <point x="904" y="1314" type="line"/>
      <point x="1348" y="1314" type="line"/>
      <point x="1337" y="1222" type="line"/>
      <point x="1223" y="1198" type="line"/>
      <point x="864" y="736" type="line"/>
      <point x="1104" y="736" type="line"/>
      <point x="1090" y="614" type="line"/>
      <point x="775" y="614" type="line"/>
      <point x="754" y="444" type="line"/>
      <point x="1070" y="444" type="line"/>
      <point x="1056" y="323" type="line"/>
      <point x="739" y="323" type="line"/>
      <point x="713" y="110" type="line"/>
      <point x="937" y="84" type="line"/>
      <point x="929" y="0" type="line"/>
      <point x="278" y="0" type="line"/>
      <point x="286" y="84" type="line"/>
      <point x="503" y="110" type="line"/>
      <point x="529" y="323" type="line"/>
      <point x="202" y="323" type="line"/>
      <point x="215" y="444" type="line"/>
      <point x="544" y="444" type="line"/>
      <point x="564" y="614" type="line"/>
      <point x="235" y="614" type="line"/>
      <point x="249" y="736" type="line"/>
    </contour>
  </outline>
</glyph>
<glyph name="brokenbar" format="1">
  <advance width="734"/>
  <unicode hex="00A6"/>
  <note>
	brokenbar
  </note>
  <outline>
    <contour>
      <point x="468" y="1531" type="line"/>
      <point x="468" y="777" type="line"/>
      <point x="300" y="777" type="line"/>
      <point x="300" y="1531" type="line"/>
    </contour>
    <contour>
      <point x="468" y="594" type="line"/>
      <point x="468" y="-160" type="line"/>
      <point x="300" y="-160" type="line"/>
      <point x="300" y="594" type="line"/>
    </contour>
  </outline>
</glyph>
<glyph name="section" format="1">
  <advance width="1026"/>
  <unicode hex="00A7"/>
  <note>
	section
  </note>
  <outline>
    <contour>
      <point x="226" y="201" type="line"/>
      <point x="251" y="22" type="line"/>
      <point x="290" y="-24"/>
      <point x="356" y="-47"/>
      <point x="450" y="-47" type="curve" smooth="yes"/>
      <point x="518" y="-46"/>
      <point x="591" y="-26"/>
      <point x="639" y="26" type="curve" smooth="yes"/>
      <point x="686" y="78"/>
      <point x="690" y="158"/>
      <point x="652" y="202" type="curve" smooth="yes"/>
      <point x="614" y="246"/>
      <point x="559" y="272"/>
      <point x="452" y="319" type="curve" smooth="yes"/>
      <point x="308" y="382"/>
      <point x="228" y="425"/>
      <point x="164" y="507" type="curve" smooth="yes"/>
      <point x="132" y="548"/>
      <point x="116" y="597"/>
      <point x="116" y="655" type="curve" smooth="yes"/>
      <point x="116" y="760"/>
      <point x="171" y="856"/>
      <point x="252" y="932" type="curve"/>
      <point x="209" y="981"/>
      <point x="187" y="1036"/>
      <point x="187" y="1097" type="curve" smooth="yes"/>
      <point x="187" y="1242"/>
      <point x="293" y="1348"/>
      <point x="437" y="1400" type="curve" smooth="yes"/>
      <point x="508" y="1426"/>
      <point x="579" y="1439"/>
      <point x="649" y="1439" type="curve" smooth="yes"/>
      <point x="796" y="1439"/>
      <point x="933" y="1407"/>
      <point x="985" y="1374" type="curve"/>
      <point x="943" y="1102" type="line"/>
      <point x="817" y="1102" type="line"/>
      <point x="783" y="1281" type="line"/>
      <point x="754" y="1310"/>
      <point x="696" y="1330"/>
      <point x="628" y="1330" type="curve" smooth="yes"/>
      <point x="512" y="1330"/>
      <point x="405" y="1295"/>
      <point x="397" y="1176" type="curve" smooth="yes"/>
      <point x="394" y="1109"/>
      <point x="441" y="1059"/>
      <point x="505" y="1024" type="curve" smooth="yes"/>
      <point x="537" y="1007"/>
      <point x="581" y="986"/>
      <point x="637" y="961" type="curve" smooth="yes"/>
      <point x="773" y="902"/>
      <point x="849" y="864"/>
      <point x="909" y="786" type="curve" smooth="yes"/>
      <point x="938" y="747"/>
      <point x="953" y="699"/>
      <point x="953" y="643" type="curve" smooth="yes"/>
      <point x="953" y="532"/>
      <point x="910" y="433"/>
      <point x="823" y="346" type="curve"/>
      <point x="865" y="297"/>
      <point x="886" y="242"/>
      <point x="886" y="181" type="curve" smooth="yes"/>
      <point x="886" y="41"/>
      <point x="786" y="-65"/>
      <point x="644" y="-119" type="curve" smooth="yes"/>
      <point x="573" y="-146"/>
      <point x="499" y="-160"/>
      <point x="424" y="-160" type="curve" smooth="yes"/>
      <point x="332" y="-160"/>
      <point x="222" y="-143"/>
      <point x="140" y="-121" type="curve" smooth="yes"/>
      <point x="99" y="-110"/>
      <point x="70" y="-100"/>
      <point x="54" y="-91" type="curve"/>
      <point x="96" y="201" type="line"/>
    </contour>
    <contour>
      <point x="311" y="820"/>
      <point x="296" y="779"/>
      <point x="296" y="738" type="curve" smooth="yes"/>
      <point x="296" y="673"/>
      <point x="347" y="623"/>
      <point x="414" y="585" type="curve" smooth="yes"/>
      <point x="447" y="566"/>
      <point x="493" y="542"/>
      <point x="552" y="515" type="curve" smooth="yes"/>
      <point x="648" y="471"/>
      <point x="687" y="452"/>
      <point x="736" y="420" type="curve"/>
      <point x="761" y="457"/>
      <point x="774" y="497"/>
      <point x="774" y="538" type="curve" smooth="yes"/>
      <point x="774" y="605"/>
      <point x="722" y="658"/>
      <point x="654" y="698" type="curve" smooth="yes"/>
      <point x="620" y="717"/>
      <point x="574" y="740"/>
      <point x="515" y="767" type="curve" smooth="yes"/>
      <point x="435" y="806"/>
      <point x="387" y="828"/>
      <point x="340" y="859" type="curve"/>
    </contour>
  </outline>
</glyph>
<glyph name="dieresis" format="1">
  <advance width="695"/>
  <unicode hex="00A8"/>
  <note>
	dieresis
  </note>
  <outline>
    <contour>
      <point x="31" y="1347"/>
      <point x="55" y="1396"/>
      <point x="99" y="1424" type="curve" smooth="yes"/>
      <point x="120" y="1437"/>
      <point x="144" y="1444"/>
      <point x="171" y="1444" type="curve" smooth="yes"/>
      <point x="218" y="1444"/>
      <point x="255" y="1420"/>
      <point x="275" y="1385" type="curve"/>
      <point x="284" y="1367"/>
      <point x="289" y="1348"/>
      <point x="289" y="1328" type="curve" smooth="yes"/>
      <point x="289" y="1271"/>
      <point x="266" y="1220"/>
      <point x="222" y="1192" type="curve" smooth="yes"/>
      <point x="200" y="1177"/>
      <point x="174" y="1170"/>
      <point x="144" y="1170" type="curve" smooth="yes"/>
      <point x="104" y="1170"/>
      <point x="67" y="1195"/>
      <point x="47" y="1233" type="curve"/>
      <point x="36" y="1252"/>
      <point x="31" y="1271"/>
      <point x="31" y="1292" type="curve" smooth="yes"/>
    </contour>
    <contour>
      <point x="408" y="1347"/>
      <point x="432" y="1396"/>
      <point x="475" y="1424" type="curve" smooth="yes"/>
      <point x="496" y="1437"/>
      <point x="521" y="1444"/>
      <point x="548" y="1444" type="curve" smooth="yes"/>
      <point x="595" y="1444"/>
      <point x="631" y="1420"/>
      <point x="651" y="1384" type="curve" smooth="yes"/>
      <point x="661" y="1366"/>
      <point x="666" y="1347"/>
      <point x="666" y="1326" type="curve" smooth="yes"/>
      <point x="666" y="1269"/>
      <point x="642" y="1219"/>
      <point x="599" y="1191" type="curve" smooth="yes"/>
      <point x="577" y="1177"/>
      <point x="551" y="1170"/>
      <point x="520" y="1170" type="curve" smooth="yes"/>
      <point x="480" y="1170"/>
      <point x="444" y="1195"/>
      <point x="424" y="1233" type="curve"/>
      <point x="413" y="1252"/>
      <point x="408" y="1271"/>
      <point x="408" y="1292" type="curve" smooth="yes"/>
    </contour>
  </outline>
</glyph>
<glyph name="copyright" format="1">
  <advance width="1520"/>
  <unicode hex="00A9"/>
  <note>
	copyright
  </note>
  <outline>
    <contour>
      <point x="1041" y="1350"/>
      <point x="1254" y="1224"/>
      <point x="1373" y="1023" type="curve" smooth="yes"/>
      <point x="1432" y="922"/>
      <point x="1462" y="812"/>
      <point x="1462" y="693" type="curve" smooth="yes"/>
      <point x="1462" y="453"/>
      <point x="1335" y="242"/>
      <point x="1133" y="124" type="curve" smooth="yes"/>
      <point x="1032" y="65"/>
      <point x="921" y="35"/>
      <point x="802" y="35" type="curve" smooth="yes"/>
      <point x="565" y="35"/>
      <point x="351" y="162"/>
      <point x="233" y="363" type="curve" smooth="yes"/>
      <point x="174" y="463"/>
      <point x="144" y="573"/>
      <point x="144" y="693" type="curve" smooth="yes"/>
      <point x="144" y="932"/>
      <point x="271" y="1145"/>
      <point x="473" y="1262" type="curve" smooth="yes"/>
      <point x="574" y="1321"/>
      <point x="683" y="1350"/>
      <point x="802" y="1350" type="curve" smooth="yes"/>
    </contour>
    <contour>
      <point x="1003" y="136"/>
      <point x="1180" y="243"/>
      <point x="1277" y="414" type="curve" smooth="yes"/>
      <point x="1326" y="499"/>
      <point x="1350" y="592"/>
      <point x="1350" y="693" type="curve" smooth="yes"/>
      <point x="1350" y="896"/>
      <point x="1246" y="1075"/>
      <point x="1079" y="1175" type="curve" smooth="yes"/>
      <point x="995" y="1225"/>
      <point x="903" y="1250"/>
      <point x="802" y="1250" type="curve" smooth="yes"/>
      <point x="602" y="1250"/>
      <point x="425" y="1143"/>
      <point x="328" y="973" type="curve" smooth="yes"/>
      <point x="279" y="888"/>
      <point x="255" y="794"/>
      <point x="255" y="693" type="curve" smooth="yes"/>
      <point x="255" y="492"/>
      <point x="359" y="311"/>
      <point x="527" y="211" type="curve" smooth="yes"/>
      <point x="610" y="161"/>
      <point x="702" y="136"/>
      <point x="802" y="136" type="curve" smooth="yes"/>
    </contour>
    <contour>
      <point x="912" y="1072"/>
      <point x="1000" y="1059"/>
      <point x="1035" y="1040" type="curve"/>
      <point x="1035" y="849" type="line"/>
      <point x="956" y="849" type="line"/>
      <point x="915" y="952" type="line"/>
      <point x="891" y="973"/>
      <point x="852" y="986"/>
      <point x="808" y="986" type="curve" smooth="yes"/>
      <point x="737" y="986"/>
      <point x="679" y="943"/>
      <point x="647" y="868" type="curve" smooth="yes"/>
      <point x="631" y="830"/>
      <point x="623" y="785"/>
      <point x="623" y="734" type="curve" smooth="yes"/>
      <point x="623" y="587"/>
      <point x="666" y="494"/>
      <point x="727" y="453" type="curve" smooth="yes"/>
      <point x="757" y="432"/>
      <point x="789" y="422"/>
      <point x="824" y="422" type="curve" smooth="yes"/>
      <point x="900" y="422"/>
      <point x="969" y="445"/>
      <point x="1013" y="470" type="curve"/>
      <point x="1043" y="394" type="line"/>
      <point x="991" y="350"/>
      <point x="888" y="315"/>
      <point x="791" y="315" type="curve" smooth="yes"/>
      <point x="658" y="315"/>
      <point x="557" y="387"/>
      <point x="505" y="502" type="curve" smooth="yes"/>
      <point x="479" y="559"/>
      <point x="466" y="623"/>
      <point x="466" y="693" type="curve" smooth="yes"/>
      <point x="466" y="832"/>
      <point x="528" y="953"/>
      <point x="639" y="1021" type="curve" smooth="yes"/>
      <point x="694" y="1055"/>
      <point x="759" y="1072"/>
      <point x="833" y="1072" type="curve" smooth="yes"/>
    </contour>
  </outline>
</glyph>
<glyph name="ordfeminine" format="1">
  <advance width="734"/>
  <unicode hex="00AA"/>
  <note>
	ordfeminine
  </note>
  <outline>
    <contour>
      <point x="53" y="1041"/>
      <point x="141" y="1196"/>
      <point x="283" y="1288" type="curve" smooth="yes"/>
      <point x="354" y="1333"/>
      <point x="431" y="1356"/>
      <point x="514" y="1356" type="curve" smooth="yes"/>
      <point x="562" y="1356"/>
      <point x="621" y="1345"/>
      <point x="662" y="1332" type="curve"/>
      <point x="771" y="1364" type="line"/>
      <point x="669" y="780" type="line" smooth="yes"/>
      <point x="668" y="775"/>
      <point x="668" y="769"/>
      <point x="668" y="762" type="curve" smooth="yes"/>
      <point x="668" y="753"/>
      <point x="669" y="746"/>
      <point x="671" y="741" type="curve" smooth="yes"/>
      <point x="673" y="736"/>
      <point x="676" y="734"/>
      <point x="679" y="734" type="curve" smooth="yes"/>
      <point x="691" y="734"/>
      <point x="707" y="740"/>
      <point x="728" y="751" type="curve"/>
      <point x="752" y="710" type="line"/>
      <point x="744" y="701"/>
      <point x="698" y="672"/>
      <point x="647" y="653" type="curve" smooth="yes"/>
      <point x="621" y="644"/>
      <point x="597" y="639"/>
      <point x="574" y="639" type="curve" smooth="yes"/>
      <point x="517" y="639"/>
      <point x="478" y="675"/>
      <point x="478" y="728" type="curve" smooth="yes"/>
      <point x="478" y="732"/>
      <point x="479" y="738"/>
      <point x="480" y="747" type="curve"/>
      <point x="427" y="683"/>
      <point x="363" y="639"/>
      <point x="262" y="639" type="curve" smooth="yes"/>
      <point x="130" y="639"/>
      <point x="53" y="737"/>
      <point x="53" y="894" type="curve" smooth="yes"/>
    </contour>
    <contour>
      <point x="555" y="1242" type="line"/>
      <point x="535" y="1259"/>
      <point x="514" y="1268"/>
      <point x="493" y="1268" type="curve" smooth="yes"/>
      <point x="389" y="1268"/>
      <point x="318" y="1190"/>
      <point x="285" y="1080" type="curve" smooth="yes"/>
      <point x="268" y="1025"/>
      <point x="260" y="967"/>
      <point x="260" y="907" type="curve" smooth="yes"/>
      <point x="260" y="800"/>
      <point x="287" y="750"/>
      <point x="355" y="750" type="curve" smooth="yes"/>
      <point x="395" y="750"/>
      <point x="443" y="776"/>
      <point x="480" y="811" type="curve"/>
    </contour>
  </outline>
</glyph>
<glyph name="guillemotleft" format="1">
  <advance width="1610"/>
  <unicode hex="00AB"/>
  <note>
	guillemotleft
  </note>
  <outline>
    <contour>
      <point x="818" y="939" type="line"/>
      <point x="860" y="811" type="line"/>
      <point x="446" y="524" type="line"/>
      <point x="782" y="242" type="line"/>
      <point x="708" y="126" type="line"/>
      <point x="185" y="456" type="line"/>
      <point x="203" y="593" type="line"/>
    </contour>
    <contour>
      <point x="1399" y="939" type="line"/>
      <point x="1441" y="811" type="line"/>
      <point x="1027" y="524" type="line"/>
      <point x="1363" y="242" type="line"/>
      <point x="1289" y="126" type="line"/>
      <point x="766" y="456" type="line"/>
      <point x="784" y="593" type="line"/>
    </contour>
  </outline>
</glyph>
<glyph name="logicalnot" format="1">
  <advance width="1178"/>
  <unicode hex="00AC"/>
  <note>
	logicalnot
  </note>
  <outline>
    <contour>
      <point x="1031" y="743" type="line"/>
      <point x="978" y="277" type="line"/>
      <point x="807" y="277" type="line"/>
      <point x="845" y="611" type="line"/>
      <point x="181" y="611" type="line"/>
      <point x="196" y="743" type="line"/>
    </contour>
  </outline>
</glyph>
<glyph name="uni00AD" format="1">
  <advance width="1020"/>
  <unicode hex="00AD"/>
  <note>
	uni00AD
  </note>
  <outline>
    <contour>
      <point x="875" y="741" type="line"/>
      <point x="859" y="587" type="line"/>
      <point x="207" y="587" type="line"/>
      <point x="223" y="741" type="line"/>
    </contour>
  </outline>
</glyph>
<glyph name="registered" format="1">
  <advance width="1520"/>
  <unicode hex="00AE"/>
  <note>
	registered
  </note>
  <outline>
    <contour>
      <point x="1041" y="1350"/>
      <point x="1254" y="1224"/>
      <point x="1373" y="1023" type="curve" smooth="yes"/>
      <point x="1432" y="922"/>
      <point x="1462" y="812"/>
      <point x="1462" y="693" type="curve" smooth="yes"/>
      <point x="1462" y="453"/>
      <point x="1335" y="242"/>
      <point x="1133" y="124" type="curve" smooth="yes"/>
      <point x="1032" y="65"/>
      <point x="921" y="35"/>
      <point x="802" y="35" type="curve" smooth="yes"/>
      <point x="565" y="35"/>
      <point x="351" y="162"/>
      <point x="233" y="363" type="curve" smooth="yes"/>
      <point x="174" y="463"/>
      <point x="144" y="573"/>
      <point x="144" y="693" type="curve" smooth="yes"/>
      <point x="144" y="932"/>
      <point x="271" y="1145"/>
      <point x="473" y="1262" type="curve" smooth="yes"/>
      <point x="574" y="1321"/>
      <point x="683" y="1350"/>
      <point x="802" y="1350" type="curve" smooth="yes"/>
    </contour>
    <contour>
      <point x="1003" y="136"/>
      <point x="1180" y="243"/>
      <point x="1277" y="414" type="curve" smooth="yes"/>
      <point x="1326" y="499"/>
      <point x="1350" y="592"/>
      <point x="1350" y="693" type="curve" smooth="yes"/>
      <point x="1350" y="896"/>
      <point x="1246" y="1075"/>
      <point x="1079" y="1175" type="curve" smooth="yes"/>
      <point x="995" y="1225"/>
      <point x="903" y="1250"/>
      <point x="802" y="1250" type="curve" smooth="yes"/>
      <point x="602" y="1250"/>
      <point x="425" y="1143"/>
      <point x="328" y="973" type="curve" smooth="yes"/>
      <point x="279" y="888"/>
      <point x="255" y="794"/>
      <point x="255" y="693" type="curve" smooth="yes"/>
      <point x="255" y="492"/>
      <point x="359" y="311"/>
      <point x="527" y="211" type="curve" smooth="yes"/>
      <point x="610" y="161"/>
      <point x="702" y="136"/>
      <point x="802" y="136" type="curve" smooth="yes"/>
    </contour>
    <contour>
      <point x="558" y="403" type="line"/>
      <point x="558" y="975" type="line"/>
      <point x="487" y="994" type="line"/>
      <point x="487" y="1066" type="line"/>
      <point x="616" y="1066" type="line"/>
      <point x="647" y="1066" type="line" smooth="yes"/>
      <point x="656" y="1066"/>
      <point x="674" y="1066"/>
      <point x="701" y="1067" type="curve" smooth="yes"/>
      <point x="761" y="1070"/>
      <point x="801" y="1071"/>
      <point x="820" y="1071" type="curve" smooth="yes"/>
      <point x="999" y="1071"/>
      <point x="1098" y="993"/>
      <point x="1102" y="872" type="curve" smooth="yes"/>
      <point x="1102" y="800"/>
      <point x="1088" y="747"/>
      <point x="1032" y="701" type="curve" smooth="yes"/>
      <point x="1003" y="678"/>
      <point x="962" y="659"/>
      <point x="909" y="645" type="curve"/>
      <point x="966" y="612"/>
      <point x="995" y="569"/>
      <point x="1035" y="494" type="curve" smooth="yes"/>
      <point x="1062" y="443"/>
      <point x="1078" y="417"/>
      <point x="1103" y="400" type="curve"/>
      <point x="1116" y="393"/>
      <point x="1132" y="390"/>
      <point x="1151" y="390" type="curve"/>
      <point x="1151" y="322" type="line"/>
      <point x="989" y="322" type="line" smooth="yes"/>
      <point x="975" y="322"/>
      <point x="963" y="329"/>
      <point x="954" y="344" type="curve"/>
      <point x="944" y="359"/>
      <point x="931" y="384"/>
      <point x="914" y="421" type="curve" smooth="yes"/>
      <point x="873" y="514"/>
      <point x="837" y="581"/>
      <point x="769" y="630" type="curve"/>
      <point x="703" y="630" type="line"/>
      <point x="703" y="403" type="line"/>
      <point x="786" y="386" type="line"/>
      <point x="786" y="322" type="line"/>
      <point x="487" y="322" type="line"/>
      <point x="487" y="386" type="line"/>
    </contour>
    <contour>
      <point x="894" y="718"/>
      <point x="943" y="777"/>
      <point x="943" y="854" type="curve" smooth="yes"/>
      <point x="943" y="939"/>
      <point x="888" y="979"/>
      <point x="797" y="979" type="curve" smooth="yes"/>
      <point x="792" y="979"/>
      <point x="784" y="979"/>
      <point x="772" y="979" type="curve" smooth="yes"/>
      <point x="748" y="979"/>
      <point x="728" y="977"/>
      <point x="703" y="970" type="curve"/>
      <point x="703" y="725" type="line"/>
      <point x="726" y="720"/>
      <point x="763" y="718"/>
      <point x="815" y="718" type="curve" smooth="yes"/>
    </contour>
  </outline>
</glyph>
<glyph name="macron" format="1">
  <advance width="528"/>
  <unicode hex="00AF"/>
  <note>
	macron
  </note>
  <outline>
    <contour>
      <point x="505" y="1373" type="line"/>
      <point x="488" y="1216" type="line"/>
      <point x="21" y="1216" type="line"/>
      <point x="37" y="1373" type="line"/>
    </contour>
  </outline>
</glyph>
<glyph name="degree" format="1">
  <advance width="800"/>
  <unicode hex="00B0"/>
  <note>
	degree
  </note>
  <outline>
    <contour>
      <point x="165" y="1203"/>
      <point x="220" y="1297"/>
      <point x="312" y="1348" type="curve" smooth="yes"/>
      <point x="358" y="1373"/>
      <point x="410" y="1386"/>
      <point x="467" y="1386" type="curve" smooth="yes"/>
      <point x="574" y="1386"/>
      <point x="666" y="1333"/>
      <point x="716" y="1246" type="curve" smooth="yes"/>
      <point x="741" y="1203"/>
      <point x="753" y="1155"/>
      <point x="753" y="1104" type="curve" smooth="yes"/>
      <point x="753" y="993"/>
      <point x="697" y="901"/>
      <point x="605" y="850" type="curve" smooth="yes"/>
      <point x="558" y="824"/>
      <point x="506" y="811"/>
      <point x="449" y="811" type="curve" smooth="yes"/>
      <point x="342" y="811"/>
      <point x="251" y="865"/>
      <point x="202" y="952" type="curve" smooth="yes"/>
      <point x="177" y="995"/>
      <point x="165" y="1043"/>
      <point x="165" y="1094" type="curve" smooth="yes"/>
    </contour>
    <contour>
      <point x="616" y="1162"/>
      <point x="587" y="1214"/>
      <point x="540" y="1243" type="curve" smooth="yes"/>
      <point x="517" y="1258"/>
      <point x="491" y="1265"/>
      <point x="462" y="1265" type="curve" smooth="yes"/>
      <point x="401" y="1265"/>
      <point x="351" y="1233"/>
      <point x="324" y="1182" type="curve" smooth="yes"/>
      <point x="310" y="1156"/>
      <point x="303" y="1127"/>
      <point x="303" y="1096" type="curve" smooth="yes"/>
      <point x="303" y="1036"/>
      <point x="331" y="983"/>
      <point x="378" y="954" type="curve" smooth="yes"/>
      <point x="401" y="939"/>
      <point x="427" y="932"/>
      <point x="456" y="932" type="curve" smooth="yes"/>
      <point x="516" y="932"/>
      <point x="567" y="964"/>
      <point x="595" y="1016" type="curve" smooth="yes"/>
      <point x="609" y="1041"/>
      <point x="616" y="1070"/>
      <point x="616" y="1103" type="curve" smooth="yes"/>
    </contour>
  </outline>
</glyph>
<glyph name="plusminus" format="1">
  <advance width="1159"/>
  <unicode hex="00B1"/>
  <note>
	plusminus
  </note>
  <outline>
    <contour>
      <point x="514" y="593" type="line"/>
      <point x="393" y="587" type="line"/>
      <point x="213" y="587" type="line"/>
      <point x="229" y="741" type="line"/>
      <point x="418" y="741" type="line"/>
      <point x="538" y="732" type="line"/>
      <point x="545" y="816"/>
      <point x="548" y="863"/>
      <point x="549" y="874" type="curve" smooth="yes"/>
      <point x="572" y="1072" type="line"/>
      <point x="744" y="1072" type="line"/>
      <point x="722" y="874" type="line"/>
      <point x="697" y="733" type="line"/>
      <point x="796" y="741" type="line"/>
      <point x="1000" y="741" type="line"/>
      <point x="985" y="587" type="line"/>
      <point x="771" y="587" type="line"/>
      <point x="674" y="593" type="line"/>
      <point x="673" y="565"/>
      <point x="672" y="537"/>
      <point x="669" y="508" type="curve"/>
      <point x="666" y="452" type="line"/>
      <point x="642" y="244" type="line"/>
      <point x="469" y="244" type="line"/>
      <point x="492" y="452" type="line"/>
    </contour>
    <contour>
      <point x="907" y="155" type="line"/>
      <point x="893" y="11" type="line"/>
      <point x="155" y="11" type="line"/>
      <point x="169" y="155" type="line"/>
    </contour>
  </outline>
</glyph>
<glyph name="uni00B2" format="1">
  <advance width="891"/>
  <unicode hex="00B2"/>
  <note>
	uni00B2
  </note>
  <outline>
    <contour>
      <point x="111" y="695" type="line"/>
      <point x="227" y="763"/>
      <point x="395" y="878"/>
      <point x="516" y="1017" type="curve" smooth="yes"/>
      <point x="576" y="1086"/>
      <point x="606" y="1152"/>
      <point x="606" y="1213" type="curve" smooth="yes"/>
      <point x="606" y="1296"/>
      <point x="559" y="1342"/>
      <point x="474" y="1342" type="curve" smooth="yes"/>
      <point x="387" y="1342"/>
      <point x="296" y="1299"/>
      <point x="248" y="1252" type="curve"/>
      <point x="187" y="1324" type="line"/>
      <point x="220" y="1365"/>
      <point x="297" y="1416"/>
      <point x="392" y="1448" type="curve" smooth="yes"/>
      <point x="439" y="1463"/>
      <point x="486" y="1471"/>
      <point x="532" y="1471" type="curve" smooth="yes"/>
      <point x="720" y="1471"/>
      <point x="815" y="1391"/>
      <point x="815" y="1263" type="curve" smooth="yes"/>
      <point x="815" y="1143"/>
      <point x="700" y="1002"/>
      <point x="544" y="882" type="curve" smooth="yes"/>
      <point x="465" y="822"/>
      <point x="384" y="770"/>
      <point x="301" y="725" type="curve"/>
      <point x="690" y="765" type="line"/>
      <point x="748" y="866" type="line"/>
      <point x="837" y="846" type="line"/>
      <point x="782" y="605" type="line"/>
      <point x="143" y="605" type="line"/>
    </contour>
  </outline>
</glyph>
<glyph name="uni00B3" format="1">
  <advance width="891"/>
  <unicode hex="00B3"/>
  <note>
	uni00B3
  </note>
  <outline>
    <contour>
      <point x="160" y="745" type="line"/>
      <point x="219" y="725"/>
      <point x="310" y="709"/>
      <point x="377" y="709" type="curve" smooth="yes"/>
      <point x="533" y="709"/>
      <point x="615" y="767"/>
      <point x="620" y="870" type="curve" smooth="yes"/>
      <point x="623" y="915"/>
      <point x="598" y="958"/>
      <point x="554" y="982" type="curve"/>
      <point x="532" y="993"/>
      <point x="507" y="999"/>
      <point x="479" y="999" type="curve" smooth="yes"/>
      <point x="472" y="999"/>
      <point x="467" y="999"/>
      <point x="464" y="998" type="curve" smooth="yes"/>
      <point x="362" y="964" type="line"/>
      <point x="342" y="1067" type="line"/>
      <point x="426" y="1091"/>
      <point x="499" y="1125"/>
      <point x="548" y="1175" type="curve" smooth="yes"/>
      <point x="596" y="1225"/>
      <point x="598" y="1296"/>
      <point x="564" y="1328" type="curve" smooth="yes"/>
      <point x="547" y="1343"/>
      <point x="515" y="1351"/>
      <point x="470" y="1351" type="curve" smooth="yes"/>
      <point x="403" y="1351"/>
      <point x="335" y="1325"/>
      <point x="266" y="1272" type="curve"/>
      <point x="219" y="1360" type="line"/>
      <point x="294" y="1424"/>
      <point x="417" y="1473"/>
      <point x="548" y="1473" type="curve" smooth="yes"/>
      <point x="649" y="1473"/>
      <point x="729" y="1442"/>
      <point x="767" y="1390" type="curve" smooth="yes"/>
      <point x="805" y="1338"/>
      <point x="805" y="1249"/>
      <point x="741" y="1171" type="curve" smooth="yes"/>
      <point x="708" y="1132"/>
      <point x="650" y="1097"/>
      <point x="567" y="1067" type="curve"/>
      <point x="583" y="1068"/>
      <point x="594" y="1068"/>
      <point x="601" y="1068" type="curve" smooth="yes"/>
      <point x="696" y="1068"/>
      <point x="768" y="1032"/>
      <point x="804" y="972" type="curve" smooth="yes"/>
      <point x="840" y="912"/>
      <point x="842" y="815"/>
      <point x="771" y="730" type="curve" smooth="yes"/>
      <point x="699" y="645"/>
      <point x="566" y="592"/>
      <point x="391" y="592" type="curve" smooth="yes"/>
      <point x="312" y="592"/>
      <point x="221" y="608"/>
      <point x="148" y="641" type="curve"/>
    </contour>
  </outline>
</glyph>
<glyph name="acute" format="1">
  <advance width="480"/>
  <unicode hex="00B4"/>
  <note>
	acute
  </note>
  <outline>
    <contour>
      <point x="316" y="1499" type="line"/>
      <point x="462" y="1357" type="line"/>
      <point x="441" y="1318"/>
      <point x="341" y="1220"/>
      <point x="240" y="1143" type="curve" smooth="yes"/>
      <point x="189" y="1104"/>
      <point x="148" y="1079"/>
      <point x="116" y="1066" type="curve"/>
      <point x="43" y="1128" type="line"/>
    </contour>
  </outline>
</glyph>
<glyph name="paragraph" format="1">
  <advance width="1173"/>
  <unicode hex="00B6"/>
  <note>
	paragraph
  </note>
  <outline>
    <contour>
      <point x="330" y="101" type="line"/>
      <point x="396" y="608" type="line"/>
      <point x="277" y="609"/>
      <point x="180" y="667"/>
      <point x="128" y="765" type="curve" smooth="yes"/>
      <point x="101" y="814"/>
      <point x="88" y="869"/>
      <point x="88" y="932" type="curve" smooth="yes"/>
      <point x="88" y="1195"/>
      <point x="253" y="1339"/>
      <point x="613" y="1339" type="curve" smooth="yes"/>
      <point x="668" y="1339"/>
      <point x="728" y="1336"/>
      <point x="794" y="1331" type="curve"/>
      <point x="801" y="1330"/>
      <point x="821" y="1329"/>
      <point x="855" y="1327" type="curve" smooth="yes"/>
      <point x="889" y="1325"/>
      <point x="927" y="1324"/>
      <point x="968" y="1323" type="curve" smooth="yes"/>
      <point x="1201" y="1323" type="line"/>
      <point x="1192" y="1234" type="line"/>
      <point x="1058" y="1206" type="line"/>
      <point x="1047" y="1118"/>
      <point x="1023" y="926"/>
      <point x="986" y="630" type="curve" smooth="yes"/>
      <point x="953" y="382"/>
      <point x="931" y="205"/>
      <point x="918" y="100" type="curve"/>
      <point x="1044" y="74" type="line"/>
      <point x="1036" y="0" type="line"/>
      <point x="697" y="0" type="line"/>
      <point x="845" y="1204" type="line"/>
      <point x="673" y="1204" type="line"/>
      <point x="520" y="0" type="line"/>
      <point x="163" y="0" type="line"/>
      <point x="169" y="75" type="line"/>
    </contour>
  </outline>
</glyph>
<glyph name="cedilla" format="1">
  <advance width="411"/>
  <unicode hex="00B8"/>
  <note>
	cedilla
  </note>
  <outline>
    <contour>
      <point x="341" y="26" type="line"/>
      <point x="361" y="-3"/>
      <point x="378" y="-88"/>
      <point x="378" y="-157" type="curve" smooth="yes"/>
      <point x="378" y="-320"/>
      <point x="292" y="-408"/>
      <point x="128" y="-408" type="curve" smooth="yes"/>
      <point x="79" y="-408"/>
      <point x="2" y="-397"/>
      <point x="-15" y="-384" type="curve"/>
      <point x="7" y="-254" type="line"/>
      <point x="22" y="-262"/>
      <point x="51" y="-267"/>
      <point x="79" y="-267" type="curve" smooth="yes"/>
      <point x="178" y="-267"/>
      <point x="236" y="-202"/>
      <point x="236" y="-77" type="curve" smooth="yes"/>
      <point x="236" y="-42"/>
      <point x="233" y="-7"/>
      <point x="226" y="26" type="curve"/>
      <point x="280" y="29" type="line"/>
    </contour>
  </outline>
</glyph>
<glyph name="uni00B9" format="1">
  <advance width="891"/>
  <unicode hex="00B9"/>
  <note>
	uni00B9
  </note>
  <outline>
    <contour>
      <point x="392" y="724" type="line"/>
      <point x="457" y="1256" type="line"/>
      <point x="402" y="1233"/>
      <point x="311" y="1216"/>
      <point x="235" y="1209" type="curve"/>
      <point x="223" y="1310" type="line"/>
      <point x="283" y="1323"/>
      <point x="385" y="1359"/>
      <point x="475" y="1404" type="curve" smooth="yes"/>
      <point x="520" y="1426"/>
      <point x="556" y="1448"/>
      <point x="583" y="1471" type="curve"/>
      <point x="586" y="1471" type="line"/>
      <point x="679" y="1453" type="line"/>
      <point x="591" y="724" type="line"/>
      <point x="791" y="704" type="line"/>
      <point x="778" y="605" type="line"/>
      <point x="177" y="605" type="line"/>
      <point x="191" y="704" type="line"/>
    </contour>
  </outline>
</glyph>
<glyph name="ordmasculine" format="1">
  <advance width="734"/>
  <unicode hex="00BA"/>
  <note>
	ordmasculine
  </note>
  <outline>
    <contour>
      <point x="63" y="1109"/>
      <point x="150" y="1245"/>
      <point x="275" y="1315" type="curve" smooth="yes"/>
      <point x="338" y="1350"/>
      <point x="402" y="1367"/>
      <point x="469" y="1367" type="curve" smooth="yes"/>
      <point x="593" y="1367"/>
      <point x="685" y="1312"/>
      <point x="732" y="1221" type="curve" smooth="yes"/>
      <point x="755" y="1175"/>
      <point x="767" y="1122"/>
      <point x="767" y="1061" type="curve" smooth="yes"/>
      <point x="767" y="884"/>
      <point x="684" y="750"/>
      <point x="560" y="682" type="curve" smooth="yes"/>
      <point x="497" y="647"/>
      <point x="431" y="630"/>
      <point x="360" y="630" type="curve" smooth="yes"/>
      <point x="244" y="630"/>
      <point x="151" y="682"/>
      <point x="101" y="774" type="curve" smooth="yes"/>
      <point x="76" y="819"/>
      <point x="63" y="872"/>
      <point x="63" y="933" type="curve" smooth="yes"/>
    </contour>
    <contour>
      <point x="564" y="1185"/>
      <point x="523" y="1278"/>
      <point x="452" y="1277" type="curve" smooth="yes"/>
      <point x="361" y="1277"/>
      <point x="305" y="1201"/>
      <point x="281" y="1102" type="curve" smooth="yes"/>
      <point x="269" y="1052"/>
      <point x="263" y="1001"/>
      <point x="263" y="949" type="curve" smooth="yes"/>
      <point x="263" y="858"/>
      <point x="283" y="789"/>
      <point x="315" y="753" type="curve" smooth="yes"/>
      <point x="331" y="735"/>
      <point x="349" y="726"/>
      <point x="369" y="726" type="curve" smooth="yes"/>
      <point x="512" y="726"/>
      <point x="564" y="867"/>
      <point x="564" y="1046" type="curve" smooth="yes"/>
    </contour>
  </outline>
</glyph>
<glyph name="guillemotright" format="1">
  <advance width="1610"/>
  <unicode hex="00BB"/>
  <note>
	guillemotright
  </note>
  <outline>
    <contour>
      <point x="138" y="126" type="line"/>
      <point x="96" y="254" type="line"/>
      <point x="511" y="541" type="line"/>
      <point x="175" y="823" type="line"/>
      <point x="249" y="939" type="line"/>
      <point x="772" y="609" type="line"/>
      <point x="753" y="471" type="line"/>
    </contour>
    <contour>
      <point x="720" y="126" type="line"/>
      <point x="678" y="254" type="line"/>
      <point x="1092" y="541" type="line"/>
      <point x="756" y="823" type="line"/>
      <point x="830" y="939" type="line"/>
      <point x="1354" y="609" type="line"/>
      <point x="1335" y="471" type="line"/>
    </contour>
  </outline>
</glyph>
<glyph name="onequarter" format="1">
  <advance width="2189"/>
  <unicode hex="00BC"/>
  <note>
	onequarter
  </note>
  <outline>
    <contour>
      <point x="382" y="574" type="line"/>
      <point x="447" y="1106" type="line"/>
      <point x="392" y="1083"/>
      <point x="301" y="1066"/>
      <point x="225" y="1059" type="curve"/>
      <point x="213" y="1160" type="line"/>
      <point x="273" y="1173"/>
      <point x="375" y="1209"/>
      <point x="465" y="1254" type="curve" smooth="yes"/>
      <point x="510" y="1276"/>
      <point x="546" y="1298"/>
      <point x="573" y="1321" type="curve"/>
      <point x="576" y="1321" type="line"/>
      <point x="669" y="1303" type="line"/>
      <point x="581" y="574" type="line"/>
      <point x="781" y="554" type="line"/>
      <point x="768" y="455" type="line"/>
      <point x="167" y="455" type="line"/>
      <point x="181" y="554" type="line"/>
    </contour>
    <contour>
      <point x="1676" y="924" type="line"/>
      <point x="1729" y="924" type="line"/>
      <point x="1842" y="840" type="line"/>
      <point x="1441" y="339" type="line"/>
      <point x="1376" y="266" type="line"/>
      <point x="1678" y="285" type="line"/>
      <point x="1705" y="487" type="line"/>
      <point x="1871" y="503" type="line"/>
      <point x="1843" y="295" type="line"/>
      <point x="1984" y="304" type="line"/>
      <point x="1968" y="156" type="line"/>
      <point x="1825" y="156" type="line"/>
      <point x="1803" y="-13" type="line"/>
      <point x="1638" y="-13" type="line"/>
      <point x="1661" y="156" type="line"/>
      <point x="1234" y="156" type="line"/>
      <point x="1194" y="254" type="line"/>
    </contour>
    <contour>
      <point x="1404" y="1316" type="line"/>
      <point x="818" y="0" type="line"/>
      <point x="663" y="0" type="line"/>
      <point x="1248" y="1316" type="line"/>
    </contour>
  </outline>
</glyph>
<glyph name="onehalf" format="1">
  <advance width="2189"/>
  <unicode hex="00BD"/>
  <note>
	onehalf
  </note>
  <outline>
    <contour>
      <point x="382" y="574" type="line"/>
      <point x="447" y="1106" type="line"/>
      <point x="392" y="1083"/>
      <point x="301" y="1066"/>
      <point x="225" y="1059" type="curve"/>
      <point x="213" y="1160" type="line"/>
      <point x="273" y="1173"/>
      <point x="375" y="1209"/>
      <point x="465" y="1254" type="curve" smooth="yes"/>
      <point x="510" y="1276"/>
      <point x="546" y="1298"/>
      <point x="573" y="1321" type="curve"/>
      <point x="576" y="1321" type="line"/>
      <point x="669" y="1303" type="line"/>
      <point x="581" y="574" type="line"/>
      <point x="781" y="554" type="line"/>
      <point x="768" y="455" type="line"/>
      <point x="167" y="455" type="line"/>
      <point x="181" y="554" type="line"/>
    </contour>
    <contour>
      <point x="1422" y="1316" type="line"/>
      <point x="836" y="0" type="line"/>
      <point x="681" y="0" type="line"/>
      <point x="1266" y="1316" type="line"/>
    </contour>
    <contour>
      <point x="1253" y="90" type="line"/>
      <point x="1369" y="158"/>
      <point x="1537" y="273"/>
      <point x="1658" y="412" type="curve" smooth="yes"/>
      <point x="1718" y="481"/>
      <point x="1748" y="547"/>
      <point x="1748" y="608" type="curve" smooth="yes"/>
      <point x="1748" y="691"/>
      <point x="1701" y="737"/>
      <point x="1616" y="737" type="curve" smooth="yes"/>
      <point x="1529" y="737"/>
      <point x="1438" y="694"/>
      <point x="1390" y="647" type="curve"/>
      <point x="1329" y="719" type="line"/>
      <point x="1362" y="760"/>
      <point x="1439" y="811"/>
      <point x="1534" y="843" type="curve" smooth="yes"/>
      <point x="1581" y="858"/>
      <point x="1628" y="866"/>
      <point x="1674" y="866" type="curve" smooth="yes"/>
      <point x="1862" y="866"/>
      <point x="1957" y="786"/>
      <point x="1957" y="658" type="curve" smooth="yes"/>
      <point x="1957" y="538"/>
      <point x="1842" y="397"/>
      <point x="1686" y="277" type="curve" smooth="yes"/>
      <point x="1607" y="217"/>
      <point x="1526" y="165"/>
      <point x="1443" y="120" type="curve"/>
      <point x="1832" y="160" type="line"/>
      <point x="1890" y="261" type="line"/>
      <point x="1979" y="241" type="line"/>
      <point x="1924" y="0" type="line"/>
      <point x="1285" y="0" type="line"/>
    </contour>
  </outline>
</glyph>
<glyph name="threequarters" format="1">
  <advance width="2189"/>
  <unicode hex="00BE"/>
  <note>
	threequarters
  </note>
  <outline>
    <contour>
      <point x="161" y="595" type="line"/>
      <point x="220" y="575"/>
      <point x="311" y="559"/>
      <point x="378" y="559" type="curve" smooth="yes"/>
      <point x="534" y="559"/>
      <point x="616" y="617"/>
      <point x="621" y="720" type="curve" smooth="yes"/>
      <point x="624" y="765"/>
      <point x="599" y="808"/>
      <point x="555" y="832" type="curve"/>
      <point x="533" y="843"/>
      <point x="508" y="849"/>
      <point x="480" y="849" type="curve" smooth="yes"/>
      <point x="473" y="849"/>
      <point x="468" y="849"/>
      <point x="465" y="848" type="curve" smooth="yes"/>
      <point x="363" y="814" type="line"/>
      <point x="343" y="917" type="line"/>
      <point x="427" y="941"/>
      <point x="500" y="975"/>
      <point x="549" y="1025" type="curve" smooth="yes"/>
      <point x="597" y="1075"/>
      <point x="599" y="1146"/>
      <point x="565" y="1178" type="curve" smooth="yes"/>
      <point x="548" y="1193"/>
      <point x="516" y="1201"/>
      <point x="471" y="1201" type="curve" smooth="yes"/>
      <point x="404" y="1201"/>
      <point x="336" y="1175"/>
      <point x="267" y="1122" type="curve"/>
      <point x="220" y="1210" type="line"/>
      <point x="295" y="1274"/>
      <point x="418" y="1323"/>
      <point x="549" y="1323" type="curve" smooth="yes"/>
      <point x="650" y="1323"/>
      <point x="730" y="1292"/>
      <point x="768" y="1240" type="curve" smooth="yes"/>
      <point x="806" y="1188"/>
      <point x="806" y="1099"/>
      <point x="742" y="1021" type="curve" smooth="yes"/>
      <point x="709" y="982"/>
      <point x="651" y="947"/>
      <point x="568" y="917" type="curve"/>
      <point x="584" y="918"/>
      <point x="595" y="918"/>
      <point x="602" y="918" type="curve" smooth="yes"/>
      <point x="697" y="918"/>
      <point x="769" y="882"/>
      <point x="805" y="822" type="curve" smooth="yes"/>
      <point x="841" y="762"/>
      <point x="843" y="665"/>
      <point x="772" y="580" type="curve" smooth="yes"/>
      <point x="700" y="495"/>
      <point x="567" y="442"/>
      <point x="392" y="442" type="curve" smooth="yes"/>
      <point x="313" y="442"/>
      <point x="222" y="458"/>
      <point x="149" y="491" type="curve"/>
    </contour>
    <contour>
      <point x="1676" y="924" type="line"/>
      <point x="1729" y="924" type="line"/>
      <point x="1842" y="840" type="line"/>
      <point x="1441" y="339" type="line"/>
      <point x="1376" y="266" type="line"/>
      <point x="1678" y="285" type="line"/>
      <point x="1705" y="487" type="line"/>
      <point x="1871" y="503" type="line"/>
      <point x="1843" y="295" type="line"/>
      <point x="1984" y="304" type="line"/>
      <point x="1968" y="156" type="line"/>
      <point x="1825" y="156" type="line"/>
      <point x="1803" y="-13" type="line"/>
      <point x="1638" y="-13" type="line"/>
      <point x="1661" y="156" type="line"/>
      <point x="1234" y="156" type="line"/>
      <point x="1194" y="254" type="line"/>
    </contour>
    <contour>
      <point x="1426" y="1316" type="line"/>
      <point x="840" y="0" type="line"/>
      <point x="685" y="0" type="line"/>
      <point x="1270" y="1316" type="line"/>
    </contour>
  </outline>
</glyph>
<glyph name="questiondown" format="1">
  <advance width="877"/>
  <unicode hex="00BF"/>
  <note>
	questiondown
  </note>
  <outline>
    <contour>
      <point x="692" y="787" type="line"/>
      <point x="693" y="752" type="line" smooth="yes"/>
      <point x="696" y="707"/>
      <point x="699" y="684"/>
      <point x="692" y="646" type="curve" smooth="yes"/>
      <point x="677" y="564"/>
      <point x="643" y="492"/>
      <point x="587" y="426" type="curve" smooth="yes"/>
      <point x="539" y="371"/>
      <point x="483" y="328"/>
      <point x="429" y="287" type="curve" smooth="yes"/>
      <point x="384" y="253"/>
      <point x="341" y="220"/>
      <point x="309" y="184" type="curve" smooth="yes"/>
      <point x="275" y="147"/>
      <point x="256" y="109"/>
      <point x="248" y="65" type="curve" smooth="yes"/>
      <point x="238" y="11"/>
      <point x="248" y="-31"/>
      <point x="275" y="-60" type="curve" smooth="yes"/>
      <point x="289" y="-75"/>
      <point x="309" y="-86"/>
      <point x="333" y="-94" type="curve" smooth="yes"/>
      <point x="359" y="-103"/>
      <point x="392" y="-108"/>
      <point x="429" y="-108" type="curve" smooth="yes"/>
      <point x="501" y="-108"/>
      <point x="585" y="-85"/>
      <point x="648" y="-48" type="curve" smooth="yes"/>
      <point x="702" y="-17" type="line"/>
      <point x="730" y="-167" type="line"/>
      <point x="704" y="-187" type="line" smooth="yes"/>
      <point x="679" y="-205"/>
      <point x="627" y="-240"/>
      <point x="554" y="-269" type="curve" smooth="yes"/>
      <point x="481" y="-297"/>
      <point x="409" y="-312"/>
      <point x="338" y="-312" type="curve" smooth="yes"/>
      <point x="273" y="-312"/>
      <point x="215" y="-304"/>
      <point x="166" y="-289" type="curve" smooth="yes"/>
      <point x="116" y="-273"/>
      <point x="74" y="-250"/>
      <point x="42" y="-220" type="curve" smooth="yes"/>
      <point x="10" y="-188"/>
      <point x="-13" y="-150"/>
      <point x="-24" y="-105" type="curve" smooth="yes"/>
      <point x="-35" y="-61"/>
      <point x="-36" y="-10"/>
      <point x="-27" y="45" type="curve" smooth="yes"/>
      <point x="-13" y="123"/>
      <point x="26" y="193"/>
      <point x="91" y="259" type="curve" smooth="yes"/>
      <point x="146" y="315"/>
      <point x="212" y="361"/>
      <point x="276" y="405" type="curve" smooth="yes"/>
      <point x="335" y="445"/>
      <point x="390" y="483"/>
      <point x="433" y="526" type="curve" smooth="yes"/>
      <point x="477" y="570"/>
      <point x="502" y="613"/>
      <point x="511" y="662" type="curve" smooth="yes"/>
      <point x="514" y="680"/>
      <point x="511" y="683"/>
      <point x="512" y="704" type="curve" smooth="yes"/>
      <point x="512" y="714"/>
      <point x="512" y="725"/>
      <point x="513" y="737" type="curve" smooth="yes"/>
      <point x="515" y="787" type="line"/>
    </contour>
    <contour>
      <point x="544" y="968"/>
      <point x="498" y="1018"/>
      <point x="499" y="1085" type="curve"/>
      <point x="500" y="1094"/>
      <point x="500" y="1102"/>
      <point x="501" y="1107" type="curve" smooth="yes"/>
      <point x="514" y="1184"/>
      <point x="584" y="1236"/>
      <point x="673" y="1244" type="curve" smooth="yes"/>
      <point x="682" y="1245"/>
      <point x="689" y="1246"/>
      <point x="694" y="1246" type="curve" smooth="yes"/>
      <point x="759" y="1246"/>
      <point x="811" y="1199"/>
      <point x="810" y="1130" type="curve"/>
      <point x="810" y="1127"/>
      <point x="809" y="1122"/>
      <point x="808" y="1115" type="curve" smooth="yes"/>
      <point x="799" y="1062"/>
      <point x="758" y="1013"/>
      <point x="704" y="987" type="curve" smooth="yes"/>
      <point x="676" y="974"/>
      <point x="648" y="968"/>
      <point x="619" y="968" type="curve" smooth="yes"/>
    </contour>
  </outline>
</glyph>
<glyph name="Agrave" format="1">
  <advance width="1158"/>
  <unicode hex="00C0"/>
  <note>
	Agrave
  </note>
  <outline>
    <contour>
      <point x="822" y="1309" type="line"/>
      <point x="1037" y="111" type="line"/>
      <point x="1174" y="83" type="line"/>
      <point x="1168" y="0" type="line"/>
      <point x="644" y="0" type="line"/>
      <point x="648" y="83" type="line"/>
      <point x="783" y="108" type="line"/>
      <point x="745" y="366" type="line"/>
      <point x="295" y="366" type="line"/>
      <point x="181" y="109" type="line"/>
      <point x="331" y="83" type="line"/>
      <point x="325" y="0" type="line"/>
      <point x="-122" y="0" type="line"/>
      <point x="-115" y="83" type="line"/>
      <point x="-3" y="108" type="line"/>
      <point x="580" y="1309" type="line"/>
    </contour>
    <contour>
      <point x="727" y="484" type="line"/>
      <point x="650" y="1006" type="line"/>
      <point x="642" y="1143" type="line"/>
      <point x="347" y="484" type="line"/>
    </contour>
    <contour>
      <point x="559" y="1727" type="line"/>
      <point x="791" y="1433" type="line"/>
      <point x="710" y="1367" type="line"/>
      <point x="653" y="1388"/>
      <point x="561" y="1442"/>
      <point x="492" y="1504" type="curve" smooth="yes"/>
      <point x="457" y="1535"/>
      <point x="433" y="1564"/>
      <point x="419" y="1593" type="curve"/>
    </contour>
  </outline>
</glyph>
<glyph name="Aacute" format="1">
  <advance width="1158"/>
  <unicode hex="00C1"/>
  <note>
	Aacute
  </note>
  <outline>
    <contour>
      <point x="822" y="1309" type="line"/>
      <point x="1037" y="111" type="line"/>
      <point x="1174" y="83" type="line"/>
      <point x="1168" y="0" type="line"/>
      <point x="644" y="0" type="line"/>
      <point x="648" y="83" type="line"/>
      <point x="783" y="108" type="line"/>
      <point x="745" y="366" type="line"/>
      <point x="295" y="366" type="line"/>
      <point x="181" y="109" type="line"/>
      <point x="331" y="83" type="line"/>
      <point x="325" y="0" type="line"/>
      <point x="-122" y="0" type="line"/>
      <point x="-115" y="83" type="line"/>
      <point x="-3" y="108" type="line"/>
      <point x="580" y="1309" type="line"/>
    </contour>
    <contour>
      <point x="727" y="484" type="line"/>
      <point x="650" y="1006" type="line"/>
      <point x="642" y="1143" type="line"/>
      <point x="347" y="484" type="line"/>
    </contour>
    <contour>
      <point x="868" y="1727" type="line"/>
      <point x="1006" y="1593" type="line"/>
      <point x="978" y="1537"/>
      <point x="900" y="1471"/>
      <point x="817" y="1421" type="curve" smooth="yes"/>
      <point x="776" y="1396"/>
      <point x="740" y="1378"/>
      <point x="711" y="1367" type="curve"/>
      <point x="631" y="1433" type="line"/>
    </contour>
  </outline>
</glyph>
<glyph name="Acircumflex" format="1">
  <advance width="1158"/>
  <unicode hex="00C2"/>
  <note>
	Acircumflex
  </note>
  <outline>
    <contour>
      <point x="822" y="1309" type="line"/>
      <point x="1037" y="111" type="line"/>
      <point x="1174" y="83" type="line"/>
      <point x="1168" y="0" type="line"/>
      <point x="644" y="0" type="line"/>
      <point x="648" y="83" type="line"/>
      <point x="783" y="108" type="line"/>
      <point x="745" y="366" type="line"/>
      <point x="295" y="366" type="line"/>
      <point x="181" y="109" type="line"/>
      <point x="331" y="83" type="line"/>
      <point x="325" y="0" type="line"/>
      <point x="-122" y="0" type="line"/>
      <point x="-115" y="83" type="line"/>
      <point x="-3" y="108" type="line"/>
      <point x="580" y="1309" type="line"/>
    </contour>
    <contour>
      <point x="727" y="484" type="line"/>
      <point x="650" y="1006" type="line"/>
      <point x="642" y="1143" type="line"/>
      <point x="347" y="484" type="line"/>
    </contour>
    <contour>
      <point x="702" y="1727" type="line"/>
      <point x="854" y="1727" type="line"/>
      <point x="1036" y="1434" type="line"/>
      <point x="950" y="1385" type="line"/>
      <point x="762" y="1570" type="line"/>
      <point x="484" y="1385" type="line"/>
      <point x="410" y="1434" type="line"/>
    </contour>
  </outline>
</glyph>
<glyph name="Atilde" format="1">
  <advance width="1158"/>
  <unicode hex="00C3"/>
  <note>
	Atilde
  </note>
  <outline>
    <contour>
      <point x="822" y="1309" type="line"/>
      <point x="1037" y="111" type="line"/>
      <point x="1174" y="83" type="line"/>
      <point x="1168" y="0" type="line"/>
      <point x="644" y="0" type="line"/>
      <point x="648" y="83" type="line"/>
      <point x="783" y="108" type="line"/>
      <point x="745" y="366" type="line"/>
      <point x="295" y="366" type="line"/>
      <point x="181" y="109" type="line"/>
      <point x="331" y="83" type="line"/>
      <point x="325" y="0" type="line"/>
      <point x="-122" y="0" type="line"/>
      <point x="-115" y="83" type="line"/>
      <point x="-3" y="108" type="line"/>
      <point x="580" y="1309" type="line"/>
    </contour>
    <contour>
      <point x="727" y="484" type="line"/>
      <point x="650" y="1006" type="line"/>
      <point x="642" y="1143" type="line"/>
      <point x="347" y="484" type="line"/>
    </contour>
    <contour>
      <point x="412" y="1549" type="line"/>
      <point x="431" y="1600"/>
      <point x="471" y="1646"/>
      <point x="528" y="1674" type="curve" smooth="yes"/>
      <point x="556" y="1687"/>
      <point x="587" y="1694"/>
      <point x="620" y="1694" type="curve" smooth="yes"/>
      <point x="681" y="1694"/>
      <point x="718" y="1668"/>
      <point x="767" y="1623" type="curve" smooth="yes"/>
      <point x="810" y="1584"/>
      <point x="831" y="1569"/>
      <point x="866" y="1569" type="curve" smooth="yes"/>
      <point x="923" y="1569"/>
      <point x="956" y="1601"/>
      <point x="995" y="1650" type="curve"/>
      <point x="1059" y="1557" type="line"/>
      <point x="1039" y="1508"/>
      <point x="1000" y="1458"/>
      <point x="944" y="1428" type="curve" smooth="yes"/>
      <point x="916" y="1413"/>
      <point x="886" y="1405"/>
      <point x="854" y="1405" type="curve" smooth="yes"/>
      <point x="806" y="1405"/>
      <point x="770" y="1420"/>
      <point x="746" y="1439" type="curve"/>
      <point x="733" y="1448"/>
      <point x="718" y="1461"/>
      <point x="701" y="1476" type="curve" smooth="yes"/>
      <point x="661" y="1512"/>
      <point x="636" y="1531"/>
      <point x="595" y="1531" type="curve" smooth="yes"/>
      <point x="547" y="1531"/>
      <point x="509" y="1503"/>
      <point x="470" y="1459" type="curve"/>
    </contour>
  </outline>
</glyph>
<glyph name="Aring" format="1">
  <advance width="1158"/>
  <unicode hex="00C5"/>
  <note>
	Aring
  </note>
  <outline>
    <contour>
      <point x="576" y="1301" type="line"/>
      <point x="484" y="1330"/>
      <point x="433" y="1393"/>
      <point x="433" y="1484" type="curve" smooth="yes"/>
      <point x="433" y="1593"/>
      <point x="507" y="1666"/>
      <point x="607" y="1701" type="curve" smooth="yes"/>
      <point x="656" y="1718"/>
      <point x="706" y="1727"/>
      <point x="756" y="1727" type="curve" smooth="yes"/>
      <point x="856" y="1727"/>
      <point x="937" y="1695"/>
      <point x="979" y="1638" type="curve" smooth="yes"/>
      <point x="1000" y="1609"/>
      <point x="1010" y="1576"/>
      <point x="1010" y="1537" type="curve" smooth="yes"/>
      <point x="1010" y="1417"/>
      <point x="934" y="1339"/>
      <point x="823" y="1304" type="curve"/>
      <point x="1037" y="111" type="line"/>
      <point x="1174" y="83" type="line"/>
      <point x="1168" y="0" type="line"/>
      <point x="644" y="0" type="line"/>
      <point x="648" y="83" type="line"/>
      <point x="783" y="108" type="line"/>
      <point x="745" y="366" type="line"/>
      <point x="295" y="366" type="line"/>
      <point x="181" y="109" type="line"/>
      <point x="331" y="83" type="line"/>
      <point x="325" y="0" type="line"/>
      <point x="-122" y="0" type="line"/>
      <point x="-115" y="83" type="line"/>
      <point x="-3" y="108" type="line"/>
    </contour>
    <contour>
      <point x="864" y="1561"/>
      <point x="840" y="1595"/>
      <point x="801" y="1614" type="curve" smooth="yes"/>
      <point x="781" y="1623"/>
      <point x="760" y="1628"/>
      <point x="738" y="1628" type="curve" smooth="yes"/>
      <point x="685" y="1628"/>
      <point x="634" y="1610"/>
      <point x="603" y="1571" type="curve" smooth="yes"/>
      <point x="588" y="1552"/>
      <point x="580" y="1527"/>
      <point x="580" y="1498" type="curve" smooth="yes"/>
      <point x="580" y="1454"/>
      <point x="605" y="1418"/>
      <point x="645" y="1399" type="curve"/>
      <point x="664" y="1389"/>
      <point x="686" y="1384"/>
      <point x="709" y="1384" type="curve" smooth="yes"/>
      <point x="797" y="1384"/>
      <point x="864" y="1423"/>
      <point x="864" y="1520" type="curve" smooth="yes"/>
    </contour>
    <contour>
      <point x="727" y="484" type="line"/>
      <point x="650" y="1006" type="line"/>
      <point x="642" y="1143" type="line"/>
      <point x="347" y="484" type="line"/>
    </contour>
  </outline>
</glyph>
<glyph name="Ccedilla" format="1">
  <advance width="1088"/>
  <unicode hex="00C7"/>
  <note>
	Ccedilla
  </note>
  <outline>
    <contour>
      <point x="549" y="1218"/>
      <point x="425" y="1065"/>
      <point x="370" y="863" type="curve" smooth="yes"/>
      <point x="314" y="661"/>
      <point x="315" y="393"/>
      <point x="400" y="230" type="curve" smooth="yes"/>
      <point x="443" y="149"/>
      <point x="507" y="108"/>
      <point x="594" y="108" type="curve" smooth="yes"/>
      <point x="670" y="108"/>
      <point x="753" y="127"/>
      <point x="800" y="183" type="curve"/>
      <point x="816" y="200"/>
      <point x="848" y="298"/>
      <point x="864" y="354" type="curve"/>
      <point x="1007" y="354" type="line"/>
      <point x="971" y="92" type="line"/>
      <point x="882" y="37"/>
      <point x="778" y="3"/>
      <point x="659" y="-9" type="curve"/>
      <point x="671" y="-49"/>
      <point x="680" y="-107"/>
      <point x="680" y="-155" type="curve" smooth="yes"/>
      <point x="680" y="-318"/>
      <point x="594" y="-407"/>
      <point x="430" y="-407" type="curve" smooth="yes"/>
      <point x="381" y="-407"/>
      <point x="305" y="-395"/>
      <point x="286" y="-383" type="curve"/>
      <point x="309" y="-252" type="line"/>
      <point x="324" y="-260"/>
      <point x="353" y="-265"/>
      <point x="381" y="-265" type="curve" smooth="yes"/>
      <point x="480" y="-265"/>
      <point x="538" y="-200"/>
      <point x="538" y="-75" type="curve" smooth="yes"/>
      <point x="538" y="-58"/>
      <point x="537" y="-38"/>
      <point x="535" y="-14" type="curve"/>
      <point x="316" y="-7"/>
      <point x="176" y="108"/>
      <point x="112" y="277" type="curve" smooth="yes"/>
      <point x="80" y="361"/>
      <point x="64" y="454"/>
      <point x="64" y="555" type="curve" smooth="yes"/>
      <point x="64" y="866"/>
      <point x="192" y="1106"/>
      <point x="407" y="1231" type="curve" smooth="yes"/>
      <point x="514" y="1293"/>
      <point x="636" y="1324"/>
      <point x="771" y="1324" type="curve" smooth="yes"/>
      <point x="906" y="1324"/>
      <point x="976" y="1310"/>
      <point x="1055" y="1290" type="curve"/>
      <point x="1058" y="1289"/>
      <point x="1066" y="1287"/>
      <point x="1078" y="1284" type="curve"/>
      <point x="1109" y="1275" type="line"/>
      <point x="1054" y="943" type="line"/>
      <point x="888" y="943" type="line"/>
      <point x="860" y="1190" type="line"/>
      <point x="821" y="1209"/>
      <point x="779" y="1218"/>
      <point x="734" y="1218" type="curve" smooth="yes"/>
    </contour>
  </outline>
</glyph>
<glyph name="Eacute" format="1">
  <advance width="1093"/>
  <unicode hex="00C9"/>
  <note>
	Eacute
  </note>
  <outline>
    <contour>
      <point x="845" y="1727" type="line"/>
      <point x="983" y="1593" type="line"/>
      <point x="955" y="1537"/>
      <point x="877" y="1471"/>
      <point x="794" y="1421" type="curve" smooth="yes"/>
      <point x="753" y="1396"/>
      <point x="717" y="1378"/>
      <point x="688" y="1367" type="curve"/>
      <point x="608" y="1433" type="line"/>
    </contour>
    <contour>
      <point x="137" y="109" type="line"/>
      <point x="276" y="1196" type="line"/>
      <point x="157" y="1218" type="line"/>
      <point x="166" y="1309" type="line"/>
      <point x="1055" y="1309" type="line"/>
      <point x="1035" y="1013" type="line"/>
      <point x="888" y="1013" type="line"/>
      <point x="854" y="1193" type="line"/>
      <point x="524" y="1210" type="line"/>
      <point x="461" y="741" type="line"/>
      <point x="851" y="766" type="line"/>
      <point x="829" y="596" type="line"/>
      <point x="447" y="616" type="line"/>
      <point x="378" y="109" type="line"/>
      <point x="810" y="135" type="line"/>
      <point x="912" y="357" type="line"/>
      <point x="1054" y="338" type="line"/>
      <point x="986" y="0" type="line"/>
      <point x="-7" y="0" type="line"/>
      <point x="3" y="83" type="line"/>
    </contour>
  </outline>
</glyph>
<glyph name="Edieresis" format="1">
  <advance width="1093"/>
  <unicode hex="00CB"/>
  <note>
	Edieresis
  </note>
  <outline>
    <contour>
      <point x="395" y="1619"/>
      <point x="421" y="1666"/>
      <point x="462" y="1691" type="curve" smooth="yes"/>
      <point x="483" y="1703"/>
      <point x="505" y="1709"/>
      <point x="530" y="1709" type="curve" smooth="yes"/>
      <point x="601" y="1709"/>
      <point x="645" y="1664"/>
      <point x="645" y="1601" type="curve" smooth="yes"/>
      <point x="645" y="1514"/>
      <point x="589" y="1453"/>
      <point x="504" y="1453" type="curve" smooth="yes"/>
      <point x="443" y="1453"/>
      <point x="395" y="1503"/>
      <point x="395" y="1566" type="curve" smooth="yes"/>
    </contour>
    <contour>
      <point x="771" y="1621"/>
      <point x="798" y="1667"/>
      <point x="839" y="1691" type="curve" smooth="yes"/>
      <point x="860" y="1703"/>
      <point x="882" y="1709"/>
      <point x="907" y="1709" type="curve" smooth="yes"/>
      <point x="978" y="1709"/>
      <point x="1021" y="1663"/>
      <point x="1021" y="1600" type="curve" smooth="yes"/>
      <point x="1021" y="1515"/>
      <point x="967" y="1453"/>
      <point x="879" y="1453" type="curve" smooth="yes"/>
      <point x="819" y="1453"/>
      <point x="771" y="1504"/>
      <point x="771" y="1568" type="curve" smooth="yes"/>
    </contour>
    <contour>
      <point x="137" y="109" type="line"/>
      <point x="276" y="1196" type="line"/>
      <point x="157" y="1218" type="line"/>
      <point x="166" y="1309" type="line"/>
      <point x="1055" y="1309" type="line"/>
      <point x="1035" y="1013" type="line"/>
      <point x="888" y="1013" type="line"/>
      <point x="854" y="1193" type="line"/>
      <point x="524" y="1210" type="line"/>
      <point x="461" y="741" type="line"/>
      <point x="851" y="766" type="line"/>
      <point x="829" y="596" type="line"/>
      <point x="447" y="616" type="line"/>
      <point x="378" y="109" type="line"/>
      <point x="810" y="135" type="line"/>
      <point x="912" y="357" type="line"/>
      <point x="1054" y="338" type="line"/>
      <point x="986" y="0" type="line"/>
      <point x="-7" y="0" type="line"/>
      <point x="3" y="83" type="line"/>
    </contour>
  </outline>
</glyph>
<glyph name="Igrave" format="1">
  <advance width="636"/>
  <unicode hex="00CC"/>
  <note>
	Igrave
  </note>
  <outline>
    <contour>
      <point x="140" y="109" type="line"/>
      <point x="281" y="1196" type="line"/>
      <point x="160" y="1218" type="line"/>
      <point x="170" y="1309" type="line"/>
      <point x="676" y="1309" type="line"/>
      <point x="666" y="1218" type="line"/>
      <point x="525" y="1196" type="line"/>
      <point x="385" y="109" type="line"/>
      <point x="529" y="84" type="line"/>
      <point x="522" y="0" type="line"/>
      <point x="3" y="0" type="line"/>
      <point x="12" y="83" type="line"/>
    </contour>
    <contour>
      <point x="300" y="1727" type="line"/>
      <point x="532" y="1433" type="line"/>
      <point x="451" y="1367" type="line"/>
      <point x="394" y="1388"/>
      <point x="302" y="1442"/>
      <point x="233" y="1504" type="curve" smooth="yes"/>
      <point x="198" y="1535"/>
      <point x="174" y="1564"/>
      <point x="160" y="1593" type="curve"/>
    </contour>
  </outline>
</glyph>
<glyph name="Iacute" format="1">
  <advance width="636"/>
  <unicode hex="00CD"/>
  <note>
	Iacute
  </note>
  <outline>
    <contour>
      <point x="140" y="109" type="line"/>
      <point x="281" y="1196" type="line"/>
      <point x="160" y="1218" type="line"/>
      <point x="170" y="1309" type="line"/>
      <point x="676" y="1309" type="line"/>
      <point x="666" y="1218" type="line"/>
      <point x="525" y="1196" type="line"/>
      <point x="385" y="109" type="line"/>
      <point x="529" y="84" type="line"/>
      <point x="522" y="0" type="line"/>
      <point x="3" y="0" type="line"/>
      <point x="12" y="83" type="line"/>
    </contour>
    <contour>
      <point x="609" y="1727" type="line"/>
      <point x="747" y="1593" type="line"/>
      <point x="719" y="1537"/>
      <point x="641" y="1471"/>
      <point x="558" y="1421" type="curve" smooth="yes"/>
      <point x="517" y="1396"/>
      <point x="481" y="1378"/>
      <point x="452" y="1367" type="curve"/>
      <point x="372" y="1433" type="line"/>
    </contour>
  </outline>
</glyph>
<glyph name="Icircumflex" format="1">
  <advance width="636"/>
  <unicode hex="00CE"/>
  <note>
	Icircumflex
  </note>
  <outline>
    <contour>
      <point x="140" y="109" type="line"/>
      <point x="281" y="1196" type="line"/>
      <point x="160" y="1218" type="line"/>
      <point x="170" y="1309" type="line"/>
      <point x="676" y="1309" type="line"/>
      <point x="666" y="1218" type="line"/>
      <point x="525" y="1196" type="line"/>
      <point x="385" y="109" type="line"/>
      <point x="529" y="84" type="line"/>
      <point x="522" y="0" type="line"/>
      <point x="3" y="0" type="line"/>
      <point x="12" y="83" type="line"/>
    </contour>
    <contour>
      <point x="443" y="1727" type="line"/>
      <point x="595" y="1727" type="line"/>
      <point x="777" y="1434" type="line"/>
      <point x="691" y="1385" type="line"/>
      <point x="503" y="1570" type="line"/>
      <point x="225" y="1385" type="line"/>
      <point x="151" y="1434" type="line"/>
    </contour>
  </outline>
</glyph>
<glyph name="Idieresis" format="1">
  <advance width="636"/>
  <unicode hex="00CF"/>
  <note>
	Idieresis
  </note>
  <outline>
    <contour>
      <point x="140" y="109" type="line"/>
      <point x="281" y="1196" type="line"/>
      <point x="160" y="1218" type="line"/>
      <point x="170" y="1309" type="line"/>
      <point x="676" y="1309" type="line"/>
      <point x="666" y="1218" type="line"/>
      <point x="525" y="1196" type="line"/>
      <point x="385" y="109" type="line"/>
      <point x="529" y="84" type="line"/>
      <point x="522" y="0" type="line"/>
      <point x="3" y="0" type="line"/>
      <point x="12" y="83" type="line"/>
    </contour>
    <contour>
      <point x="160" y="1619"/>
      <point x="186" y="1666"/>
      <point x="227" y="1691" type="curve" smooth="yes"/>
      <point x="248" y="1703"/>
      <point x="270" y="1709"/>
      <point x="295" y="1709" type="curve" smooth="yes"/>
      <point x="366" y="1709"/>
      <point x="410" y="1664"/>
      <point x="410" y="1601" type="curve" smooth="yes"/>
      <point x="410" y="1514"/>
      <point x="354" y="1453"/>
      <point x="269" y="1453" type="curve" smooth="yes"/>
      <point x="208" y="1453"/>
      <point x="160" y="1503"/>
      <point x="160" y="1566" type="curve" smooth="yes"/>
    </contour>
    <contour>
      <point x="536" y="1621"/>
      <point x="563" y="1667"/>
      <point x="604" y="1691" type="curve" smooth="yes"/>
      <point x="625" y="1703"/>
      <point x="647" y="1709"/>
      <point x="672" y="1709" type="curve" smooth="yes"/>
      <point x="743" y="1709"/>
      <point x="786" y="1663"/>
      <point x="786" y="1600" type="curve" smooth="yes"/>
      <point x="786" y="1515"/>
      <point x="732" y="1453"/>
      <point x="644" y="1453" type="curve" smooth="yes"/>
      <point x="584" y="1453"/>
      <point x="536" y="1504"/>
      <point x="536" y="1568" type="curve" smooth="yes"/>
    </contour>
  </outline>
</glyph>
<glyph name="Eth" format="1">
  <advance width="1265"/>
  <unicode hex="00D0"/>
  <note>
	Eth
  </note>
  <outline>
    <contour>
      <point x="214" y="742" type="line"/>
      <point x="274" y="1198" type="line"/>
      <point x="155" y="1219" type="line"/>
      <point x="164" y="1311" type="line"/>
      <point x="430" y="1311" type="line" smooth="yes"/>
      <point x="457" y="1311"/>
      <point x="499" y="1313"/>
      <point x="557" y="1318" type="curve" smooth="yes"/>
      <point x="622" y="1322"/>
      <point x="671" y="1324"/>
      <point x="704" y="1324" type="curve" smooth="yes"/>
      <point x="1075" y="1324"/>
      <point x="1234" y="1119"/>
      <point x="1234" y="782" type="curve" smooth="yes"/>
      <point x="1234" y="473"/>
      <point x="1125" y="226"/>
      <point x="909" y="90" type="curve" smooth="yes"/>
      <point x="801" y="22"/>
      <point x="670" y="-12"/>
      <point x="516" y="-12" type="curve" smooth="yes"/>
      <point x="496" y="-12"/>
      <point x="452" y="-10"/>
      <point x="428" y="-6" type="curve"/>
      <point x="377" y="-2"/>
      <point x="298" y="2"/>
      <point x="249" y="2" type="curve" smooth="yes"/>
      <point x="-9" y="2" type="line"/>
      <point x="0" y="85" type="line"/>
      <point x="132" y="111" type="line"/>
      <point x="197" y="611" type="line"/>
      <point x="74" y="611" type="line"/>
      <point x="93" y="742" type="line"/>
    </contour>
    <contour>
      <point x="377" y="117" type="line"/>
      <point x="417" y="104"/>
      <point x="491" y="94"/>
      <point x="538" y="94" type="curve"/>
      <point x="738" y="101"/>
      <point x="870" y="247"/>
      <point x="931" y="448" type="curve" smooth="yes"/>
      <point x="961" y="548"/>
      <point x="976" y="653"/>
      <point x="976" y="762" type="curve" smooth="yes"/>
      <point x="976" y="986"/>
      <point x="935" y="1115"/>
      <point x="844" y="1175" type="curve" smooth="yes"/>
      <point x="798" y="1204"/>
      <point x="738" y="1219"/>
      <point x="663" y="1219" type="curve" smooth="yes"/>
      <point x="610" y="1219"/>
      <point x="545" y="1209"/>
      <point x="517" y="1201" type="curve"/>
      <point x="458" y="742" type="line"/>
      <point x="747" y="742" type="line"/>
      <point x="729" y="611" type="line"/>
      <point x="440" y="611" type="line"/>
    </contour>
  </outline>
</glyph>
<glyph name="Ntilde" format="1">
  <advance width="1322"/>
  <unicode hex="00D1"/>
  <note>
	Ntilde
  </note>
  <outline>
    <contour>
      <point x="480" y="1549" type="line"/>
      <point x="499" y="1600"/>
      <point x="539" y="1646"/>
      <point x="596" y="1674" type="curve" smooth="yes"/>
      <point x="624" y="1687"/>
      <point x="655" y="1694"/>
      <point x="688" y="1694" type="curve" smooth="yes"/>
      <point x="749" y="1694"/>
      <point x="786" y="1668"/>
      <point x="835" y="1623" type="curve" smooth="yes"/>
      <point x="878" y="1584"/>
      <point x="899" y="1569"/>
      <point x="934" y="1569" type="curve" smooth="yes"/>
      <point x="991" y="1569"/>
      <point x="1024" y="1601"/>
      <point x="1063" y="1650" type="curve"/>
      <point x="1127" y="1557" type="line"/>
      <point x="1107" y="1508"/>
      <point x="1068" y="1458"/>
      <point x="1012" y="1428" type="curve" smooth="yes"/>
      <point x="984" y="1413"/>
      <point x="954" y="1405"/>
      <point x="922" y="1405" type="curve" smooth="yes"/>
      <point x="874" y="1405"/>
      <point x="838" y="1420"/>
      <point x="814" y="1439" type="curve"/>
      <point x="801" y="1448"/>
      <point x="786" y="1461"/>
      <point x="769" y="1476" type="curve" smooth="yes"/>
      <point x="729" y="1512"/>
      <point x="704" y="1531"/>
      <point x="663" y="1531" type="curve" smooth="yes"/>
      <point x="615" y="1531"/>
      <point x="577" y="1503"/>
      <point x="538" y="1459" type="curve"/>
    </contour>
    <contour>
      <point x="134" y="108" type="line"/>
      <point x="287" y="1196" type="line"/>
      <point x="150" y="1218" type="line"/>
      <point x="164" y="1309" type="line"/>
      <point x="561" y="1309" type="line"/>
      <point x="917" y="416" type="line"/>
      <point x="981" y="217" type="line"/>
      <point x="1101" y="1197" type="line"/>
      <point x="961" y="1218" type="line"/>
      <point x="971" y="1309" type="line"/>
      <point x="1384" y="1309" type="line"/>
      <point x="1374" y="1218" type="line"/>
      <point x="1260" y="1196" type="line"/>
      <point x="1081" y="0" type="line"/>
      <point x="838" y="0" type="line"/>
      <point x="470" y="910" type="line"/>
      <point x="409" y="1116" type="line"/>
      <point x="302" y="109" type="line"/>
      <point x="453" y="84" type="line"/>
      <point x="445" y="0" type="line"/>
      <point x="3" y="0" type="line"/>
      <point x="10" y="83" type="line"/>
    </contour>
  </outline>
</glyph>
